G04 #@! TF.GenerationSoftware,KiCad,Pcbnew,(5.1.10)-1*
G04 #@! TF.CreationDate,2022-05-11T11:06:37+08:00*
G04 #@! TF.ProjectId,RUS-04_1x9,5255532d-3034-45f3-9178-392e6b696361,rev?*
G04 #@! TF.SameCoordinates,Original*
G04 #@! TF.FileFunction,Legend,Bot*
G04 #@! TF.FilePolarity,Positive*
%FSLAX45Y45*%
G04 Gerber Fmt 4.5, Leading zero omitted, Abs format (unit mm)*
G04 Created by KiCad (PCBNEW (5.1.10)-1) date 2022-05-11 11:06:37*
%MOMM*%
%LPD*%
G01*
G04 APERTURE LIST*
%ADD10C,2.200000*%
%ADD11C,0.150000*%
%ADD12C,0.300000*%
%ADD13C,1.200000*%
G04 APERTURE END LIST*
D10*
X7420000Y-3960000D02*
G75*
G03*
X7420000Y-3960000I-820000J0D01*
G01*
D11*
X8255000Y-4543810D02*
X8259762Y-4553333D01*
X8259762Y-4567619D01*
X8255000Y-4581905D01*
X8245476Y-4591429D01*
X8235952Y-4596190D01*
X8216905Y-4600952D01*
X8202619Y-4600952D01*
X8183571Y-4596190D01*
X8174048Y-4591429D01*
X8164524Y-4581905D01*
X8159762Y-4567619D01*
X8159762Y-4558095D01*
X8164524Y-4543810D01*
X8169286Y-4539048D01*
X8202619Y-4539048D01*
X8202619Y-4558095D01*
X8054762Y-4598333D02*
X7954762Y-4565000D01*
X8054762Y-4531667D01*
D12*
X8239286Y-3437857D02*
X8289286Y-3366428D01*
X8325000Y-3437857D02*
X8325000Y-3287857D01*
X8267857Y-3287857D01*
X8253571Y-3295000D01*
X8246428Y-3302143D01*
X8239286Y-3316428D01*
X8239286Y-3337857D01*
X8246428Y-3352143D01*
X8253571Y-3359286D01*
X8267857Y-3366428D01*
X8325000Y-3366428D01*
X8175000Y-3287857D02*
X8175000Y-3409286D01*
X8167857Y-3423571D01*
X8160714Y-3430714D01*
X8146428Y-3437857D01*
X8117857Y-3437857D01*
X8103571Y-3430714D01*
X8096428Y-3423571D01*
X8089286Y-3409286D01*
X8089286Y-3287857D01*
X8025000Y-3430714D02*
X8003571Y-3437857D01*
X7967857Y-3437857D01*
X7953571Y-3430714D01*
X7946428Y-3423571D01*
X7939286Y-3409286D01*
X7939286Y-3395000D01*
X7946428Y-3380714D01*
X7953571Y-3373571D01*
X7967857Y-3366428D01*
X7996428Y-3359286D01*
X8010714Y-3352143D01*
X8017857Y-3345000D01*
X8025000Y-3330714D01*
X8025000Y-3316428D01*
X8017857Y-3302143D01*
X8010714Y-3295000D01*
X7996428Y-3287857D01*
X7960714Y-3287857D01*
X7939286Y-3295000D01*
X7875000Y-3380714D02*
X7760714Y-3380714D01*
X7660714Y-3287857D02*
X7646428Y-3287857D01*
X7632143Y-3295000D01*
X7625000Y-3302143D01*
X7617857Y-3316428D01*
X7610714Y-3345000D01*
X7610714Y-3380714D01*
X7617857Y-3409286D01*
X7625000Y-3423571D01*
X7632143Y-3430714D01*
X7646428Y-3437857D01*
X7660714Y-3437857D01*
X7675000Y-3430714D01*
X7682143Y-3423571D01*
X7689286Y-3409286D01*
X7696428Y-3380714D01*
X7696428Y-3345000D01*
X7689286Y-3316428D01*
X7682143Y-3302143D01*
X7675000Y-3295000D01*
X7660714Y-3287857D01*
X7482143Y-3337857D02*
X7482143Y-3437857D01*
X7517857Y-3280714D02*
X7553571Y-3387857D01*
X7460714Y-3387857D01*
X6625000Y-3797857D02*
X6675000Y-3726428D01*
X6710714Y-3797857D02*
X6710714Y-3647857D01*
X6653571Y-3647857D01*
X6639286Y-3655000D01*
X6632143Y-3662143D01*
X6625000Y-3676428D01*
X6625000Y-3697857D01*
X6632143Y-3712143D01*
X6639286Y-3719286D01*
X6653571Y-3726428D01*
X6710714Y-3726428D01*
X6575000Y-3647857D02*
X6475000Y-3797857D01*
X6475000Y-3647857D02*
X6575000Y-3797857D01*
X9314286Y-4087857D02*
X9228571Y-4087857D01*
X9271429Y-4237857D02*
X9271429Y-4087857D01*
X9192857Y-4087857D02*
X9092857Y-4237857D01*
X9092857Y-4087857D02*
X9192857Y-4237857D01*
D11*
X7754762Y-4715238D02*
X7802381Y-4748571D01*
X7754762Y-4772381D02*
X7854762Y-4772381D01*
X7854762Y-4734286D01*
X7850000Y-4724762D01*
X7845238Y-4720000D01*
X7835714Y-4715238D01*
X7821428Y-4715238D01*
X7811905Y-4720000D01*
X7807143Y-4724762D01*
X7802381Y-4734286D01*
X7802381Y-4772381D01*
X7850000Y-4620000D02*
X7854762Y-4629524D01*
X7854762Y-4643810D01*
X7850000Y-4658095D01*
X7840476Y-4667619D01*
X7830952Y-4672381D01*
X7811905Y-4677143D01*
X7797619Y-4677143D01*
X7778571Y-4672381D01*
X7769048Y-4667619D01*
X7759524Y-4658095D01*
X7754762Y-4643810D01*
X7754762Y-4634286D01*
X7759524Y-4620000D01*
X7764286Y-4615238D01*
X7797619Y-4615238D01*
X7797619Y-4634286D01*
X7807143Y-4539048D02*
X7802381Y-4524762D01*
X7797619Y-4520000D01*
X7788095Y-4515238D01*
X7773809Y-4515238D01*
X7764286Y-4520000D01*
X7759524Y-4524762D01*
X7754762Y-4534286D01*
X7754762Y-4572381D01*
X7854762Y-4572381D01*
X7854762Y-4539048D01*
X7850000Y-4529524D01*
X7845238Y-4524762D01*
X7835714Y-4520000D01*
X7826190Y-4520000D01*
X7816667Y-4524762D01*
X7811905Y-4529524D01*
X7807143Y-4539048D01*
X7807143Y-4572381D01*
X7554762Y-4624762D02*
X7654762Y-4624762D01*
X7654762Y-4558095D02*
X7654762Y-4539048D01*
X7650000Y-4529524D01*
X7640476Y-4520000D01*
X7621428Y-4515238D01*
X7588095Y-4515238D01*
X7569048Y-4520000D01*
X7559524Y-4529524D01*
X7554762Y-4539048D01*
X7554762Y-4558095D01*
X7559524Y-4567619D01*
X7569048Y-4577143D01*
X7588095Y-4581905D01*
X7621428Y-4581905D01*
X7640476Y-4577143D01*
X7650000Y-4567619D01*
X7654762Y-4558095D01*
D10*
X10020000Y-3960000D02*
G75*
G03*
X10020000Y-3960000I-820000J0D01*
G01*
D11*
X8806302Y-3960000D02*
G75*
G03*
X8806302Y-3960000I-106302J0D01*
G01*
X6206301Y-3960000D02*
G75*
G03*
X6206301Y-3960000I-106302J0D01*
G01*
D13*
X9366004Y-3090951D02*
G75*
G02*
X9823000Y-3301000I216996J-130049D01*
G01*
D11*
X6206301Y-3960000D02*
G75*
G03*
X6206301Y-3960000I-106302J0D01*
G01*
D13*
X6429559Y-3100053D02*
G75*
G03*
X5972563Y-3310102I-216996J-130049D01*
G01*
X9366004Y-3090951D02*
G75*
G02*
X9823000Y-3301000I216996J-130049D01*
G01*
D10*
X10020000Y-3960000D02*
G75*
G03*
X10020000Y-3960000I-820000J0D01*
G01*
D11*
X8806302Y-3960000D02*
G75*
G03*
X8806302Y-3960000I-106302J0D01*
G01*
M02*
