M48
; DRILL file {KiCad (5.1.10)-1} date 05/11/22 11:06:39
; FORMAT={-:-/ absolute / inch / decimal}
; #@! TF.CreationDate,2022-05-11T11:06:39+08:00
; #@! TF.GenerationSoftware,Kicad,Pcbnew,(5.1.10)-1
; #@! TF.FileFunction,Plated,1,2,PTH
FMAT,2
INCH
T1C0.0118
T2C0.0276
T3C0.0394
T4C0.1831
%
G90
G05
T1
X2.2126Y-1.3189
X2.2126Y-1.3189
X2.2963Y-1.1801
X2.4016Y-1.2283
X2.5394Y-1.4016
X2.5394Y-1.4016
X2.5591Y-1.7402
X2.5591Y-1.7402
X2.5591Y-1.8031
X2.5886Y-1.1713
X2.5906Y-1.2835
X2.6181Y-1.2913
X2.6931Y-1.4093
X3.0118Y-1.563
X3.1142Y-1.563
X3.1614Y-1.563
X3.189Y-1.7913
X3.189Y-1.7913
X3.311Y-1.3465
X3.4252Y-1.3976
X3.4252Y-1.3976
T2
X2.9921Y-1.7244
X3.0709Y-1.7244
X3.1496Y-1.7244
X3.2283Y-1.7244
T3
X2.4016Y-1.5591
X2.4803Y-1.5591
X2.5591Y-1.5591
X2.6378Y-1.5591
X2.7165Y-1.5591
X2.7953Y-1.5591
X3.4252Y-1.5591
X3.5039Y-1.5591
X3.5827Y-1.5591
X3.6614Y-1.5591
X3.7402Y-1.5591
X3.8189Y-1.5591
T4
X2.7953Y-2.2283
X3.4252Y-2.2283
T0
M30
