G04 #@! TF.GenerationSoftware,KiCad,Pcbnew,(5.1.10)-1*
G04 #@! TF.CreationDate,2022-05-11T11:06:37+08:00*
G04 #@! TF.ProjectId,RUS-04_1x9,5255532d-3034-45f3-9178-392e6b696361,rev?*
G04 #@! TF.SameCoordinates,Original*
G04 #@! TF.FileFunction,Profile,NP*
%FSLAX45Y45*%
G04 Gerber Fmt 4.5, Leading zero omitted, Abs format (unit mm)*
G04 Created by KiCad (PCBNEW (5.1.10)-1) date 2022-05-11 11:06:37*
%MOMM*%
%LPD*%
G01*
G04 APERTURE LIST*
G04 #@! TA.AperFunction,Profile*
%ADD10C,0.150000*%
G04 #@! TD*
G04 APERTURE END LIST*
D10*
X5370000Y-12980000D02*
X5370000Y-2760000D01*
X5070000Y-12980000D02*
X5370000Y-12980000D01*
X5070000Y-2760000D02*
X5070000Y-12980000D01*
X5770000Y-8620000D02*
X6200000Y-8620000D01*
X5770000Y-6220000D02*
X10030000Y-6220000D01*
X6200000Y-8620000D02*
G75*
G02*
X6700000Y-9120000I0J-500000D01*
G01*
X9600000Y-8620000D02*
X10030000Y-8620000D01*
X8700000Y-9520000D02*
X7100000Y-9520000D01*
X9100000Y-9120000D02*
G75*
G02*
X9600000Y-8620000I500000J0D01*
G01*
X5370000Y-6620000D02*
G75*
G02*
X5770000Y-6220000I400000J0D01*
G01*
X5770000Y-8620000D02*
G75*
G02*
X5370000Y-8220000I0J400000D01*
G01*
X9100000Y-9120000D02*
G75*
G02*
X8700000Y-9520000I-400000J0D01*
G01*
X7100000Y-9520000D02*
G75*
G02*
X6700000Y-9120000I0J400000D01*
G01*
X5370000Y-6620000D02*
X5370000Y-8220000D01*
X5370000Y-6610000D02*
X5370000Y-8210000D01*
X5370000Y-6610000D02*
X5370000Y-8210000D01*
X5370000Y-3160000D02*
X5370000Y-4760000D01*
X7100000Y-6060000D02*
G75*
G02*
X6700000Y-5660000I0J400000D01*
G01*
X9100000Y-5660000D02*
G75*
G02*
X8700000Y-6060000I-400000J0D01*
G01*
X5770000Y-5160000D02*
G75*
G02*
X5370000Y-4760000I0J400000D01*
G01*
X5370000Y-3160000D02*
G75*
G02*
X5770000Y-2760000I400000J0D01*
G01*
X9100000Y-5660000D02*
G75*
G02*
X9600000Y-5160000I500000J0D01*
G01*
X5370000Y-2760000D02*
X5070000Y-2760000D01*
X8700000Y-6060000D02*
X7100000Y-6060000D01*
X9600000Y-5160000D02*
X10030000Y-5160000D01*
X6200000Y-5160000D02*
G75*
G02*
X6700000Y-5660000I0J-500000D01*
G01*
X5770000Y-2760000D02*
X10030000Y-2760000D01*
X5770000Y-5160000D02*
X6200000Y-5160000D01*
X10430000Y-3160000D02*
X10430000Y-4760000D01*
X10430000Y-6620000D02*
X10430000Y-8220000D01*
X10030000Y-6220000D02*
G75*
G02*
X10430000Y-6620000I0J-400000D01*
G01*
X10430000Y-8220000D02*
G75*
G02*
X10030000Y-8620000I-400000J0D01*
G01*
X10430000Y-4760000D02*
G75*
G02*
X10030000Y-5160000I-400000J0D01*
G01*
X10030000Y-2760000D02*
G75*
G02*
X10430000Y-3160000I0J-400000D01*
G01*
X5770000Y-12080000D02*
X6200000Y-12080000D01*
X10440000Y-3160000D02*
X10440000Y-4760000D01*
X12170000Y-6060000D02*
G75*
G02*
X11770000Y-5660000I0J400000D01*
G01*
X14170000Y-5660000D02*
G75*
G02*
X13770000Y-6060000I-400000J0D01*
G01*
X10840000Y-5160000D02*
G75*
G02*
X10440000Y-4760000I0J400000D01*
G01*
X10440000Y-3160000D02*
G75*
G02*
X10840000Y-2760000I400000J0D01*
G01*
X14170000Y-5660000D02*
G75*
G02*
X14670000Y-5160000I500000J0D01*
G01*
X13770000Y-6060000D02*
X12170000Y-6060000D01*
X14670000Y-5160000D02*
X15100000Y-5160000D01*
X11270000Y-5160000D02*
G75*
G02*
X11770000Y-5660000I0J-500000D01*
G01*
X10840000Y-8620000D02*
X11270000Y-8620000D01*
X10840000Y-2760000D02*
X15100000Y-2760000D01*
X10840000Y-5160000D02*
X11270000Y-5160000D01*
X15100000Y-6220000D02*
G75*
G02*
X15500000Y-6620000I0J-400000D01*
G01*
X15100000Y-6220000D02*
G75*
G02*
X15500000Y-6620000I0J-400000D01*
G01*
X15500000Y-8220000D02*
G75*
G02*
X15100000Y-8620000I-400000J0D01*
G01*
X15500000Y-4760000D02*
G75*
G02*
X15100000Y-5160000I-400000J0D01*
G01*
X15100000Y-2760000D02*
G75*
G02*
X15500000Y-3160000I0J-400000D01*
G01*
X10840000Y-6220000D02*
X15100000Y-6220000D01*
X11270000Y-8620000D02*
G75*
G02*
X11770000Y-9120000I0J-500000D01*
G01*
X14670000Y-8620000D02*
X15100000Y-8620000D01*
X13770000Y-9520000D02*
X12170000Y-9520000D01*
X14170000Y-9120000D02*
G75*
G02*
X14670000Y-8620000I500000J0D01*
G01*
X10440000Y-6620000D02*
G75*
G02*
X10840000Y-6220000I400000J0D01*
G01*
X10840000Y-8620000D02*
G75*
G02*
X10440000Y-8220000I0J400000D01*
G01*
X14170000Y-9120000D02*
G75*
G02*
X13770000Y-9520000I-400000J0D01*
G01*
X12170000Y-9520000D02*
G75*
G02*
X11770000Y-9120000I0J400000D01*
G01*
X10440000Y-6620000D02*
X10440000Y-8220000D01*
X5770000Y-9680000D02*
X10030000Y-9680000D01*
X6200000Y-12080000D02*
G75*
G02*
X6700000Y-12580000I0J-500000D01*
G01*
X9600000Y-12080000D02*
X10030000Y-12080000D01*
X8700000Y-12980000D02*
X7100000Y-12980000D01*
X9100000Y-12580000D02*
G75*
G02*
X9600000Y-12080000I500000J0D01*
G01*
X5370000Y-10080000D02*
G75*
G02*
X5770000Y-9680000I400000J0D01*
G01*
X5770000Y-12080000D02*
G75*
G02*
X5370000Y-11680000I0J400000D01*
G01*
X9100000Y-12580000D02*
G75*
G02*
X8700000Y-12980000I-400000J0D01*
G01*
X7100000Y-12980000D02*
G75*
G02*
X6700000Y-12580000I0J400000D01*
G01*
X5370000Y-10080000D02*
X5370000Y-11680000D01*
X5370000Y-10070000D02*
X5370000Y-11670000D01*
X5370000Y-10070000D02*
X5370000Y-11670000D01*
X10430000Y-10080000D02*
X10430000Y-11680000D01*
X10030000Y-9680000D02*
G75*
G02*
X10430000Y-10080000I0J-400000D01*
G01*
X10030000Y-9680000D02*
G75*
G02*
X10430000Y-10080000I0J-400000D01*
G01*
X10430000Y-11680000D02*
G75*
G02*
X10030000Y-12080000I-400000J0D01*
G01*
X10840000Y-12080000D02*
X11270000Y-12080000D01*
X15100000Y-9680000D02*
G75*
G02*
X15500000Y-10080000I0J-400000D01*
G01*
X15100000Y-9680000D02*
G75*
G02*
X15500000Y-10080000I0J-400000D01*
G01*
X15500000Y-11680000D02*
G75*
G02*
X15100000Y-12080000I-400000J0D01*
G01*
X10840000Y-9680000D02*
X15100000Y-9680000D01*
X11270000Y-12080000D02*
G75*
G02*
X11770000Y-12580000I0J-500000D01*
G01*
X14670000Y-12080000D02*
X15100000Y-12080000D01*
X13770000Y-12980000D02*
X12170000Y-12980000D01*
X14170000Y-12580000D02*
G75*
G02*
X14670000Y-12080000I500000J0D01*
G01*
X10440000Y-10080000D02*
G75*
G02*
X10840000Y-9680000I400000J0D01*
G01*
X10840000Y-12080000D02*
G75*
G02*
X10440000Y-11680000I0J400000D01*
G01*
X14170000Y-12580000D02*
G75*
G02*
X13770000Y-12980000I-400000J0D01*
G01*
X12170000Y-12980000D02*
G75*
G02*
X11770000Y-12580000I0J400000D01*
G01*
X10440000Y-10080000D02*
X10440000Y-11680000D01*
X15500000Y-6620000D02*
X15500000Y-8220000D01*
X15510000Y-6620000D02*
X15510000Y-8220000D01*
X17240000Y-9520000D02*
G75*
G02*
X16840000Y-9120000I0J400000D01*
G01*
X19240000Y-9120000D02*
G75*
G02*
X18840000Y-9520000I-400000J0D01*
G01*
X15910000Y-8620000D02*
G75*
G02*
X15510000Y-8220000I0J400000D01*
G01*
X15510000Y-6620000D02*
G75*
G02*
X15910000Y-6220000I400000J0D01*
G01*
X19240000Y-9120000D02*
G75*
G02*
X19740000Y-8620000I500000J0D01*
G01*
X19740000Y-8620000D02*
X20170000Y-8620000D01*
X16340000Y-8620000D02*
G75*
G02*
X16840000Y-9120000I0J-500000D01*
G01*
X15910000Y-6220000D02*
X20170000Y-6220000D01*
X15910000Y-8620000D02*
X16340000Y-8620000D01*
X20570000Y-6620000D02*
X20570000Y-8220000D01*
X20570000Y-8220000D02*
G75*
G02*
X20170000Y-8620000I-400000J0D01*
G01*
X20170000Y-6220000D02*
G75*
G02*
X20570000Y-6620000I0J-400000D01*
G01*
X20170000Y-6220000D02*
G75*
G02*
X20570000Y-6620000I0J-400000D01*
G01*
X20870000Y-12980000D02*
X20870000Y-2760000D01*
X20570000Y-2760000D02*
X20570000Y-12980000D01*
X17240000Y-6060000D02*
G75*
G02*
X16840000Y-5660000I0J400000D01*
G01*
X19240000Y-5660000D02*
G75*
G02*
X18840000Y-6060000I-400000J0D01*
G01*
X15910000Y-5160000D02*
G75*
G02*
X15510000Y-4760000I0J400000D01*
G01*
X15510000Y-3160000D02*
G75*
G02*
X15910000Y-2760000I400000J0D01*
G01*
X19240000Y-5660000D02*
G75*
G02*
X19740000Y-5160000I500000J0D01*
G01*
X18840000Y-6060000D02*
X17240000Y-6060000D01*
X19740000Y-5160000D02*
X20170000Y-5160000D01*
X16340000Y-5160000D02*
G75*
G02*
X16840000Y-5660000I0J-500000D01*
G01*
X15910000Y-12080000D02*
X16340000Y-12080000D01*
X15910000Y-9680000D02*
X20170000Y-9680000D01*
X16340000Y-12080000D02*
G75*
G02*
X16840000Y-12580000I0J-500000D01*
G01*
X19740000Y-12080000D02*
X20170000Y-12080000D01*
X18840000Y-12980000D02*
X17240000Y-12980000D01*
X19240000Y-12580000D02*
G75*
G02*
X19740000Y-12080000I500000J0D01*
G01*
X15510000Y-10080000D02*
G75*
G02*
X15910000Y-9680000I400000J0D01*
G01*
X15910000Y-12080000D02*
G75*
G02*
X15510000Y-11680000I0J400000D01*
G01*
X19240000Y-12580000D02*
G75*
G02*
X18840000Y-12980000I-400000J0D01*
G01*
X17240000Y-12980000D02*
G75*
G02*
X16840000Y-12580000I0J400000D01*
G01*
X20570000Y-10080000D02*
X20570000Y-11680000D01*
X20170000Y-9680000D02*
G75*
G02*
X20570000Y-10080000I0J-400000D01*
G01*
X20170000Y-9680000D02*
G75*
G02*
X20570000Y-10080000I0J-400000D01*
G01*
X20570000Y-11680000D02*
G75*
G02*
X20170000Y-12080000I-400000J0D01*
G01*
X15910000Y-2760000D02*
X20170000Y-2760000D01*
X15910000Y-5160000D02*
X16340000Y-5160000D01*
X20570000Y-3160000D02*
X20570000Y-4760000D01*
X20570000Y-4760000D02*
G75*
G02*
X20170000Y-5160000I-400000J0D01*
G01*
X20170000Y-2760000D02*
G75*
G02*
X20570000Y-3160000I0J-400000D01*
G01*
X20170000Y-2760000D02*
G75*
G02*
X20570000Y-3160000I0J-400000D01*
G01*
X18840000Y-9520000D02*
X17240000Y-9520000D01*
X20570000Y-12980000D02*
X20870000Y-12980000D01*
X20870000Y-2760000D02*
X20570000Y-2760000D01*
X15510000Y-10080000D02*
X15510000Y-11680000D01*
X15500000Y-10080000D02*
X15500000Y-11680000D01*
X15510000Y-3160000D02*
X15510000Y-4760000D01*
X15500000Y-3160000D02*
X15500000Y-4760000D01*
M02*
