G04 #@! TF.GenerationSoftware,KiCad,Pcbnew,(5.1.10)-1*
G04 #@! TF.CreationDate,2022-05-11T11:06:37+08:00*
G04 #@! TF.ProjectId,RUS-04_1x9,5255532d-3034-45f3-9178-392e6b696361,rev?*
G04 #@! TF.SameCoordinates,Original*
G04 #@! TF.FileFunction,Soldermask,Bot*
G04 #@! TF.FilePolarity,Negative*
%FSLAX45Y45*%
G04 Gerber Fmt 4.5, Leading zero omitted, Abs format (unit mm)*
G04 Created by KiCad (PCBNEW (5.1.10)-1) date 2022-05-11 11:06:37*
%MOMM*%
%LPD*%
G01*
G04 APERTURE LIST*
%ADD10C,1.800000*%
%ADD11C,1.400000*%
%ADD12C,5.200000*%
%ADD13C,0.100000*%
G04 APERTURE END LIST*
D10*
X6900000Y-3960000D03*
X6700000Y-3960000D03*
X6100000Y-3960000D03*
X6500000Y-3960000D03*
X6300000Y-3960000D03*
X7100000Y-3960000D03*
X9500000Y-3960000D03*
X9300000Y-3960000D03*
X8700000Y-3960000D03*
X9100000Y-3960000D03*
X8900000Y-3960000D03*
X9700000Y-3960000D03*
D11*
X8200000Y-4380000D03*
X8000000Y-4380000D03*
G36*
G01*
X7530000Y-4440000D02*
X7530000Y-4320000D01*
G75*
G02*
X7540000Y-4310000I10000J0D01*
G01*
X7660000Y-4310000D01*
G75*
G02*
X7670000Y-4320000I0J-10000D01*
G01*
X7670000Y-4440000D01*
G75*
G02*
X7660000Y-4450000I-10000J0D01*
G01*
X7540000Y-4450000D01*
G75*
G02*
X7530000Y-4440000I0J10000D01*
G01*
G37*
X7800000Y-4380000D03*
D10*
X5700000Y-3110000D03*
D12*
X8700000Y-5660000D03*
X7100000Y-5660000D03*
D10*
X5700000Y-4810000D03*
X10100000Y-3110000D03*
X10100000Y-4810000D03*
D13*
G36*
X7012227Y-3942756D02*
G01*
X7012278Y-3942932D01*
X7010633Y-3951198D01*
X7010633Y-3968802D01*
X7012278Y-3977068D01*
X7012213Y-3977258D01*
X7012017Y-3977297D01*
X7011890Y-3977165D01*
X7011363Y-3975427D01*
X7010226Y-3973300D01*
X7008697Y-3971437D01*
X7006833Y-3969907D01*
X7004707Y-3968770D01*
X7002399Y-3968070D01*
X7000000Y-3967834D01*
X6997601Y-3968070D01*
X6995293Y-3968770D01*
X6993167Y-3969907D01*
X6991303Y-3971436D01*
X6989774Y-3973300D01*
X6988637Y-3975427D01*
X6988110Y-3977165D01*
X6987964Y-3977302D01*
X6987772Y-3977244D01*
X6987722Y-3977068D01*
X6989367Y-3968802D01*
X6989367Y-3951198D01*
X6987722Y-3942932D01*
X6987787Y-3942742D01*
X6987983Y-3942703D01*
X6988110Y-3942835D01*
X6988637Y-3944573D01*
X6989774Y-3946700D01*
X6991303Y-3948563D01*
X6993167Y-3950093D01*
X6995293Y-3951229D01*
X6997601Y-3951929D01*
X7000000Y-3952166D01*
X7002399Y-3951929D01*
X7004707Y-3951229D01*
X7006833Y-3950093D01*
X7008697Y-3948563D01*
X7010226Y-3946700D01*
X7011363Y-3944573D01*
X7011890Y-3942835D01*
X7012036Y-3942698D01*
X7012227Y-3942756D01*
G37*
G36*
X6812227Y-3942756D02*
G01*
X6812278Y-3942932D01*
X6810633Y-3951198D01*
X6810633Y-3968802D01*
X6812278Y-3977068D01*
X6812213Y-3977258D01*
X6812017Y-3977297D01*
X6811890Y-3977165D01*
X6811363Y-3975427D01*
X6810226Y-3973300D01*
X6808697Y-3971437D01*
X6806833Y-3969907D01*
X6804707Y-3968770D01*
X6802399Y-3968070D01*
X6800000Y-3967834D01*
X6797601Y-3968070D01*
X6795293Y-3968770D01*
X6793167Y-3969907D01*
X6791303Y-3971436D01*
X6789774Y-3973300D01*
X6788637Y-3975427D01*
X6788110Y-3977165D01*
X6787964Y-3977302D01*
X6787772Y-3977244D01*
X6787722Y-3977068D01*
X6789367Y-3968802D01*
X6789367Y-3951198D01*
X6787722Y-3942932D01*
X6787787Y-3942742D01*
X6787983Y-3942703D01*
X6788110Y-3942835D01*
X6788637Y-3944573D01*
X6789774Y-3946700D01*
X6791303Y-3948563D01*
X6793167Y-3950093D01*
X6795293Y-3951229D01*
X6797601Y-3951929D01*
X6800000Y-3952166D01*
X6802399Y-3951929D01*
X6804707Y-3951229D01*
X6806833Y-3950093D01*
X6808697Y-3948563D01*
X6810226Y-3946700D01*
X6811363Y-3944573D01*
X6811890Y-3942835D01*
X6812036Y-3942698D01*
X6812227Y-3942756D01*
G37*
G36*
X6612227Y-3942756D02*
G01*
X6612278Y-3942932D01*
X6610633Y-3951198D01*
X6610633Y-3968802D01*
X6612278Y-3977068D01*
X6612213Y-3977258D01*
X6612017Y-3977297D01*
X6611890Y-3977165D01*
X6611363Y-3975427D01*
X6610226Y-3973300D01*
X6608697Y-3971437D01*
X6606833Y-3969907D01*
X6604707Y-3968770D01*
X6602399Y-3968070D01*
X6600000Y-3967834D01*
X6597601Y-3968070D01*
X6595293Y-3968770D01*
X6593167Y-3969907D01*
X6591303Y-3971436D01*
X6589774Y-3973300D01*
X6588637Y-3975427D01*
X6588110Y-3977165D01*
X6587964Y-3977302D01*
X6587772Y-3977244D01*
X6587722Y-3977068D01*
X6589367Y-3968802D01*
X6589367Y-3951198D01*
X6587722Y-3942932D01*
X6587787Y-3942742D01*
X6587983Y-3942703D01*
X6588110Y-3942835D01*
X6588637Y-3944573D01*
X6589774Y-3946700D01*
X6591303Y-3948563D01*
X6593167Y-3950093D01*
X6595293Y-3951229D01*
X6597601Y-3951929D01*
X6600000Y-3952166D01*
X6602399Y-3951929D01*
X6604707Y-3951229D01*
X6606833Y-3950093D01*
X6608697Y-3948563D01*
X6610226Y-3946700D01*
X6611363Y-3944573D01*
X6611890Y-3942835D01*
X6612036Y-3942698D01*
X6612227Y-3942756D01*
G37*
G36*
X9612228Y-3942756D02*
G01*
X9612278Y-3942932D01*
X9610633Y-3951198D01*
X9610633Y-3968802D01*
X9612278Y-3977068D01*
X9612213Y-3977258D01*
X9612017Y-3977297D01*
X9611890Y-3977165D01*
X9611363Y-3975427D01*
X9610226Y-3973300D01*
X9608697Y-3971437D01*
X9606833Y-3969907D01*
X9604707Y-3968770D01*
X9602399Y-3968070D01*
X9600000Y-3967834D01*
X9597601Y-3968070D01*
X9595293Y-3968770D01*
X9593167Y-3969907D01*
X9591303Y-3971436D01*
X9589774Y-3973300D01*
X9588637Y-3975427D01*
X9588110Y-3977165D01*
X9587964Y-3977302D01*
X9587773Y-3977244D01*
X9587722Y-3977068D01*
X9589367Y-3968802D01*
X9589367Y-3951198D01*
X9587722Y-3942932D01*
X9587787Y-3942742D01*
X9587983Y-3942703D01*
X9588110Y-3942835D01*
X9588637Y-3944573D01*
X9589774Y-3946700D01*
X9591303Y-3948563D01*
X9593167Y-3950093D01*
X9595293Y-3951229D01*
X9597601Y-3951929D01*
X9600000Y-3952166D01*
X9602399Y-3951929D01*
X9604707Y-3951229D01*
X9606833Y-3950093D01*
X9608697Y-3948563D01*
X9610226Y-3946700D01*
X9611363Y-3944573D01*
X9611890Y-3942835D01*
X9612036Y-3942698D01*
X9612228Y-3942756D01*
G37*
G36*
X9212228Y-3942756D02*
G01*
X9212278Y-3942932D01*
X9210633Y-3951198D01*
X9210633Y-3968802D01*
X9212278Y-3977068D01*
X9212213Y-3977258D01*
X9212017Y-3977297D01*
X9211890Y-3977165D01*
X9211363Y-3975427D01*
X9210226Y-3973300D01*
X9208697Y-3971437D01*
X9206833Y-3969907D01*
X9204707Y-3968770D01*
X9202399Y-3968070D01*
X9200000Y-3967834D01*
X9197601Y-3968070D01*
X9195293Y-3968770D01*
X9193167Y-3969907D01*
X9191303Y-3971436D01*
X9189774Y-3973300D01*
X9188637Y-3975427D01*
X9188110Y-3977165D01*
X9187964Y-3977302D01*
X9187773Y-3977244D01*
X9187722Y-3977068D01*
X9189367Y-3968802D01*
X9189367Y-3951198D01*
X9187722Y-3942932D01*
X9187787Y-3942742D01*
X9187983Y-3942703D01*
X9188110Y-3942835D01*
X9188637Y-3944573D01*
X9189774Y-3946700D01*
X9191303Y-3948563D01*
X9193167Y-3950093D01*
X9195293Y-3951229D01*
X9197601Y-3951929D01*
X9200000Y-3952166D01*
X9202399Y-3951929D01*
X9204707Y-3951229D01*
X9206833Y-3950093D01*
X9208697Y-3948563D01*
X9210226Y-3946700D01*
X9211363Y-3944573D01*
X9211890Y-3942835D01*
X9212036Y-3942698D01*
X9212228Y-3942756D01*
G37*
G36*
X6212227Y-3942756D02*
G01*
X6212278Y-3942932D01*
X6210633Y-3951198D01*
X6210633Y-3968802D01*
X6212278Y-3977068D01*
X6212213Y-3977258D01*
X6212017Y-3977297D01*
X6211890Y-3977165D01*
X6211363Y-3975427D01*
X6210226Y-3973300D01*
X6208697Y-3971437D01*
X6206833Y-3969907D01*
X6204707Y-3968770D01*
X6202399Y-3968070D01*
X6200000Y-3967834D01*
X6197601Y-3968070D01*
X6195293Y-3968770D01*
X6193167Y-3969907D01*
X6191303Y-3971436D01*
X6189774Y-3973300D01*
X6188637Y-3975427D01*
X6188110Y-3977165D01*
X6187964Y-3977302D01*
X6187772Y-3977244D01*
X6187722Y-3977068D01*
X6189367Y-3968802D01*
X6189367Y-3951198D01*
X6187722Y-3942932D01*
X6187787Y-3942742D01*
X6187983Y-3942703D01*
X6188110Y-3942835D01*
X6188637Y-3944573D01*
X6189774Y-3946700D01*
X6191303Y-3948563D01*
X6193167Y-3950093D01*
X6195293Y-3951229D01*
X6197601Y-3951929D01*
X6200000Y-3952166D01*
X6202399Y-3951929D01*
X6204707Y-3951229D01*
X6206833Y-3950093D01*
X6208697Y-3948563D01*
X6210226Y-3946700D01*
X6211363Y-3944573D01*
X6211890Y-3942835D01*
X6212036Y-3942698D01*
X6212227Y-3942756D01*
G37*
G36*
X6412227Y-3942756D02*
G01*
X6412278Y-3942932D01*
X6410633Y-3951198D01*
X6410633Y-3968802D01*
X6412278Y-3977068D01*
X6412213Y-3977258D01*
X6412017Y-3977297D01*
X6411890Y-3977165D01*
X6411363Y-3975427D01*
X6410226Y-3973300D01*
X6408697Y-3971437D01*
X6406833Y-3969907D01*
X6404707Y-3968770D01*
X6402399Y-3968070D01*
X6400000Y-3967834D01*
X6397601Y-3968070D01*
X6395293Y-3968770D01*
X6393167Y-3969907D01*
X6391303Y-3971436D01*
X6389774Y-3973300D01*
X6388637Y-3975427D01*
X6388110Y-3977165D01*
X6387964Y-3977302D01*
X6387772Y-3977244D01*
X6387722Y-3977068D01*
X6389367Y-3968802D01*
X6389367Y-3951198D01*
X6387722Y-3942932D01*
X6387787Y-3942742D01*
X6387983Y-3942703D01*
X6388110Y-3942835D01*
X6388637Y-3944573D01*
X6389774Y-3946700D01*
X6391303Y-3948563D01*
X6393167Y-3950093D01*
X6395293Y-3951229D01*
X6397601Y-3951929D01*
X6400000Y-3952166D01*
X6402399Y-3951929D01*
X6404707Y-3951229D01*
X6406833Y-3950093D01*
X6408697Y-3948563D01*
X6410226Y-3946700D01*
X6411363Y-3944573D01*
X6411890Y-3942835D01*
X6412036Y-3942698D01*
X6412227Y-3942756D01*
G37*
G36*
X9012228Y-3942756D02*
G01*
X9012278Y-3942932D01*
X9010633Y-3951198D01*
X9010633Y-3968802D01*
X9012278Y-3977068D01*
X9012213Y-3977258D01*
X9012017Y-3977297D01*
X9011890Y-3977165D01*
X9011363Y-3975427D01*
X9010226Y-3973300D01*
X9008697Y-3971437D01*
X9006833Y-3969907D01*
X9004707Y-3968770D01*
X9002399Y-3968070D01*
X9000000Y-3967834D01*
X8997601Y-3968070D01*
X8995293Y-3968770D01*
X8993167Y-3969907D01*
X8991303Y-3971436D01*
X8989774Y-3973300D01*
X8988637Y-3975427D01*
X8988110Y-3977165D01*
X8987964Y-3977302D01*
X8987773Y-3977244D01*
X8987722Y-3977068D01*
X8989367Y-3968802D01*
X8989367Y-3951198D01*
X8987722Y-3942932D01*
X8987787Y-3942742D01*
X8987983Y-3942703D01*
X8988110Y-3942835D01*
X8988637Y-3944573D01*
X8989774Y-3946700D01*
X8991303Y-3948563D01*
X8993167Y-3950093D01*
X8995293Y-3951229D01*
X8997601Y-3951929D01*
X9000000Y-3952166D01*
X9002399Y-3951929D01*
X9004707Y-3951229D01*
X9006833Y-3950093D01*
X9008697Y-3948563D01*
X9010226Y-3946700D01*
X9011363Y-3944573D01*
X9011890Y-3942835D01*
X9012036Y-3942698D01*
X9012228Y-3942756D01*
G37*
G36*
X9412228Y-3942756D02*
G01*
X9412278Y-3942932D01*
X9410633Y-3951198D01*
X9410633Y-3968802D01*
X9412278Y-3977068D01*
X9412213Y-3977258D01*
X9412017Y-3977297D01*
X9411890Y-3977165D01*
X9411363Y-3975427D01*
X9410226Y-3973300D01*
X9408697Y-3971437D01*
X9406833Y-3969907D01*
X9404707Y-3968770D01*
X9402399Y-3968070D01*
X9400000Y-3967834D01*
X9397601Y-3968070D01*
X9395293Y-3968770D01*
X9393167Y-3969907D01*
X9391303Y-3971436D01*
X9389774Y-3973300D01*
X9388637Y-3975427D01*
X9388110Y-3977165D01*
X9387964Y-3977302D01*
X9387773Y-3977244D01*
X9387722Y-3977068D01*
X9389367Y-3968802D01*
X9389367Y-3951198D01*
X9387722Y-3942932D01*
X9387787Y-3942742D01*
X9387983Y-3942703D01*
X9388110Y-3942835D01*
X9388637Y-3944573D01*
X9389774Y-3946700D01*
X9391303Y-3948563D01*
X9393167Y-3950093D01*
X9395293Y-3951229D01*
X9397601Y-3951929D01*
X9400000Y-3952166D01*
X9402399Y-3951929D01*
X9404707Y-3951229D01*
X9406833Y-3950093D01*
X9408697Y-3948563D01*
X9410226Y-3946700D01*
X9411363Y-3944573D01*
X9411890Y-3942835D01*
X9412036Y-3942698D01*
X9412228Y-3942756D01*
G37*
G36*
X8812228Y-3942756D02*
G01*
X8812278Y-3942932D01*
X8810633Y-3951198D01*
X8810633Y-3968802D01*
X8812278Y-3977068D01*
X8812213Y-3977258D01*
X8812017Y-3977297D01*
X8811890Y-3977165D01*
X8811363Y-3975427D01*
X8810226Y-3973300D01*
X8808697Y-3971437D01*
X8806833Y-3969907D01*
X8804707Y-3968770D01*
X8802399Y-3968070D01*
X8800000Y-3967834D01*
X8797601Y-3968070D01*
X8795293Y-3968770D01*
X8793167Y-3969907D01*
X8791303Y-3971436D01*
X8789774Y-3973300D01*
X8788637Y-3975427D01*
X8788110Y-3977165D01*
X8787964Y-3977302D01*
X8787773Y-3977244D01*
X8787722Y-3977068D01*
X8789367Y-3968802D01*
X8789367Y-3951198D01*
X8787722Y-3942932D01*
X8787787Y-3942742D01*
X8787983Y-3942703D01*
X8788110Y-3942835D01*
X8788637Y-3944573D01*
X8789774Y-3946700D01*
X8791303Y-3948563D01*
X8793167Y-3950093D01*
X8795293Y-3951229D01*
X8797601Y-3951929D01*
X8800000Y-3952166D01*
X8802399Y-3951929D01*
X8804707Y-3951229D01*
X8806833Y-3950093D01*
X8808697Y-3948563D01*
X8810226Y-3946700D01*
X8811363Y-3944573D01*
X8811890Y-3942835D01*
X8812036Y-3942698D01*
X8812228Y-3942756D01*
G37*
M02*
