G04 #@! TF.GenerationSoftware,KiCad,Pcbnew,(5.1.10)-1*
G04 #@! TF.CreationDate,2022-05-11T11:06:37+08:00*
G04 #@! TF.ProjectId,RUS-04_1x9,5255532d-3034-45f3-9178-392e6b696361,rev?*
G04 #@! TF.SameCoordinates,Original*
G04 #@! TF.FileFunction,Soldermask,Top*
G04 #@! TF.FilePolarity,Negative*
%FSLAX45Y45*%
G04 Gerber Fmt 4.5, Leading zero omitted, Abs format (unit mm)*
G04 Created by KiCad (PCBNEW (5.1.10)-1) date 2022-05-11 11:06:37*
%MOMM*%
%LPD*%
G01*
G04 APERTURE LIST*
%ADD10C,1.800000*%
%ADD11C,1.400000*%
%ADD12C,5.200000*%
%ADD13C,0.100000*%
G04 APERTURE END LIST*
G36*
G01*
X9755000Y-4500000D02*
X9845000Y-4500000D01*
G75*
G02*
X9855000Y-4510000I0J-10000D01*
G01*
X9855000Y-4560000D01*
G75*
G02*
X9845000Y-4570000I-10000J0D01*
G01*
X9755000Y-4570000D01*
G75*
G02*
X9745000Y-4560000I0J10000D01*
G01*
X9745000Y-4510000D01*
G75*
G02*
X9755000Y-4500000I10000J0D01*
G01*
G37*
G36*
G01*
X9755000Y-4350000D02*
X9845000Y-4350000D01*
G75*
G02*
X9855000Y-4360000I0J-10000D01*
G01*
X9855000Y-4410000D01*
G75*
G02*
X9845000Y-4420000I-10000J0D01*
G01*
X9755000Y-4420000D01*
G75*
G02*
X9745000Y-4410000I0J10000D01*
G01*
X9745000Y-4360000D01*
G75*
G02*
X9755000Y-4350000I10000J0D01*
G01*
G37*
G36*
G01*
X8840000Y-4265000D02*
X8840000Y-4175000D01*
G75*
G02*
X8850000Y-4165000I10000J0D01*
G01*
X8900000Y-4165000D01*
G75*
G02*
X8910000Y-4175000I0J-10000D01*
G01*
X8910000Y-4265000D01*
G75*
G02*
X8900000Y-4275000I-10000J0D01*
G01*
X8850000Y-4275000D01*
G75*
G02*
X8840000Y-4265000I0J10000D01*
G01*
G37*
G36*
G01*
X8690000Y-4265000D02*
X8690000Y-4175000D01*
G75*
G02*
X8700000Y-4165000I10000J0D01*
G01*
X8750000Y-4165000D01*
G75*
G02*
X8760000Y-4175000I0J-10000D01*
G01*
X8760000Y-4265000D01*
G75*
G02*
X8750000Y-4275000I-10000J0D01*
G01*
X8700000Y-4275000D01*
G75*
G02*
X8690000Y-4265000I0J10000D01*
G01*
G37*
D10*
X6900000Y-3960000D03*
X6700000Y-3960000D03*
X6100000Y-3960000D03*
X6500000Y-3960000D03*
X6300000Y-3960000D03*
X7100000Y-3960000D03*
X9500000Y-3960000D03*
X9300000Y-3960000D03*
X8700000Y-3960000D03*
X9100000Y-3960000D03*
X8900000Y-3960000D03*
X9700000Y-3960000D03*
G36*
G01*
X9070000Y-4715000D02*
X9070000Y-4835000D01*
G75*
G02*
X9060000Y-4845000I-10000J0D01*
G01*
X8970000Y-4845000D01*
G75*
G02*
X8960000Y-4835000I0J10000D01*
G01*
X8960000Y-4715000D01*
G75*
G02*
X8970000Y-4705000I10000J0D01*
G01*
X9060000Y-4705000D01*
G75*
G02*
X9070000Y-4715000I0J-10000D01*
G01*
G37*
G36*
G01*
X8740000Y-4715000D02*
X8740000Y-4835000D01*
G75*
G02*
X8730000Y-4845000I-10000J0D01*
G01*
X8640000Y-4845000D01*
G75*
G02*
X8630000Y-4835000I0J10000D01*
G01*
X8630000Y-4715000D01*
G75*
G02*
X8640000Y-4705000I10000J0D01*
G01*
X8730000Y-4705000D01*
G75*
G02*
X8740000Y-4715000I0J-10000D01*
G01*
G37*
G36*
G01*
X6625000Y-2872500D02*
X6625000Y-2947500D01*
G75*
G02*
X6615000Y-2957500I-10000J0D01*
G01*
X6535000Y-2957500D01*
G75*
G02*
X6525000Y-2947500I0J10000D01*
G01*
X6525000Y-2872500D01*
G75*
G02*
X6535000Y-2862500I10000J0D01*
G01*
X6615000Y-2862500D01*
G75*
G02*
X6625000Y-2872500I0J-10000D01*
G01*
G37*
G36*
G01*
X6775000Y-2872500D02*
X6775000Y-2947500D01*
G75*
G02*
X6765000Y-2957500I-10000J0D01*
G01*
X6685000Y-2957500D01*
G75*
G02*
X6675000Y-2947500I0J10000D01*
G01*
X6675000Y-2872500D01*
G75*
G02*
X6685000Y-2862500I10000J0D01*
G01*
X6765000Y-2862500D01*
G75*
G02*
X6775000Y-2872500I0J-10000D01*
G01*
G37*
G36*
G01*
X5925000Y-3682500D02*
X5925000Y-3757500D01*
G75*
G02*
X5915000Y-3767500I-10000J0D01*
G01*
X5835000Y-3767500D01*
G75*
G02*
X5825000Y-3757500I0J10000D01*
G01*
X5825000Y-3682500D01*
G75*
G02*
X5835000Y-3672500I10000J0D01*
G01*
X5915000Y-3672500D01*
G75*
G02*
X5925000Y-3682500I0J-10000D01*
G01*
G37*
G36*
G01*
X6075000Y-3682500D02*
X6075000Y-3757500D01*
G75*
G02*
X6065000Y-3767500I-10000J0D01*
G01*
X5985000Y-3767500D01*
G75*
G02*
X5975000Y-3757500I0J10000D01*
G01*
X5975000Y-3682500D01*
G75*
G02*
X5985000Y-3672500I10000J0D01*
G01*
X6065000Y-3672500D01*
G75*
G02*
X6075000Y-3682500I0J-10000D01*
G01*
G37*
G36*
G01*
X6675000Y-4232500D02*
X6675000Y-4307500D01*
G75*
G02*
X6665000Y-4317500I-10000J0D01*
G01*
X6585000Y-4317500D01*
G75*
G02*
X6575000Y-4307500I0J10000D01*
G01*
X6575000Y-4232500D01*
G75*
G02*
X6585000Y-4222500I10000J0D01*
G01*
X6665000Y-4222500D01*
G75*
G02*
X6675000Y-4232500I0J-10000D01*
G01*
G37*
G36*
G01*
X6825000Y-4232500D02*
X6825000Y-4307500D01*
G75*
G02*
X6815000Y-4317500I-10000J0D01*
G01*
X6735000Y-4317500D01*
G75*
G02*
X6725000Y-4307500I0J10000D01*
G01*
X6725000Y-4232500D01*
G75*
G02*
X6735000Y-4222500I10000J0D01*
G01*
X6815000Y-4222500D01*
G75*
G02*
X6825000Y-4232500I0J-10000D01*
G01*
G37*
D11*
X8200000Y-4380000D03*
X8000000Y-4380000D03*
G36*
G01*
X7530000Y-4440000D02*
X7530000Y-4320000D01*
G75*
G02*
X7540000Y-4310000I10000J0D01*
G01*
X7660000Y-4310000D01*
G75*
G02*
X7670000Y-4320000I0J-10000D01*
G01*
X7670000Y-4440000D01*
G75*
G02*
X7660000Y-4450000I-10000J0D01*
G01*
X7540000Y-4450000D01*
G75*
G02*
X7530000Y-4440000I0J10000D01*
G01*
G37*
X7800000Y-4380000D03*
G36*
G01*
X6810000Y-4375000D02*
X6810000Y-4465000D01*
G75*
G02*
X6800000Y-4475000I-10000J0D01*
G01*
X6750000Y-4475000D01*
G75*
G02*
X6740000Y-4465000I0J10000D01*
G01*
X6740000Y-4375000D01*
G75*
G02*
X6750000Y-4365000I10000J0D01*
G01*
X6800000Y-4365000D01*
G75*
G02*
X6810000Y-4375000I0J-10000D01*
G01*
G37*
G36*
G01*
X6660000Y-4375000D02*
X6660000Y-4465000D01*
G75*
G02*
X6650000Y-4475000I-10000J0D01*
G01*
X6600000Y-4475000D01*
G75*
G02*
X6590000Y-4465000I0J10000D01*
G01*
X6590000Y-4375000D01*
G75*
G02*
X6600000Y-4365000I10000J0D01*
G01*
X6650000Y-4365000D01*
G75*
G02*
X6660000Y-4375000I0J-10000D01*
G01*
G37*
G36*
G01*
X6325000Y-4307500D02*
X6325000Y-4232500D01*
G75*
G02*
X6335000Y-4222500I10000J0D01*
G01*
X6415000Y-4222500D01*
G75*
G02*
X6425000Y-4232500I0J-10000D01*
G01*
X6425000Y-4307500D01*
G75*
G02*
X6415000Y-4317500I-10000J0D01*
G01*
X6335000Y-4317500D01*
G75*
G02*
X6325000Y-4307500I0J10000D01*
G01*
G37*
G36*
G01*
X6175000Y-4307500D02*
X6175000Y-4232500D01*
G75*
G02*
X6185000Y-4222500I10000J0D01*
G01*
X6265000Y-4222500D01*
G75*
G02*
X6275000Y-4232500I0J-10000D01*
G01*
X6275000Y-4307500D01*
G75*
G02*
X6265000Y-4317500I-10000J0D01*
G01*
X6185000Y-4317500D01*
G75*
G02*
X6175000Y-4307500I0J10000D01*
G01*
G37*
G36*
G01*
X9537500Y-4435000D02*
X9462500Y-4435000D01*
G75*
G02*
X9452500Y-4425000I0J10000D01*
G01*
X9452500Y-4345000D01*
G75*
G02*
X9462500Y-4335000I10000J0D01*
G01*
X9537500Y-4335000D01*
G75*
G02*
X9547500Y-4345000I0J-10000D01*
G01*
X9547500Y-4425000D01*
G75*
G02*
X9537500Y-4435000I-10000J0D01*
G01*
G37*
G36*
G01*
X9537500Y-4585000D02*
X9462500Y-4585000D01*
G75*
G02*
X9452500Y-4575000I0J10000D01*
G01*
X9452500Y-4495000D01*
G75*
G02*
X9462500Y-4485000I10000J0D01*
G01*
X9537500Y-4485000D01*
G75*
G02*
X9547500Y-4495000I0J-10000D01*
G01*
X9547500Y-4575000D01*
G75*
G02*
X9537500Y-4585000I-10000J0D01*
G01*
G37*
G36*
G01*
X6235500Y-3205000D02*
X6175500Y-3205000D01*
G75*
G02*
X6165500Y-3195000I0J10000D01*
G01*
X6165500Y-3045000D01*
G75*
G02*
X6175500Y-3035000I10000J0D01*
G01*
X6235500Y-3035000D01*
G75*
G02*
X6245500Y-3045000I0J-10000D01*
G01*
X6245500Y-3195000D01*
G75*
G02*
X6235500Y-3205000I-10000J0D01*
G01*
G37*
G36*
G01*
X6362500Y-3205000D02*
X6302500Y-3205000D01*
G75*
G02*
X6292500Y-3195000I0J10000D01*
G01*
X6292500Y-3045000D01*
G75*
G02*
X6302500Y-3035000I10000J0D01*
G01*
X6362500Y-3035000D01*
G75*
G02*
X6372500Y-3045000I0J-10000D01*
G01*
X6372500Y-3195000D01*
G75*
G02*
X6362500Y-3205000I-10000J0D01*
G01*
G37*
G36*
G01*
X6489500Y-3205000D02*
X6429500Y-3205000D01*
G75*
G02*
X6419500Y-3195000I0J10000D01*
G01*
X6419500Y-3045000D01*
G75*
G02*
X6429500Y-3035000I10000J0D01*
G01*
X6489500Y-3035000D01*
G75*
G02*
X6499500Y-3045000I0J-10000D01*
G01*
X6499500Y-3195000D01*
G75*
G02*
X6489500Y-3205000I-10000J0D01*
G01*
G37*
G36*
G01*
X6616500Y-3205000D02*
X6556500Y-3205000D01*
G75*
G02*
X6546500Y-3195000I0J10000D01*
G01*
X6546500Y-3045000D01*
G75*
G02*
X6556500Y-3035000I10000J0D01*
G01*
X6616500Y-3035000D01*
G75*
G02*
X6626500Y-3045000I0J-10000D01*
G01*
X6626500Y-3195000D01*
G75*
G02*
X6616500Y-3205000I-10000J0D01*
G01*
G37*
G36*
G01*
X6743500Y-3205000D02*
X6683500Y-3205000D01*
G75*
G02*
X6673500Y-3195000I0J10000D01*
G01*
X6673500Y-3045000D01*
G75*
G02*
X6683500Y-3035000I10000J0D01*
G01*
X6743500Y-3035000D01*
G75*
G02*
X6753500Y-3045000I0J-10000D01*
G01*
X6753500Y-3195000D01*
G75*
G02*
X6743500Y-3205000I-10000J0D01*
G01*
G37*
G36*
G01*
X6870500Y-3205000D02*
X6810500Y-3205000D01*
G75*
G02*
X6800500Y-3195000I0J10000D01*
G01*
X6800500Y-3045000D01*
G75*
G02*
X6810500Y-3035000I10000J0D01*
G01*
X6870500Y-3035000D01*
G75*
G02*
X6880500Y-3045000I0J-10000D01*
G01*
X6880500Y-3195000D01*
G75*
G02*
X6870500Y-3205000I-10000J0D01*
G01*
G37*
G36*
G01*
X6997500Y-3205000D02*
X6937500Y-3205000D01*
G75*
G02*
X6927500Y-3195000I0J10000D01*
G01*
X6927500Y-3045000D01*
G75*
G02*
X6937500Y-3035000I10000J0D01*
G01*
X6997500Y-3035000D01*
G75*
G02*
X7007500Y-3045000I0J-10000D01*
G01*
X7007500Y-3195000D01*
G75*
G02*
X6997500Y-3205000I-10000J0D01*
G01*
G37*
G36*
G01*
X7124500Y-3205000D02*
X7064500Y-3205000D01*
G75*
G02*
X7054500Y-3195000I0J10000D01*
G01*
X7054500Y-3045000D01*
G75*
G02*
X7064500Y-3035000I10000J0D01*
G01*
X7124500Y-3035000D01*
G75*
G02*
X7134500Y-3045000I0J-10000D01*
G01*
X7134500Y-3195000D01*
G75*
G02*
X7124500Y-3205000I-10000J0D01*
G01*
G37*
G36*
G01*
X7124500Y-3805000D02*
X7064500Y-3805000D01*
G75*
G02*
X7054500Y-3795000I0J10000D01*
G01*
X7054500Y-3645000D01*
G75*
G02*
X7064500Y-3635000I10000J0D01*
G01*
X7124500Y-3635000D01*
G75*
G02*
X7134500Y-3645000I0J-10000D01*
G01*
X7134500Y-3795000D01*
G75*
G02*
X7124500Y-3805000I-10000J0D01*
G01*
G37*
G36*
G01*
X6997500Y-3805000D02*
X6937500Y-3805000D01*
G75*
G02*
X6927500Y-3795000I0J10000D01*
G01*
X6927500Y-3645000D01*
G75*
G02*
X6937500Y-3635000I10000J0D01*
G01*
X6997500Y-3635000D01*
G75*
G02*
X7007500Y-3645000I0J-10000D01*
G01*
X7007500Y-3795000D01*
G75*
G02*
X6997500Y-3805000I-10000J0D01*
G01*
G37*
G36*
G01*
X6870500Y-3805000D02*
X6810500Y-3805000D01*
G75*
G02*
X6800500Y-3795000I0J10000D01*
G01*
X6800500Y-3645000D01*
G75*
G02*
X6810500Y-3635000I10000J0D01*
G01*
X6870500Y-3635000D01*
G75*
G02*
X6880500Y-3645000I0J-10000D01*
G01*
X6880500Y-3795000D01*
G75*
G02*
X6870500Y-3805000I-10000J0D01*
G01*
G37*
G36*
G01*
X6743500Y-3805000D02*
X6683500Y-3805000D01*
G75*
G02*
X6673500Y-3795000I0J10000D01*
G01*
X6673500Y-3645000D01*
G75*
G02*
X6683500Y-3635000I10000J0D01*
G01*
X6743500Y-3635000D01*
G75*
G02*
X6753500Y-3645000I0J-10000D01*
G01*
X6753500Y-3795000D01*
G75*
G02*
X6743500Y-3805000I-10000J0D01*
G01*
G37*
G36*
G01*
X6616500Y-3805000D02*
X6556500Y-3805000D01*
G75*
G02*
X6546500Y-3795000I0J10000D01*
G01*
X6546500Y-3645000D01*
G75*
G02*
X6556500Y-3635000I10000J0D01*
G01*
X6616500Y-3635000D01*
G75*
G02*
X6626500Y-3645000I0J-10000D01*
G01*
X6626500Y-3795000D01*
G75*
G02*
X6616500Y-3805000I-10000J0D01*
G01*
G37*
G36*
G01*
X6489500Y-3805000D02*
X6429500Y-3805000D01*
G75*
G02*
X6419500Y-3795000I0J10000D01*
G01*
X6419500Y-3645000D01*
G75*
G02*
X6429500Y-3635000I10000J0D01*
G01*
X6489500Y-3635000D01*
G75*
G02*
X6499500Y-3645000I0J-10000D01*
G01*
X6499500Y-3795000D01*
G75*
G02*
X6489500Y-3805000I-10000J0D01*
G01*
G37*
G36*
G01*
X6362500Y-3805000D02*
X6302500Y-3805000D01*
G75*
G02*
X6292500Y-3795000I0J10000D01*
G01*
X6292500Y-3645000D01*
G75*
G02*
X6302500Y-3635000I10000J0D01*
G01*
X6362500Y-3635000D01*
G75*
G02*
X6372500Y-3645000I0J-10000D01*
G01*
X6372500Y-3795000D01*
G75*
G02*
X6362500Y-3805000I-10000J0D01*
G01*
G37*
G36*
G01*
X6235500Y-3805000D02*
X6175500Y-3805000D01*
G75*
G02*
X6165500Y-3795000I0J10000D01*
G01*
X6165500Y-3645000D01*
G75*
G02*
X6175500Y-3635000I10000J0D01*
G01*
X6235500Y-3635000D01*
G75*
G02*
X6245500Y-3645000I0J-10000D01*
G01*
X6245500Y-3795000D01*
G75*
G02*
X6235500Y-3805000I-10000J0D01*
G01*
G37*
G36*
G01*
X7034740Y-4677800D02*
X6944740Y-4677800D01*
G75*
G02*
X6934740Y-4667800I0J10000D01*
G01*
X6934740Y-4617800D01*
G75*
G02*
X6944740Y-4607800I10000J0D01*
G01*
X7034740Y-4607800D01*
G75*
G02*
X7044740Y-4617800I0J-10000D01*
G01*
X7044740Y-4667800D01*
G75*
G02*
X7034740Y-4677800I-10000J0D01*
G01*
G37*
G36*
G01*
X7034740Y-4827800D02*
X6944740Y-4827800D01*
G75*
G02*
X6934740Y-4817800I0J10000D01*
G01*
X6934740Y-4767800D01*
G75*
G02*
X6944740Y-4757800I10000J0D01*
G01*
X7034740Y-4757800D01*
G75*
G02*
X7044740Y-4767800I0J-10000D01*
G01*
X7044740Y-4817800D01*
G75*
G02*
X7034740Y-4827800I-10000J0D01*
G01*
G37*
G36*
G01*
X6340000Y-4675000D02*
X6260000Y-4675000D01*
G75*
G02*
X6250000Y-4665000I0J10000D01*
G01*
X6250000Y-4575000D01*
G75*
G02*
X6260000Y-4565000I10000J0D01*
G01*
X6340000Y-4565000D01*
G75*
G02*
X6350000Y-4575000I0J-10000D01*
G01*
X6350000Y-4665000D01*
G75*
G02*
X6340000Y-4675000I-10000J0D01*
G01*
G37*
G36*
G01*
X6435000Y-4875000D02*
X6355000Y-4875000D01*
G75*
G02*
X6345000Y-4865000I0J10000D01*
G01*
X6345000Y-4775000D01*
G75*
G02*
X6355000Y-4765000I10000J0D01*
G01*
X6435000Y-4765000D01*
G75*
G02*
X6445000Y-4775000I0J-10000D01*
G01*
X6445000Y-4865000D01*
G75*
G02*
X6435000Y-4875000I-10000J0D01*
G01*
G37*
G36*
G01*
X6245000Y-4875000D02*
X6165000Y-4875000D01*
G75*
G02*
X6155000Y-4865000I0J10000D01*
G01*
X6155000Y-4775000D01*
G75*
G02*
X6165000Y-4765000I10000J0D01*
G01*
X6245000Y-4765000D01*
G75*
G02*
X6255000Y-4775000I0J-10000D01*
G01*
X6255000Y-4865000D01*
G75*
G02*
X6245000Y-4875000I-10000J0D01*
G01*
G37*
G36*
G01*
X5945000Y-2947500D02*
X5945000Y-2872500D01*
G75*
G02*
X5955000Y-2862500I10000J0D01*
G01*
X6035000Y-2862500D01*
G75*
G02*
X6045000Y-2872500I0J-10000D01*
G01*
X6045000Y-2947500D01*
G75*
G02*
X6035000Y-2957500I-10000J0D01*
G01*
X5955000Y-2957500D01*
G75*
G02*
X5945000Y-2947500I0J10000D01*
G01*
G37*
G36*
G01*
X6095000Y-2947500D02*
X6095000Y-2872500D01*
G75*
G02*
X6105000Y-2862500I10000J0D01*
G01*
X6185000Y-2862500D01*
G75*
G02*
X6195000Y-2872500I0J-10000D01*
G01*
X6195000Y-2947500D01*
G75*
G02*
X6185000Y-2957500I-10000J0D01*
G01*
X6105000Y-2957500D01*
G75*
G02*
X6095000Y-2947500I0J10000D01*
G01*
G37*
G36*
G01*
X8942500Y-4335000D02*
X9017500Y-4335000D01*
G75*
G02*
X9027500Y-4345000I0J-10000D01*
G01*
X9027500Y-4425000D01*
G75*
G02*
X9017500Y-4435000I-10000J0D01*
G01*
X8942500Y-4435000D01*
G75*
G02*
X8932500Y-4425000I0J10000D01*
G01*
X8932500Y-4345000D01*
G75*
G02*
X8942500Y-4335000I10000J0D01*
G01*
G37*
G36*
G01*
X8942500Y-4485000D02*
X9017500Y-4485000D01*
G75*
G02*
X9027500Y-4495000I0J-10000D01*
G01*
X9027500Y-4575000D01*
G75*
G02*
X9017500Y-4585000I-10000J0D01*
G01*
X8942500Y-4585000D01*
G75*
G02*
X8932500Y-4575000I0J10000D01*
G01*
X8932500Y-4495000D01*
G75*
G02*
X8942500Y-4485000I10000J0D01*
G01*
G37*
G36*
G01*
X5925000Y-3460000D02*
X5835000Y-3460000D01*
G75*
G02*
X5825000Y-3450000I0J10000D01*
G01*
X5825000Y-3400000D01*
G75*
G02*
X5835000Y-3390000I10000J0D01*
G01*
X5925000Y-3390000D01*
G75*
G02*
X5935000Y-3400000I0J-10000D01*
G01*
X5935000Y-3450000D01*
G75*
G02*
X5925000Y-3460000I-10000J0D01*
G01*
G37*
G36*
G01*
X5925000Y-3610000D02*
X5835000Y-3610000D01*
G75*
G02*
X5825000Y-3600000I0J10000D01*
G01*
X5825000Y-3550000D01*
G75*
G02*
X5835000Y-3540000I10000J0D01*
G01*
X5925000Y-3540000D01*
G75*
G02*
X5935000Y-3550000I0J-10000D01*
G01*
X5935000Y-3600000D01*
G75*
G02*
X5925000Y-3610000I-10000J0D01*
G01*
G37*
G36*
G01*
X5825000Y-3337500D02*
X5825000Y-3262500D01*
G75*
G02*
X5835000Y-3252500I10000J0D01*
G01*
X5915000Y-3252500D01*
G75*
G02*
X5925000Y-3262500I0J-10000D01*
G01*
X5925000Y-3337500D01*
G75*
G02*
X5915000Y-3347500I-10000J0D01*
G01*
X5835000Y-3347500D01*
G75*
G02*
X5825000Y-3337500I0J10000D01*
G01*
G37*
G36*
G01*
X5975000Y-3337500D02*
X5975000Y-3262500D01*
G75*
G02*
X5985000Y-3252500I10000J0D01*
G01*
X6065000Y-3252500D01*
G75*
G02*
X6075000Y-3262500I0J-10000D01*
G01*
X6075000Y-3337500D01*
G75*
G02*
X6065000Y-3347500I-10000J0D01*
G01*
X5985000Y-3347500D01*
G75*
G02*
X5975000Y-3337500I0J10000D01*
G01*
G37*
G36*
G01*
X9580000Y-4815000D02*
X9580000Y-4735000D01*
G75*
G02*
X9590000Y-4725000I10000J0D01*
G01*
X9670000Y-4725000D01*
G75*
G02*
X9680000Y-4735000I0J-10000D01*
G01*
X9680000Y-4815000D01*
G75*
G02*
X9670000Y-4825000I-10000J0D01*
G01*
X9590000Y-4825000D01*
G75*
G02*
X9580000Y-4815000I0J10000D01*
G01*
G37*
G36*
G01*
X9420000Y-4815000D02*
X9420000Y-4735000D01*
G75*
G02*
X9430000Y-4725000I10000J0D01*
G01*
X9510000Y-4725000D01*
G75*
G02*
X9520000Y-4735000I0J-10000D01*
G01*
X9520000Y-4815000D01*
G75*
G02*
X9510000Y-4825000I-10000J0D01*
G01*
X9430000Y-4825000D01*
G75*
G02*
X9420000Y-4815000I0J10000D01*
G01*
G37*
G36*
G01*
X6340000Y-4465000D02*
X6340000Y-4375000D01*
G75*
G02*
X6350000Y-4365000I10000J0D01*
G01*
X6400000Y-4365000D01*
G75*
G02*
X6410000Y-4375000I0J-10000D01*
G01*
X6410000Y-4465000D01*
G75*
G02*
X6400000Y-4475000I-10000J0D01*
G01*
X6350000Y-4475000D01*
G75*
G02*
X6340000Y-4465000I0J10000D01*
G01*
G37*
G36*
G01*
X6190000Y-4465000D02*
X6190000Y-4375000D01*
G75*
G02*
X6200000Y-4365000I10000J0D01*
G01*
X6250000Y-4365000D01*
G75*
G02*
X6260000Y-4375000I0J-10000D01*
G01*
X6260000Y-4465000D01*
G75*
G02*
X6250000Y-4475000I-10000J0D01*
G01*
X6200000Y-4475000D01*
G75*
G02*
X6190000Y-4465000I0J10000D01*
G01*
G37*
G36*
G01*
X9200000Y-4505000D02*
X9280000Y-4505000D01*
G75*
G02*
X9290000Y-4515000I0J-10000D01*
G01*
X9290000Y-4605000D01*
G75*
G02*
X9280000Y-4615000I-10000J0D01*
G01*
X9200000Y-4615000D01*
G75*
G02*
X9190000Y-4605000I0J10000D01*
G01*
X9190000Y-4515000D01*
G75*
G02*
X9200000Y-4505000I10000J0D01*
G01*
G37*
G36*
G01*
X9105000Y-4305000D02*
X9185000Y-4305000D01*
G75*
G02*
X9195000Y-4315000I0J-10000D01*
G01*
X9195000Y-4405000D01*
G75*
G02*
X9185000Y-4415000I-10000J0D01*
G01*
X9105000Y-4415000D01*
G75*
G02*
X9095000Y-4405000I0J10000D01*
G01*
X9095000Y-4315000D01*
G75*
G02*
X9105000Y-4305000I10000J0D01*
G01*
G37*
G36*
G01*
X9295000Y-4305000D02*
X9375000Y-4305000D01*
G75*
G02*
X9385000Y-4315000I0J-10000D01*
G01*
X9385000Y-4405000D01*
G75*
G02*
X9375000Y-4415000I-10000J0D01*
G01*
X9295000Y-4415000D01*
G75*
G02*
X9285000Y-4405000I0J10000D01*
G01*
X9285000Y-4315000D01*
G75*
G02*
X9295000Y-4305000I10000J0D01*
G01*
G37*
G36*
G01*
X9280000Y-4820000D02*
X9280000Y-4730000D01*
G75*
G02*
X9290000Y-4720000I10000J0D01*
G01*
X9340000Y-4720000D01*
G75*
G02*
X9350000Y-4730000I0J-10000D01*
G01*
X9350000Y-4820000D01*
G75*
G02*
X9340000Y-4830000I-10000J0D01*
G01*
X9290000Y-4830000D01*
G75*
G02*
X9280000Y-4820000I0J10000D01*
G01*
G37*
G36*
G01*
X9130000Y-4820000D02*
X9130000Y-4730000D01*
G75*
G02*
X9140000Y-4720000I10000J0D01*
G01*
X9190000Y-4720000D01*
G75*
G02*
X9200000Y-4730000I0J-10000D01*
G01*
X9200000Y-4820000D01*
G75*
G02*
X9190000Y-4830000I-10000J0D01*
G01*
X9140000Y-4830000D01*
G75*
G02*
X9130000Y-4820000I0J10000D01*
G01*
G37*
G36*
G01*
X6320000Y-2865000D02*
X6320000Y-2955000D01*
G75*
G02*
X6310000Y-2965000I-10000J0D01*
G01*
X6260000Y-2965000D01*
G75*
G02*
X6250000Y-2955000I0J10000D01*
G01*
X6250000Y-2865000D01*
G75*
G02*
X6260000Y-2855000I10000J0D01*
G01*
X6310000Y-2855000D01*
G75*
G02*
X6320000Y-2865000I0J-10000D01*
G01*
G37*
G36*
G01*
X6470000Y-2865000D02*
X6470000Y-2955000D01*
G75*
G02*
X6460000Y-2965000I-10000J0D01*
G01*
X6410000Y-2965000D01*
G75*
G02*
X6400000Y-2955000I0J10000D01*
G01*
X6400000Y-2865000D01*
G75*
G02*
X6410000Y-2855000I10000J0D01*
G01*
X6460000Y-2855000D01*
G75*
G02*
X6470000Y-2865000I0J-10000D01*
G01*
G37*
G36*
G01*
X7450000Y-2830000D02*
X8350000Y-2830000D01*
G75*
G02*
X8360000Y-2840000I0J-10000D01*
G01*
X8360000Y-3140000D01*
G75*
G02*
X8350000Y-3150000I-10000J0D01*
G01*
X7450000Y-3150000D01*
G75*
G02*
X7440000Y-3140000I0J10000D01*
G01*
X7440000Y-2840000D01*
G75*
G02*
X7450000Y-2830000I10000J0D01*
G01*
G37*
G36*
G01*
X8182500Y-4870000D02*
X8182500Y-4570000D01*
G75*
G02*
X8192500Y-4560000I10000J0D01*
G01*
X8262500Y-4560000D01*
G75*
G02*
X8272500Y-4570000I0J-10000D01*
G01*
X8272500Y-4870000D01*
G75*
G02*
X8262500Y-4880000I-10000J0D01*
G01*
X8192500Y-4880000D01*
G75*
G02*
X8182500Y-4870000I0J10000D01*
G01*
G37*
G36*
G01*
X8055500Y-4870000D02*
X8055500Y-4570000D01*
G75*
G02*
X8065500Y-4560000I10000J0D01*
G01*
X8135500Y-4560000D01*
G75*
G02*
X8145500Y-4570000I0J-10000D01*
G01*
X8145500Y-4870000D01*
G75*
G02*
X8135500Y-4880000I-10000J0D01*
G01*
X8065500Y-4880000D01*
G75*
G02*
X8055500Y-4870000I0J10000D01*
G01*
G37*
G36*
G01*
X7928500Y-4870000D02*
X7928500Y-4570000D01*
G75*
G02*
X7938500Y-4560000I10000J0D01*
G01*
X8008500Y-4560000D01*
G75*
G02*
X8018500Y-4570000I0J-10000D01*
G01*
X8018500Y-4870000D01*
G75*
G02*
X8008500Y-4880000I-10000J0D01*
G01*
X7938500Y-4880000D01*
G75*
G02*
X7928500Y-4870000I0J10000D01*
G01*
G37*
G36*
G01*
X7801500Y-4870000D02*
X7801500Y-4570000D01*
G75*
G02*
X7811500Y-4560000I10000J0D01*
G01*
X7881500Y-4560000D01*
G75*
G02*
X7891500Y-4570000I0J-10000D01*
G01*
X7891500Y-4870000D01*
G75*
G02*
X7881500Y-4880000I-10000J0D01*
G01*
X7811500Y-4880000D01*
G75*
G02*
X7801500Y-4870000I0J10000D01*
G01*
G37*
G36*
G01*
X7674500Y-4870000D02*
X7674500Y-4570000D01*
G75*
G02*
X7684500Y-4560000I10000J0D01*
G01*
X7754500Y-4560000D01*
G75*
G02*
X7764500Y-4570000I0J-10000D01*
G01*
X7764500Y-4870000D01*
G75*
G02*
X7754500Y-4880000I-10000J0D01*
G01*
X7684500Y-4880000D01*
G75*
G02*
X7674500Y-4870000I0J10000D01*
G01*
G37*
G36*
G01*
X7547500Y-4870000D02*
X7547500Y-4570000D01*
G75*
G02*
X7557500Y-4560000I10000J0D01*
G01*
X7627500Y-4560000D01*
G75*
G02*
X7637500Y-4570000I0J-10000D01*
G01*
X7637500Y-4870000D01*
G75*
G02*
X7627500Y-4880000I-10000J0D01*
G01*
X7557500Y-4880000D01*
G75*
G02*
X7547500Y-4870000I0J10000D01*
G01*
G37*
G36*
G01*
X6970000Y-2955000D02*
X6970000Y-2865000D01*
G75*
G02*
X6980000Y-2855000I10000J0D01*
G01*
X7030000Y-2855000D01*
G75*
G02*
X7040000Y-2865000I0J-10000D01*
G01*
X7040000Y-2955000D01*
G75*
G02*
X7030000Y-2965000I-10000J0D01*
G01*
X6980000Y-2965000D01*
G75*
G02*
X6970000Y-2955000I0J10000D01*
G01*
G37*
G36*
G01*
X6820000Y-2955000D02*
X6820000Y-2865000D01*
G75*
G02*
X6830000Y-2855000I10000J0D01*
G01*
X6880000Y-2855000D01*
G75*
G02*
X6890000Y-2865000I0J-10000D01*
G01*
X6890000Y-2955000D01*
G75*
G02*
X6880000Y-2965000I-10000J0D01*
G01*
X6830000Y-2965000D01*
G75*
G02*
X6820000Y-2955000I0J10000D01*
G01*
G37*
G36*
G01*
X6740000Y-4675000D02*
X6660000Y-4675000D01*
G75*
G02*
X6650000Y-4665000I0J10000D01*
G01*
X6650000Y-4575000D01*
G75*
G02*
X6660000Y-4565000I10000J0D01*
G01*
X6740000Y-4565000D01*
G75*
G02*
X6750000Y-4575000I0J-10000D01*
G01*
X6750000Y-4665000D01*
G75*
G02*
X6740000Y-4675000I-10000J0D01*
G01*
G37*
G36*
G01*
X6835000Y-4875000D02*
X6755000Y-4875000D01*
G75*
G02*
X6745000Y-4865000I0J10000D01*
G01*
X6745000Y-4775000D01*
G75*
G02*
X6755000Y-4765000I10000J0D01*
G01*
X6835000Y-4765000D01*
G75*
G02*
X6845000Y-4775000I0J-10000D01*
G01*
X6845000Y-4865000D01*
G75*
G02*
X6835000Y-4875000I-10000J0D01*
G01*
G37*
G36*
G01*
X6645000Y-4875000D02*
X6565000Y-4875000D01*
G75*
G02*
X6555000Y-4865000I0J10000D01*
G01*
X6555000Y-4775000D01*
G75*
G02*
X6565000Y-4765000I10000J0D01*
G01*
X6645000Y-4765000D01*
G75*
G02*
X6655000Y-4775000I0J-10000D01*
G01*
X6655000Y-4865000D01*
G75*
G02*
X6645000Y-4875000I-10000J0D01*
G01*
G37*
D10*
X5700000Y-3110000D03*
D12*
X8700000Y-5660000D03*
X7100000Y-5660000D03*
D10*
X5700000Y-4810000D03*
X10100000Y-3110000D03*
X10100000Y-4810000D03*
D13*
G36*
X7012227Y-3942756D02*
G01*
X7012278Y-3942932D01*
X7010633Y-3951198D01*
X7010633Y-3968802D01*
X7012278Y-3977068D01*
X7012213Y-3977258D01*
X7012017Y-3977297D01*
X7011890Y-3977165D01*
X7011363Y-3975427D01*
X7010226Y-3973300D01*
X7008697Y-3971437D01*
X7006833Y-3969907D01*
X7004707Y-3968770D01*
X7002399Y-3968070D01*
X7000000Y-3967834D01*
X6997601Y-3968070D01*
X6995293Y-3968770D01*
X6993167Y-3969907D01*
X6991303Y-3971436D01*
X6989774Y-3973300D01*
X6988637Y-3975427D01*
X6988110Y-3977165D01*
X6987964Y-3977302D01*
X6987772Y-3977244D01*
X6987722Y-3977068D01*
X6989367Y-3968802D01*
X6989367Y-3951198D01*
X6987722Y-3942932D01*
X6987787Y-3942742D01*
X6987983Y-3942703D01*
X6988110Y-3942835D01*
X6988637Y-3944573D01*
X6989774Y-3946700D01*
X6991303Y-3948563D01*
X6993167Y-3950093D01*
X6995293Y-3951229D01*
X6997601Y-3951929D01*
X7000000Y-3952166D01*
X7002399Y-3951929D01*
X7004707Y-3951229D01*
X7006833Y-3950093D01*
X7008697Y-3948563D01*
X7010226Y-3946700D01*
X7011363Y-3944573D01*
X7011890Y-3942835D01*
X7012036Y-3942698D01*
X7012227Y-3942756D01*
G37*
G36*
X6812227Y-3942756D02*
G01*
X6812278Y-3942932D01*
X6810633Y-3951198D01*
X6810633Y-3968802D01*
X6812278Y-3977068D01*
X6812213Y-3977258D01*
X6812017Y-3977297D01*
X6811890Y-3977165D01*
X6811363Y-3975427D01*
X6810226Y-3973300D01*
X6808697Y-3971437D01*
X6806833Y-3969907D01*
X6804707Y-3968770D01*
X6802399Y-3968070D01*
X6800000Y-3967834D01*
X6797601Y-3968070D01*
X6795293Y-3968770D01*
X6793167Y-3969907D01*
X6791303Y-3971436D01*
X6789774Y-3973300D01*
X6788637Y-3975427D01*
X6788110Y-3977165D01*
X6787964Y-3977302D01*
X6787772Y-3977244D01*
X6787722Y-3977068D01*
X6789367Y-3968802D01*
X6789367Y-3951198D01*
X6787722Y-3942932D01*
X6787787Y-3942742D01*
X6787983Y-3942703D01*
X6788110Y-3942835D01*
X6788637Y-3944573D01*
X6789774Y-3946700D01*
X6791303Y-3948563D01*
X6793167Y-3950093D01*
X6795293Y-3951229D01*
X6797601Y-3951929D01*
X6800000Y-3952166D01*
X6802399Y-3951929D01*
X6804707Y-3951229D01*
X6806833Y-3950093D01*
X6808697Y-3948563D01*
X6810226Y-3946700D01*
X6811363Y-3944573D01*
X6811890Y-3942835D01*
X6812036Y-3942698D01*
X6812227Y-3942756D01*
G37*
G36*
X6612227Y-3942756D02*
G01*
X6612278Y-3942932D01*
X6610633Y-3951198D01*
X6610633Y-3968802D01*
X6612278Y-3977068D01*
X6612213Y-3977258D01*
X6612017Y-3977297D01*
X6611890Y-3977165D01*
X6611363Y-3975427D01*
X6610226Y-3973300D01*
X6608697Y-3971437D01*
X6606833Y-3969907D01*
X6604707Y-3968770D01*
X6602399Y-3968070D01*
X6600000Y-3967834D01*
X6597601Y-3968070D01*
X6595293Y-3968770D01*
X6593167Y-3969907D01*
X6591303Y-3971436D01*
X6589774Y-3973300D01*
X6588637Y-3975427D01*
X6588110Y-3977165D01*
X6587964Y-3977302D01*
X6587772Y-3977244D01*
X6587722Y-3977068D01*
X6589367Y-3968802D01*
X6589367Y-3951198D01*
X6587722Y-3942932D01*
X6587787Y-3942742D01*
X6587983Y-3942703D01*
X6588110Y-3942835D01*
X6588637Y-3944573D01*
X6589774Y-3946700D01*
X6591303Y-3948563D01*
X6593167Y-3950093D01*
X6595293Y-3951229D01*
X6597601Y-3951929D01*
X6600000Y-3952166D01*
X6602399Y-3951929D01*
X6604707Y-3951229D01*
X6606833Y-3950093D01*
X6608697Y-3948563D01*
X6610226Y-3946700D01*
X6611363Y-3944573D01*
X6611890Y-3942835D01*
X6612036Y-3942698D01*
X6612227Y-3942756D01*
G37*
G36*
X9612228Y-3942756D02*
G01*
X9612278Y-3942932D01*
X9610633Y-3951198D01*
X9610633Y-3968802D01*
X9612278Y-3977068D01*
X9612213Y-3977258D01*
X9612017Y-3977297D01*
X9611890Y-3977165D01*
X9611363Y-3975427D01*
X9610226Y-3973300D01*
X9608697Y-3971437D01*
X9606833Y-3969907D01*
X9604707Y-3968770D01*
X9602399Y-3968070D01*
X9600000Y-3967834D01*
X9597601Y-3968070D01*
X9595293Y-3968770D01*
X9593167Y-3969907D01*
X9591303Y-3971436D01*
X9589774Y-3973300D01*
X9588637Y-3975427D01*
X9588110Y-3977165D01*
X9587964Y-3977302D01*
X9587773Y-3977244D01*
X9587722Y-3977068D01*
X9589367Y-3968802D01*
X9589367Y-3951198D01*
X9587722Y-3942932D01*
X9587787Y-3942742D01*
X9587983Y-3942703D01*
X9588110Y-3942835D01*
X9588637Y-3944573D01*
X9589774Y-3946700D01*
X9591303Y-3948563D01*
X9593167Y-3950093D01*
X9595293Y-3951229D01*
X9597601Y-3951929D01*
X9600000Y-3952166D01*
X9602399Y-3951929D01*
X9604707Y-3951229D01*
X9606833Y-3950093D01*
X9608697Y-3948563D01*
X9610226Y-3946700D01*
X9611363Y-3944573D01*
X9611890Y-3942835D01*
X9612036Y-3942698D01*
X9612228Y-3942756D01*
G37*
G36*
X9212228Y-3942756D02*
G01*
X9212278Y-3942932D01*
X9210633Y-3951198D01*
X9210633Y-3968802D01*
X9212278Y-3977068D01*
X9212213Y-3977258D01*
X9212017Y-3977297D01*
X9211890Y-3977165D01*
X9211363Y-3975427D01*
X9210226Y-3973300D01*
X9208697Y-3971437D01*
X9206833Y-3969907D01*
X9204707Y-3968770D01*
X9202399Y-3968070D01*
X9200000Y-3967834D01*
X9197601Y-3968070D01*
X9195293Y-3968770D01*
X9193167Y-3969907D01*
X9191303Y-3971436D01*
X9189774Y-3973300D01*
X9188637Y-3975427D01*
X9188110Y-3977165D01*
X9187964Y-3977302D01*
X9187773Y-3977244D01*
X9187722Y-3977068D01*
X9189367Y-3968802D01*
X9189367Y-3951198D01*
X9187722Y-3942932D01*
X9187787Y-3942742D01*
X9187983Y-3942703D01*
X9188110Y-3942835D01*
X9188637Y-3944573D01*
X9189774Y-3946700D01*
X9191303Y-3948563D01*
X9193167Y-3950093D01*
X9195293Y-3951229D01*
X9197601Y-3951929D01*
X9200000Y-3952166D01*
X9202399Y-3951929D01*
X9204707Y-3951229D01*
X9206833Y-3950093D01*
X9208697Y-3948563D01*
X9210226Y-3946700D01*
X9211363Y-3944573D01*
X9211890Y-3942835D01*
X9212036Y-3942698D01*
X9212228Y-3942756D01*
G37*
G36*
X6212227Y-3942756D02*
G01*
X6212278Y-3942932D01*
X6210633Y-3951198D01*
X6210633Y-3968802D01*
X6212278Y-3977068D01*
X6212213Y-3977258D01*
X6212017Y-3977297D01*
X6211890Y-3977165D01*
X6211363Y-3975427D01*
X6210226Y-3973300D01*
X6208697Y-3971437D01*
X6206833Y-3969907D01*
X6204707Y-3968770D01*
X6202399Y-3968070D01*
X6200000Y-3967834D01*
X6197601Y-3968070D01*
X6195293Y-3968770D01*
X6193167Y-3969907D01*
X6191303Y-3971436D01*
X6189774Y-3973300D01*
X6188637Y-3975427D01*
X6188110Y-3977165D01*
X6187964Y-3977302D01*
X6187772Y-3977244D01*
X6187722Y-3977068D01*
X6189367Y-3968802D01*
X6189367Y-3951198D01*
X6187722Y-3942932D01*
X6187787Y-3942742D01*
X6187983Y-3942703D01*
X6188110Y-3942835D01*
X6188637Y-3944573D01*
X6189774Y-3946700D01*
X6191303Y-3948563D01*
X6193167Y-3950093D01*
X6195293Y-3951229D01*
X6197601Y-3951929D01*
X6200000Y-3952166D01*
X6202399Y-3951929D01*
X6204707Y-3951229D01*
X6206833Y-3950093D01*
X6208697Y-3948563D01*
X6210226Y-3946700D01*
X6211363Y-3944573D01*
X6211890Y-3942835D01*
X6212036Y-3942698D01*
X6212227Y-3942756D01*
G37*
G36*
X6412227Y-3942756D02*
G01*
X6412278Y-3942932D01*
X6410633Y-3951198D01*
X6410633Y-3968802D01*
X6412278Y-3977068D01*
X6412213Y-3977258D01*
X6412017Y-3977297D01*
X6411890Y-3977165D01*
X6411363Y-3975427D01*
X6410226Y-3973300D01*
X6408697Y-3971437D01*
X6406833Y-3969907D01*
X6404707Y-3968770D01*
X6402399Y-3968070D01*
X6400000Y-3967834D01*
X6397601Y-3968070D01*
X6395293Y-3968770D01*
X6393167Y-3969907D01*
X6391303Y-3971436D01*
X6389774Y-3973300D01*
X6388637Y-3975427D01*
X6388110Y-3977165D01*
X6387964Y-3977302D01*
X6387772Y-3977244D01*
X6387722Y-3977068D01*
X6389367Y-3968802D01*
X6389367Y-3951198D01*
X6387722Y-3942932D01*
X6387787Y-3942742D01*
X6387983Y-3942703D01*
X6388110Y-3942835D01*
X6388637Y-3944573D01*
X6389774Y-3946700D01*
X6391303Y-3948563D01*
X6393167Y-3950093D01*
X6395293Y-3951229D01*
X6397601Y-3951929D01*
X6400000Y-3952166D01*
X6402399Y-3951929D01*
X6404707Y-3951229D01*
X6406833Y-3950093D01*
X6408697Y-3948563D01*
X6410226Y-3946700D01*
X6411363Y-3944573D01*
X6411890Y-3942835D01*
X6412036Y-3942698D01*
X6412227Y-3942756D01*
G37*
G36*
X9012228Y-3942756D02*
G01*
X9012278Y-3942932D01*
X9010633Y-3951198D01*
X9010633Y-3968802D01*
X9012278Y-3977068D01*
X9012213Y-3977258D01*
X9012017Y-3977297D01*
X9011890Y-3977165D01*
X9011363Y-3975427D01*
X9010226Y-3973300D01*
X9008697Y-3971437D01*
X9006833Y-3969907D01*
X9004707Y-3968770D01*
X9002399Y-3968070D01*
X9000000Y-3967834D01*
X8997601Y-3968070D01*
X8995293Y-3968770D01*
X8993167Y-3969907D01*
X8991303Y-3971436D01*
X8989774Y-3973300D01*
X8988637Y-3975427D01*
X8988110Y-3977165D01*
X8987964Y-3977302D01*
X8987773Y-3977244D01*
X8987722Y-3977068D01*
X8989367Y-3968802D01*
X8989367Y-3951198D01*
X8987722Y-3942932D01*
X8987787Y-3942742D01*
X8987983Y-3942703D01*
X8988110Y-3942835D01*
X8988637Y-3944573D01*
X8989774Y-3946700D01*
X8991303Y-3948563D01*
X8993167Y-3950093D01*
X8995293Y-3951229D01*
X8997601Y-3951929D01*
X9000000Y-3952166D01*
X9002399Y-3951929D01*
X9004707Y-3951229D01*
X9006833Y-3950093D01*
X9008697Y-3948563D01*
X9010226Y-3946700D01*
X9011363Y-3944573D01*
X9011890Y-3942835D01*
X9012036Y-3942698D01*
X9012228Y-3942756D01*
G37*
G36*
X9412228Y-3942756D02*
G01*
X9412278Y-3942932D01*
X9410633Y-3951198D01*
X9410633Y-3968802D01*
X9412278Y-3977068D01*
X9412213Y-3977258D01*
X9412017Y-3977297D01*
X9411890Y-3977165D01*
X9411363Y-3975427D01*
X9410226Y-3973300D01*
X9408697Y-3971437D01*
X9406833Y-3969907D01*
X9404707Y-3968770D01*
X9402399Y-3968070D01*
X9400000Y-3967834D01*
X9397601Y-3968070D01*
X9395293Y-3968770D01*
X9393167Y-3969907D01*
X9391303Y-3971436D01*
X9389774Y-3973300D01*
X9388637Y-3975427D01*
X9388110Y-3977165D01*
X9387964Y-3977302D01*
X9387773Y-3977244D01*
X9387722Y-3977068D01*
X9389367Y-3968802D01*
X9389367Y-3951198D01*
X9387722Y-3942932D01*
X9387787Y-3942742D01*
X9387983Y-3942703D01*
X9388110Y-3942835D01*
X9388637Y-3944573D01*
X9389774Y-3946700D01*
X9391303Y-3948563D01*
X9393167Y-3950093D01*
X9395293Y-3951229D01*
X9397601Y-3951929D01*
X9400000Y-3952166D01*
X9402399Y-3951929D01*
X9404707Y-3951229D01*
X9406833Y-3950093D01*
X9408697Y-3948563D01*
X9410226Y-3946700D01*
X9411363Y-3944573D01*
X9411890Y-3942835D01*
X9412036Y-3942698D01*
X9412228Y-3942756D01*
G37*
G36*
X8812228Y-3942756D02*
G01*
X8812278Y-3942932D01*
X8810633Y-3951198D01*
X8810633Y-3968802D01*
X8812278Y-3977068D01*
X8812213Y-3977258D01*
X8812017Y-3977297D01*
X8811890Y-3977165D01*
X8811363Y-3975427D01*
X8810226Y-3973300D01*
X8808697Y-3971437D01*
X8806833Y-3969907D01*
X8804707Y-3968770D01*
X8802399Y-3968070D01*
X8800000Y-3967834D01*
X8797601Y-3968070D01*
X8795293Y-3968770D01*
X8793167Y-3969907D01*
X8791303Y-3971436D01*
X8789774Y-3973300D01*
X8788637Y-3975427D01*
X8788110Y-3977165D01*
X8787964Y-3977302D01*
X8787773Y-3977244D01*
X8787722Y-3977068D01*
X8789367Y-3968802D01*
X8789367Y-3951198D01*
X8787722Y-3942932D01*
X8787787Y-3942742D01*
X8787983Y-3942703D01*
X8788110Y-3942835D01*
X8788637Y-3944573D01*
X8789774Y-3946700D01*
X8791303Y-3948563D01*
X8793167Y-3950093D01*
X8795293Y-3951229D01*
X8797601Y-3951929D01*
X8800000Y-3952166D01*
X8802399Y-3951929D01*
X8804707Y-3951229D01*
X8806833Y-3950093D01*
X8808697Y-3948563D01*
X8810226Y-3946700D01*
X8811363Y-3944573D01*
X8811890Y-3942835D01*
X8812036Y-3942698D01*
X8812228Y-3942756D01*
G37*
M02*
