G04 #@! TF.GenerationSoftware,KiCad,Pcbnew,(5.1.9)-1*
G04 #@! TF.CreationDate,2021-12-14T12:04:27+08:00*
G04 #@! TF.ProjectId,ArduinoSensorBoard,41726475-696e-46f5-9365-6e736f72426f,rev?*
G04 #@! TF.SameCoordinates,Original*
G04 #@! TF.FileFunction,Paste,Top*
G04 #@! TF.FilePolarity,Positive*
%FSLAX46Y46*%
G04 Gerber Fmt 4.6, Leading zero omitted, Abs format (unit mm)*
G04 Created by KiCad (PCBNEW (5.1.9)-1) date 2021-12-14 12:04:27*
%MOMM*%
%LPD*%
G01*
G04 APERTURE LIST*
%ADD10R,3.120000X1.200000*%
%ADD11R,3.400000X1.500000*%
%ADD12R,1.200000X2.400000*%
%ADD13R,2.400000X1.200000*%
%ADD14R,0.750000X0.800000*%
G04 APERTURE END LIST*
D10*
X118374000Y-61226000D03*
X112984000Y-61226000D03*
X118374000Y-58686000D03*
X118374000Y-56146000D03*
X112984000Y-56146000D03*
X112984000Y-58686000D03*
G36*
G01*
X113550000Y-91500000D02*
X116550000Y-91500000D01*
G75*
G02*
X116800000Y-91750000I0J-250000D01*
G01*
X116800000Y-92250000D01*
G75*
G02*
X116550000Y-92500000I-250000J0D01*
G01*
X113550000Y-92500000D01*
G75*
G02*
X113300000Y-92250000I0J250000D01*
G01*
X113300000Y-91750000D01*
G75*
G02*
X113550000Y-91500000I250000J0D01*
G01*
G37*
G36*
G01*
X113550000Y-89500000D02*
X116550000Y-89500000D01*
G75*
G02*
X116800000Y-89750000I0J-250000D01*
G01*
X116800000Y-90250000D01*
G75*
G02*
X116550000Y-90500000I-250000J0D01*
G01*
X113550000Y-90500000D01*
G75*
G02*
X113300000Y-90250000I0J250000D01*
G01*
X113300000Y-89750000D01*
G75*
G02*
X113550000Y-89500000I250000J0D01*
G01*
G37*
G36*
G01*
X113550000Y-87490000D02*
X116550000Y-87490000D01*
G75*
G02*
X116800000Y-87740000I0J-250000D01*
G01*
X116800000Y-88240000D01*
G75*
G02*
X116550000Y-88490000I-250000J0D01*
G01*
X113550000Y-88490000D01*
G75*
G02*
X113300000Y-88240000I0J250000D01*
G01*
X113300000Y-87740000D01*
G75*
G02*
X113550000Y-87490000I250000J0D01*
G01*
G37*
D11*
X121100000Y-96350000D03*
X121100000Y-83650000D03*
G36*
G01*
X113550000Y-93490000D02*
X116550000Y-93490000D01*
G75*
G02*
X116800000Y-93740000I0J-250000D01*
G01*
X116800000Y-94240000D01*
G75*
G02*
X116550000Y-94490000I-250000J0D01*
G01*
X113550000Y-94490000D01*
G75*
G02*
X113300000Y-94240000I0J250000D01*
G01*
X113300000Y-93740000D01*
G75*
G02*
X113550000Y-93490000I250000J0D01*
G01*
G37*
G36*
G01*
X113560000Y-85500000D02*
X116560000Y-85500000D01*
G75*
G02*
X116810000Y-85750000I0J-250000D01*
G01*
X116810000Y-86250000D01*
G75*
G02*
X116560000Y-86500000I-250000J0D01*
G01*
X113560000Y-86500000D01*
G75*
G02*
X113310000Y-86250000I0J250000D01*
G01*
X113310000Y-85750000D01*
G75*
G02*
X113560000Y-85500000I250000J0D01*
G01*
G37*
G36*
G01*
X113550000Y-73500000D02*
X116550000Y-73500000D01*
G75*
G02*
X116800000Y-73750000I0J-250000D01*
G01*
X116800000Y-74250000D01*
G75*
G02*
X116550000Y-74500000I-250000J0D01*
G01*
X113550000Y-74500000D01*
G75*
G02*
X113300000Y-74250000I0J250000D01*
G01*
X113300000Y-73750000D01*
G75*
G02*
X113550000Y-73500000I250000J0D01*
G01*
G37*
G36*
G01*
X113550000Y-71500000D02*
X116550000Y-71500000D01*
G75*
G02*
X116800000Y-71750000I0J-250000D01*
G01*
X116800000Y-72250000D01*
G75*
G02*
X116550000Y-72500000I-250000J0D01*
G01*
X113550000Y-72500000D01*
G75*
G02*
X113300000Y-72250000I0J250000D01*
G01*
X113300000Y-71750000D01*
G75*
G02*
X113550000Y-71500000I250000J0D01*
G01*
G37*
G36*
G01*
X113550000Y-69490000D02*
X116550000Y-69490000D01*
G75*
G02*
X116800000Y-69740000I0J-250000D01*
G01*
X116800000Y-70240000D01*
G75*
G02*
X116550000Y-70490000I-250000J0D01*
G01*
X113550000Y-70490000D01*
G75*
G02*
X113300000Y-70240000I0J250000D01*
G01*
X113300000Y-69740000D01*
G75*
G02*
X113550000Y-69490000I250000J0D01*
G01*
G37*
X121100000Y-78350000D03*
X121100000Y-65650000D03*
G36*
G01*
X113550000Y-75490000D02*
X116550000Y-75490000D01*
G75*
G02*
X116800000Y-75740000I0J-250000D01*
G01*
X116800000Y-76240000D01*
G75*
G02*
X116550000Y-76490000I-250000J0D01*
G01*
X113550000Y-76490000D01*
G75*
G02*
X113300000Y-76240000I0J250000D01*
G01*
X113300000Y-75740000D01*
G75*
G02*
X113550000Y-75490000I250000J0D01*
G01*
G37*
G36*
G01*
X113560000Y-67500000D02*
X116560000Y-67500000D01*
G75*
G02*
X116810000Y-67750000I0J-250000D01*
G01*
X116810000Y-68250000D01*
G75*
G02*
X116560000Y-68500000I-250000J0D01*
G01*
X113560000Y-68500000D01*
G75*
G02*
X113310000Y-68250000I0J250000D01*
G01*
X113310000Y-67750000D01*
G75*
G02*
X113560000Y-67500000I250000J0D01*
G01*
G37*
G36*
G01*
X74650000Y-92500000D02*
X71750000Y-92500000D01*
G75*
G02*
X71500000Y-92250000I0J250000D01*
G01*
X71500000Y-91750000D01*
G75*
G02*
X71750000Y-91500000I250000J0D01*
G01*
X74650000Y-91500000D01*
G75*
G02*
X74900000Y-91750000I0J-250000D01*
G01*
X74900000Y-92250000D01*
G75*
G02*
X74650000Y-92500000I-250000J0D01*
G01*
G37*
G36*
G01*
X74650000Y-94500000D02*
X71750000Y-94500000D01*
G75*
G02*
X71500000Y-94250000I0J250000D01*
G01*
X71500000Y-93750000D01*
G75*
G02*
X71750000Y-93500000I250000J0D01*
G01*
X74650000Y-93500000D01*
G75*
G02*
X74900000Y-93750000I0J-250000D01*
G01*
X74900000Y-94250000D01*
G75*
G02*
X74650000Y-94500000I-250000J0D01*
G01*
G37*
G36*
G01*
X74650000Y-96500000D02*
X71750000Y-96500000D01*
G75*
G02*
X71500000Y-96250000I0J250000D01*
G01*
X71500000Y-95750000D01*
G75*
G02*
X71750000Y-95500000I250000J0D01*
G01*
X74650000Y-95500000D01*
G75*
G02*
X74900000Y-95750000I0J-250000D01*
G01*
X74900000Y-96250000D01*
G75*
G02*
X74650000Y-96500000I-250000J0D01*
G01*
G37*
X67200000Y-85650000D03*
X67200000Y-100350000D03*
G36*
G01*
X74650000Y-90500000D02*
X71750000Y-90500000D01*
G75*
G02*
X71500000Y-90250000I0J250000D01*
G01*
X71500000Y-89750000D01*
G75*
G02*
X71750000Y-89500000I250000J0D01*
G01*
X74650000Y-89500000D01*
G75*
G02*
X74900000Y-89750000I0J-250000D01*
G01*
X74900000Y-90250000D01*
G75*
G02*
X74650000Y-90500000I-250000J0D01*
G01*
G37*
G36*
G01*
X74650000Y-98500000D02*
X71750000Y-98500000D01*
G75*
G02*
X71500000Y-98250000I0J250000D01*
G01*
X71500000Y-97750000D01*
G75*
G02*
X71750000Y-97500000I250000J0D01*
G01*
X74650000Y-97500000D01*
G75*
G02*
X74900000Y-97750000I0J-250000D01*
G01*
X74900000Y-98250000D01*
G75*
G02*
X74650000Y-98500000I-250000J0D01*
G01*
G37*
G36*
G01*
X74650000Y-88500000D02*
X71750000Y-88500000D01*
G75*
G02*
X71500000Y-88250000I0J250000D01*
G01*
X71500000Y-87750000D01*
G75*
G02*
X71750000Y-87500000I250000J0D01*
G01*
X74650000Y-87500000D01*
G75*
G02*
X74900000Y-87750000I0J-250000D01*
G01*
X74900000Y-88250000D01*
G75*
G02*
X74650000Y-88500000I-250000J0D01*
G01*
G37*
G36*
G01*
X74650000Y-69600000D02*
X71750000Y-69600000D01*
G75*
G02*
X71500000Y-69350000I0J250000D01*
G01*
X71500000Y-68850000D01*
G75*
G02*
X71750000Y-68600000I250000J0D01*
G01*
X74650000Y-68600000D01*
G75*
G02*
X74900000Y-68850000I0J-250000D01*
G01*
X74900000Y-69350000D01*
G75*
G02*
X74650000Y-69600000I-250000J0D01*
G01*
G37*
G36*
G01*
X74650000Y-79600000D02*
X71750000Y-79600000D01*
G75*
G02*
X71500000Y-79350000I0J250000D01*
G01*
X71500000Y-78850000D01*
G75*
G02*
X71750000Y-78600000I250000J0D01*
G01*
X74650000Y-78600000D01*
G75*
G02*
X74900000Y-78850000I0J-250000D01*
G01*
X74900000Y-79350000D01*
G75*
G02*
X74650000Y-79600000I-250000J0D01*
G01*
G37*
G36*
G01*
X74650000Y-71600000D02*
X71750000Y-71600000D01*
G75*
G02*
X71500000Y-71350000I0J250000D01*
G01*
X71500000Y-70850000D01*
G75*
G02*
X71750000Y-70600000I250000J0D01*
G01*
X74650000Y-70600000D01*
G75*
G02*
X74900000Y-70850000I0J-250000D01*
G01*
X74900000Y-71350000D01*
G75*
G02*
X74650000Y-71600000I-250000J0D01*
G01*
G37*
X67200000Y-81450000D03*
X67200000Y-66750000D03*
G36*
G01*
X74650000Y-77600000D02*
X71750000Y-77600000D01*
G75*
G02*
X71500000Y-77350000I0J250000D01*
G01*
X71500000Y-76850000D01*
G75*
G02*
X71750000Y-76600000I250000J0D01*
G01*
X74650000Y-76600000D01*
G75*
G02*
X74900000Y-76850000I0J-250000D01*
G01*
X74900000Y-77350000D01*
G75*
G02*
X74650000Y-77600000I-250000J0D01*
G01*
G37*
G36*
G01*
X74650000Y-75600000D02*
X71750000Y-75600000D01*
G75*
G02*
X71500000Y-75350000I0J250000D01*
G01*
X71500000Y-74850000D01*
G75*
G02*
X71750000Y-74600000I250000J0D01*
G01*
X74650000Y-74600000D01*
G75*
G02*
X74900000Y-74850000I0J-250000D01*
G01*
X74900000Y-75350000D01*
G75*
G02*
X74650000Y-75600000I-250000J0D01*
G01*
G37*
G36*
G01*
X74650000Y-73600000D02*
X71750000Y-73600000D01*
G75*
G02*
X71500000Y-73350000I0J250000D01*
G01*
X71500000Y-72850000D01*
G75*
G02*
X71750000Y-72600000I250000J0D01*
G01*
X74650000Y-72600000D01*
G75*
G02*
X74900000Y-72850000I0J-250000D01*
G01*
X74900000Y-73350000D01*
G75*
G02*
X74650000Y-73600000I-250000J0D01*
G01*
G37*
D12*
X82430000Y-59420000D03*
X84970000Y-55560000D03*
X87510000Y-59420000D03*
X79890000Y-55560000D03*
D13*
X76650000Y-55760000D03*
X72650000Y-58300000D03*
X76650000Y-60840000D03*
D14*
X71550000Y-55450000D03*
X71550000Y-53950000D03*
M02*
