G04 #@! TF.GenerationSoftware,KiCad,Pcbnew,(5.1.9)-1*
G04 #@! TF.CreationDate,2021-12-14T12:04:27+08:00*
G04 #@! TF.ProjectId,ArduinoSensorBoard,41726475-696e-46f5-9365-6e736f72426f,rev?*
G04 #@! TF.SameCoordinates,Original*
G04 #@! TF.FileFunction,Profile,NP*
%FSLAX46Y46*%
G04 Gerber Fmt 4.6, Leading zero omitted, Abs format (unit mm)*
G04 Created by KiCad (PCBNEW (5.1.9)-1) date 2021-12-14 12:04:27*
%MOMM*%
%LPD*%
G01*
G04 APERTURE LIST*
G04 #@! TA.AperFunction,Profile*
%ADD10C,0.150000*%
G04 #@! TD*
G04 APERTURE END LIST*
D10*
X65150000Y-157000000D02*
X62150000Y-157000000D01*
X181600000Y-157000000D02*
X184600000Y-157000000D01*
X181600000Y-49000000D02*
X181600000Y-157000000D01*
X181600000Y-64550000D02*
X181600000Y-97310000D01*
X124350000Y-49000000D02*
X177810000Y-49000000D01*
X177810000Y-49000000D02*
X179310000Y-50500000D01*
X179310000Y-50500000D02*
X179310000Y-62000000D01*
X179310000Y-62000000D02*
X181550000Y-64550000D01*
X123350000Y-101200000D02*
G75*
G03*
X124350000Y-102200000I1000000J0D01*
G01*
X123350000Y-101200000D02*
X123350000Y-50000000D01*
X178310000Y-102200000D02*
X124350000Y-102200000D01*
X179310000Y-99850000D02*
X181550000Y-97310000D01*
X179310000Y-101200000D02*
X179310000Y-99850000D01*
X178310000Y-102200000D02*
G75*
G03*
X179310000Y-101200000I0J1000000D01*
G01*
X124350000Y-103800000D02*
X177810000Y-103800000D01*
X177810000Y-103800000D02*
X179310000Y-105300000D01*
X179310000Y-105300000D02*
X179310000Y-116800000D01*
X179310000Y-116800000D02*
X181550000Y-119350000D01*
X123350000Y-156000000D02*
X123350000Y-104800000D01*
X124350000Y-103800000D02*
G75*
G03*
X123350000Y-104800000I0J-1000000D01*
G01*
X178310000Y-157000000D02*
X124350000Y-157000000D01*
X123350000Y-156000000D02*
G75*
G03*
X124350000Y-157000000I1000000J0D01*
G01*
X124350000Y-49000000D02*
G75*
G03*
X123350000Y-50000000I0J-1000000D01*
G01*
X123350000Y-64550000D02*
X123350000Y-97310000D01*
X181550000Y-64550000D02*
X181550000Y-97310000D01*
X120110000Y-157000000D02*
X66150000Y-157000000D01*
X123350000Y-119350000D02*
X123350000Y-152110000D01*
X65150000Y-156000000D02*
X65150000Y-104800000D01*
X66150000Y-103800000D02*
X119610000Y-103800000D01*
X121110000Y-116800000D02*
X123350000Y-119350000D01*
X119610000Y-103800000D02*
X121110000Y-105300000D01*
X66150000Y-103800000D02*
G75*
G03*
X65150000Y-104800000I0J-1000000D01*
G01*
X65150000Y-156000000D02*
G75*
G03*
X66150000Y-157000000I1000000J0D01*
G01*
X121110000Y-105300000D02*
X121110000Y-116800000D01*
X121110000Y-154650000D02*
X123350000Y-152110000D01*
X120110000Y-157000000D02*
G75*
G03*
X121110000Y-156000000I0J1000000D01*
G01*
X121110000Y-156000000D02*
X121110000Y-154650000D01*
X181550000Y-119350000D02*
X181550000Y-152110000D01*
X179310000Y-154650000D02*
X181550000Y-152110000D01*
X178310000Y-157000000D02*
G75*
G03*
X179310000Y-156000000I0J1000000D01*
G01*
X179310000Y-156000000D02*
X179310000Y-154650000D01*
X184600000Y-157000000D02*
X184600000Y-49000000D01*
X184600000Y-49000000D02*
X181600000Y-49000000D01*
X62150000Y-49000000D02*
X62150000Y-157000000D01*
X65150000Y-157000000D02*
X65150000Y-49000000D01*
X65150000Y-49000000D02*
X62150000Y-49000000D01*
X120110000Y-102200000D02*
X66150000Y-102200000D01*
X65150000Y-101200000D02*
X65150000Y-50000000D01*
X66150000Y-49000000D02*
X119610000Y-49000000D01*
X121110000Y-62000000D02*
X123350000Y-64550000D01*
X119610000Y-49000000D02*
X121110000Y-50500000D01*
X66150000Y-49000000D02*
G75*
G03*
X65150000Y-50000000I0J-1000000D01*
G01*
X65150000Y-101200000D02*
G75*
G03*
X66150000Y-102200000I1000000J0D01*
G01*
X121110000Y-50500000D02*
X121110000Y-62000000D01*
X121110000Y-99850000D02*
X123350000Y-97310000D01*
X120110000Y-102200000D02*
G75*
G03*
X121110000Y-101200000I0J1000000D01*
G01*
X121110000Y-101200000D02*
X121110000Y-99850000D01*
M02*
