M48
; DRILL file {KiCad (5.1.9)-1} date 11/24/21 11:51:26
; FORMAT={-:-/ absolute / metric / decimal}
; #@! TF.CreationDate,2021-11-24T11:51:26+08:00
; #@! TF.GenerationSoftware,Kicad,Pcbnew,(5.1.9)-1
; #@! TF.FileFunction,NonPlated,1,2,NPTH
FMAT,2
METRIC
T1C0.550
T2C1.650
%
G90
G05
T1
X78.92Y-47.7
X78.92Y-48.45
X78.92Y-49.2
X78.92Y-49.95
X78.92Y-50.7
X78.92Y-91.3
X78.92Y-92.05
X78.92Y-92.8
X78.92Y-93.55
X78.92Y-94.3
X81.12Y-47.7
X81.12Y-48.45
X81.12Y-49.2
X81.12Y-49.95
X81.12Y-50.7
X81.12Y-91.3
X81.12Y-92.05
X81.12Y-92.8
X81.12Y-93.55
X81.12Y-94.3
X122.92Y-47.95
X122.92Y-48.7
X122.92Y-49.45
X122.92Y-50.2
X122.92Y-50.95
X122.92Y-91.45
X122.92Y-92.2
X122.92Y-92.95
X122.92Y-93.7
X122.92Y-94.45
X125.12Y-47.95
X125.12Y-48.7
X125.12Y-49.45
X125.12Y-50.2
X125.12Y-50.95
X125.12Y-91.45
X125.12Y-92.2
X125.12Y-92.95
X125.12Y-93.7
X125.12Y-94.45
X166.92Y-47.85
X166.92Y-48.6
X166.92Y-49.35
X166.92Y-50.1
X166.92Y-50.85
X166.92Y-91.4
X166.92Y-92.15
X166.92Y-92.9
X166.92Y-93.65
X166.92Y-94.4
X169.12Y-47.85
X169.12Y-48.6
X169.12Y-49.35
X169.12Y-50.1
X169.12Y-50.85
X169.12Y-91.4
X169.12Y-92.15
X169.12Y-92.9
X169.12Y-93.65
X169.12Y-94.4
T2
X77.5Y-40.0
X77.5Y-102.0
X170.5Y-40.0
X170.5Y-102.0
T0
M30
