G04 #@! TF.GenerationSoftware,KiCad,Pcbnew,(5.1.9)-1*
G04 #@! TF.CreationDate,2021-11-24T11:51:20+08:00*
G04 #@! TF.ProjectId,RGB-ring,5247422d-7269-46e6-972e-6b696361645f,rev?*
G04 #@! TF.SameCoordinates,Original*
G04 #@! TF.FileFunction,Legend,Top*
G04 #@! TF.FilePolarity,Positive*
%FSLAX46Y46*%
G04 Gerber Fmt 4.6, Leading zero omitted, Abs format (unit mm)*
G04 Created by KiCad (PCBNEW (5.1.9)-1) date 2021-11-24 11:51:20*
%MOMM*%
%LPD*%
G01*
G04 APERTURE LIST*
%ADD10C,22.000000*%
%ADD11C,0.150000*%
%ADD12C,0.100000*%
%ADD13C,0.120000*%
G04 APERTURE END LIST*
D10*
X104000000Y-93000000D02*
G75*
G03*
X104000000Y-93000000I-2000000J0D01*
G01*
D11*
X94797954Y-105725717D02*
X94856623Y-105814575D01*
X94874053Y-105879624D01*
X94867673Y-105985912D01*
X94843864Y-106027151D01*
X94755006Y-106085821D01*
X94689957Y-106103250D01*
X94583669Y-106096871D01*
X94418711Y-106001632D01*
X94360042Y-105912774D01*
X94342612Y-105847725D01*
X94348992Y-105741437D01*
X94372802Y-105700198D01*
X94461660Y-105641529D01*
X94526709Y-105624099D01*
X94632997Y-105630479D01*
X94797954Y-105725717D01*
X94904242Y-105732097D01*
X94969291Y-105714667D01*
X95058150Y-105655998D01*
X95153388Y-105491040D01*
X95159767Y-105384752D01*
X95142338Y-105319704D01*
X95083669Y-105230845D01*
X94918711Y-105135607D01*
X94812423Y-105129227D01*
X94747374Y-105146657D01*
X94658516Y-105205326D01*
X94563278Y-105370283D01*
X94556898Y-105476572D01*
X94574328Y-105541620D01*
X94632997Y-105630479D01*
X87952380Y-93190476D02*
X87952380Y-93761904D01*
X87952380Y-93476190D02*
X86952380Y-93476190D01*
X87095238Y-93571428D01*
X87190476Y-93666666D01*
X87238095Y-93761904D01*
X86952380Y-92571428D02*
X86952380Y-92476190D01*
X87000000Y-92380952D01*
X87047619Y-92333333D01*
X87142857Y-92285714D01*
X87333333Y-92238095D01*
X87571428Y-92238095D01*
X87761904Y-92285714D01*
X87857142Y-92333333D01*
X87904761Y-92380952D01*
X87952380Y-92476190D01*
X87952380Y-92571428D01*
X87904761Y-92666666D01*
X87857142Y-92714285D01*
X87761904Y-92761904D01*
X87571428Y-92809523D01*
X87333333Y-92809523D01*
X87142857Y-92761904D01*
X87047619Y-92714285D01*
X87000000Y-92666666D01*
X86952380Y-92571428D01*
X102333333Y-108047619D02*
X101666666Y-108047619D01*
X102095238Y-107047619D01*
X116714285Y-93190476D02*
X116047619Y-93190476D01*
X117095238Y-92952380D02*
X116380952Y-92714285D01*
X116380952Y-93333333D01*
X114857585Y-85162515D02*
X115167109Y-85698626D01*
X114670528Y-85600427D01*
X114741956Y-85724145D01*
X114748336Y-85830433D01*
X114730906Y-85895482D01*
X114672237Y-85984340D01*
X114466040Y-86103388D01*
X114359752Y-86109767D01*
X114294704Y-86092338D01*
X114205845Y-86033669D01*
X114062988Y-85786233D01*
X114056608Y-85679945D01*
X114074038Y-85614896D01*
X109203754Y-79890369D02*
X109268803Y-79872939D01*
X109375091Y-79879319D01*
X109581288Y-79998367D01*
X109639957Y-80087225D01*
X109657387Y-80152274D01*
X109651007Y-80258562D01*
X109603388Y-80341040D01*
X109490720Y-80440949D01*
X108710134Y-80650106D01*
X109246245Y-80959630D01*
X109383852Y-106119490D02*
X109548809Y-106024252D01*
X109607478Y-105935393D01*
X109624908Y-105870344D01*
X109635958Y-105699007D01*
X109581959Y-105510241D01*
X109391483Y-105180326D01*
X109302625Y-105121657D01*
X109237576Y-105104227D01*
X109131288Y-105110607D01*
X108966330Y-105205845D01*
X108907661Y-105294704D01*
X108890232Y-105359752D01*
X108896611Y-105466040D01*
X109015659Y-105672237D01*
X109104517Y-105730906D01*
X109169566Y-105748336D01*
X109275854Y-105741956D01*
X109440811Y-105646718D01*
X109499481Y-105557860D01*
X109516910Y-105492811D01*
X109510531Y-105386523D01*
X114930204Y-100705006D02*
X115168299Y-100292612D01*
X114779716Y-100013278D01*
X114797145Y-100078327D01*
X114790766Y-100184615D01*
X114671718Y-100390811D01*
X114582860Y-100449481D01*
X114517811Y-100466910D01*
X114411523Y-100460531D01*
X114205326Y-100341483D01*
X114146657Y-100252625D01*
X114129227Y-100187576D01*
X114135607Y-100081288D01*
X114254655Y-99875091D01*
X114343513Y-99816422D01*
X114408562Y-99798992D01*
X89937011Y-100213766D02*
X89841773Y-100048809D01*
X89752915Y-99990140D01*
X89687866Y-99972710D01*
X89516529Y-99961660D01*
X89327762Y-100015659D01*
X88997848Y-100206135D01*
X88939178Y-100294993D01*
X88921749Y-100360042D01*
X88928128Y-100466330D01*
X89023367Y-100631288D01*
X89112225Y-100689957D01*
X89177274Y-100707387D01*
X89283562Y-100701007D01*
X89489758Y-100581959D01*
X89548427Y-100493101D01*
X89565857Y-100428052D01*
X89559478Y-100321764D01*
X89464239Y-100156807D01*
X89375381Y-100098138D01*
X89310332Y-100080708D01*
X89204044Y-100087087D01*
X89721535Y-86166147D02*
X89435821Y-86661019D01*
X89578678Y-86413583D02*
X88712652Y-85913583D01*
X88788751Y-86067490D01*
X88823611Y-86197588D01*
X88817231Y-86303876D01*
X90197725Y-85341361D02*
X89912011Y-85836233D01*
X90054868Y-85588797D02*
X89188843Y-85088797D01*
X89264942Y-85242704D01*
X89299801Y-85372802D01*
X89293421Y-85479090D01*
X94786233Y-80962011D02*
X94291361Y-81247725D01*
X94538797Y-81104868D02*
X94038797Y-80238843D01*
X94027747Y-80410180D01*
X93992887Y-80540277D01*
X93934218Y-80629136D01*
X94663766Y-79987988D02*
X94681196Y-79922939D01*
X94739865Y-79834081D01*
X94946062Y-79715033D01*
X95052350Y-79708653D01*
X95117399Y-79726083D01*
X95206257Y-79784752D01*
X95253876Y-79867231D01*
X95284065Y-80014758D01*
X95074908Y-80795344D01*
X95611019Y-80485821D01*
X102285714Y-78952380D02*
X101714285Y-78952380D01*
X102000000Y-78952380D02*
X102000000Y-77952380D01*
X101904761Y-78095238D01*
X101809523Y-78190476D01*
X101714285Y-78238095D01*
D12*
X103100000Y-89400000D02*
X100900000Y-89400000D01*
X100900000Y-88200000D02*
X103100000Y-88200000D01*
X103100000Y-89400000D02*
X103100000Y-88200000D01*
X100900000Y-89400000D02*
X100900000Y-88200000D01*
D11*
X99000000Y-90000000D02*
X99000000Y-96000000D01*
X105000000Y-96000000D02*
X99000000Y-96000000D01*
X105000000Y-90000000D02*
X105000000Y-96000000D01*
X99000000Y-90000000D02*
X105000000Y-90000000D01*
D13*
X110150000Y-107127757D02*
X112905256Y-107500000D01*
X108185103Y-108204456D02*
X109935103Y-111235544D01*
X113814897Y-108995544D02*
X112064897Y-105964456D01*
X109935103Y-111235544D02*
X113814897Y-108995544D01*
X108185103Y-108204456D02*
X112064897Y-105964456D01*
X95814897Y-77795544D02*
X91935103Y-80035544D01*
X94064897Y-74764456D02*
X90185103Y-77004456D01*
X90185103Y-77004456D02*
X91935103Y-80035544D01*
X95814897Y-77795544D02*
X94064897Y-74764456D01*
X93850000Y-78872243D02*
X91094744Y-78500000D01*
X89035544Y-82935103D02*
X86795544Y-86814897D01*
X86004456Y-81185103D02*
X83764456Y-85064897D01*
X83764456Y-85064897D02*
X86795544Y-86814897D01*
X89035544Y-82935103D02*
X86004456Y-81185103D01*
X87872243Y-84850000D02*
X85300000Y-85905256D01*
X85750000Y-90760000D02*
X85750000Y-95240000D01*
X82250000Y-90760000D02*
X82250000Y-95240000D01*
X82250000Y-95240000D02*
X85750000Y-95240000D01*
X85750000Y-90760000D02*
X82250000Y-90760000D01*
X85700000Y-93000000D02*
X84000000Y-95200000D01*
X86795544Y-99185103D02*
X89035544Y-103064897D01*
X83764456Y-100935103D02*
X86004456Y-104814897D01*
X86004456Y-104814897D02*
X89035544Y-103064897D01*
X86795544Y-99185103D02*
X83764456Y-100935103D01*
X87872243Y-101150000D02*
X87500000Y-103905256D01*
X91935103Y-105964456D02*
X95814897Y-108204456D01*
X90185103Y-108995544D02*
X94064897Y-111235544D01*
X94064897Y-111235544D02*
X95814897Y-108204456D01*
X91935103Y-105964456D02*
X90185103Y-108995544D01*
X93850000Y-107127757D02*
X94905256Y-109700000D01*
X99760000Y-109250000D02*
X104240000Y-109250000D01*
X99760000Y-112750000D02*
X104240000Y-112750000D01*
X104240000Y-112750000D02*
X104240000Y-109250000D01*
X99760000Y-109250000D02*
X99760000Y-112750000D01*
X102000000Y-109300000D02*
X104200000Y-111000000D01*
X114964456Y-103064897D02*
X117204456Y-99185103D01*
X117995544Y-104814897D02*
X120235544Y-100935103D01*
X120235544Y-100935103D02*
X117204456Y-99185103D01*
X114964456Y-103064897D02*
X117995544Y-104814897D01*
X116127757Y-101150000D02*
X118700000Y-100094744D01*
X118250000Y-95240000D02*
X118250000Y-90760000D01*
X121750000Y-95240000D02*
X121750000Y-90760000D01*
X121750000Y-90760000D02*
X118250000Y-90760000D01*
X118250000Y-95240000D02*
X121750000Y-95240000D01*
X118300000Y-93000000D02*
X120000000Y-90800000D01*
X117204456Y-86814897D02*
X114964456Y-82935103D01*
X120235544Y-85064897D02*
X117995544Y-81185103D01*
X117995544Y-81185103D02*
X114964456Y-82935103D01*
X117204456Y-86814897D02*
X120235544Y-85064897D01*
X116127757Y-84850000D02*
X116500000Y-82094744D01*
X112064897Y-80035544D02*
X108185103Y-77795544D01*
X113814897Y-77004456D02*
X109935103Y-74764456D01*
X109935103Y-74764456D02*
X108185103Y-77795544D01*
X112064897Y-80035544D02*
X113814897Y-77004456D01*
X110150000Y-78872243D02*
X109094744Y-76300000D01*
X104240000Y-76750000D02*
X99760000Y-76750000D01*
X104240000Y-73250000D02*
X99760000Y-73250000D01*
X99760000Y-73250000D02*
X99760000Y-76750000D01*
X104240000Y-76750000D02*
X104240000Y-73250000D01*
X102000000Y-76700000D02*
X99800000Y-75000000D01*
D11*
X111270000Y-96810000D02*
X108730000Y-96810000D01*
X111270000Y-89190000D02*
X111270000Y-96810000D01*
X111270000Y-89190000D02*
X108730000Y-89190000D01*
X108730000Y-89190000D02*
X108730000Y-96810000D01*
X95270000Y-96810000D02*
X92730000Y-96810000D01*
X95270000Y-89190000D02*
X95270000Y-96810000D01*
X95270000Y-89190000D02*
X92730000Y-89190000D01*
X92730000Y-89190000D02*
X92730000Y-96810000D01*
M02*
