G04 #@! TF.GenerationSoftware,KiCad,Pcbnew,(5.1.9)-1*
G04 #@! TF.CreationDate,2021-11-24T11:51:20+08:00*
G04 #@! TF.ProjectId,RGB-ring,5247422d-7269-46e6-972e-6b696361645f,rev?*
G04 #@! TF.SameCoordinates,Original*
G04 #@! TF.FileFunction,Copper,L1,Top*
G04 #@! TF.FilePolarity,Positive*
%FSLAX46Y46*%
G04 Gerber Fmt 4.6, Leading zero omitted, Abs format (unit mm)*
G04 Created by KiCad (PCBNEW (5.1.9)-1) date 2021-11-24 11:51:20*
%MOMM*%
%LPD*%
G01*
G04 APERTURE LIST*
G04 #@! TA.AperFunction,SMDPad,CuDef*
%ADD10R,0.500000X0.900000*%
G04 #@! TD*
G04 #@! TA.AperFunction,ComponentPad*
%ADD11C,5.000000*%
G04 #@! TD*
G04 #@! TA.AperFunction,SMDPad,CuDef*
%ADD12R,1.800000X1.400000*%
G04 #@! TD*
G04 #@! TA.AperFunction,ComponentPad*
%ADD13C,2.000000*%
G04 #@! TD*
G04 #@! TA.AperFunction,SMDPad,CuDef*
%ADD14C,0.200000*%
G04 #@! TD*
G04 #@! TA.AperFunction,SMDPad,CuDef*
%ADD15R,2.100000X1.100000*%
G04 #@! TD*
G04 #@! TA.AperFunction,SMDPad,CuDef*
%ADD16R,1.300000X1.100000*%
G04 #@! TD*
G04 #@! TA.AperFunction,SMDPad,CuDef*
%ADD17R,1.600000X0.900000*%
G04 #@! TD*
G04 #@! TA.AperFunction,SMDPad,CuDef*
%ADD18R,2.000000X0.900000*%
G04 #@! TD*
G04 #@! TA.AperFunction,SMDPad,CuDef*
%ADD19R,1.100000X2.100000*%
G04 #@! TD*
G04 #@! TA.AperFunction,SMDPad,CuDef*
%ADD20R,1.100000X1.300000*%
G04 #@! TD*
G04 #@! TA.AperFunction,SMDPad,CuDef*
%ADD21R,0.900000X1.600000*%
G04 #@! TD*
G04 #@! TA.AperFunction,SMDPad,CuDef*
%ADD22R,0.900000X2.000000*%
G04 #@! TD*
G04 #@! TA.AperFunction,ComponentPad*
%ADD23C,1.400000*%
G04 #@! TD*
G04 #@! TA.AperFunction,ComponentPad*
%ADD24R,1.400000X1.400000*%
G04 #@! TD*
G04 #@! TA.AperFunction,ViaPad*
%ADD25C,0.600000*%
G04 #@! TD*
G04 #@! TA.AperFunction,Conductor*
%ADD26C,0.500000*%
G04 #@! TD*
G04 #@! TA.AperFunction,Conductor*
%ADD27C,0.300000*%
G04 #@! TD*
G04 #@! TA.AperFunction,Conductor*
%ADD28C,0.200000*%
G04 #@! TD*
G04 APERTURE END LIST*
D10*
X101250000Y-88800000D03*
X102750000Y-88800000D03*
D11*
X102000000Y-85000000D03*
X102000000Y-101000000D03*
D12*
X106100000Y-95250000D03*
X97900000Y-95250000D03*
X106100000Y-90750000D03*
X97900000Y-90750000D03*
D13*
X170500000Y-110000000D03*
X170500000Y-32000000D03*
X77500000Y-32000000D03*
X77500000Y-110000000D03*
G04 #@! TA.AperFunction,SMDPad,CuDef*
D14*
G36*
X108483738Y-107581705D02*
G01*
X109436366Y-107031705D01*
X110486366Y-108850359D01*
X109533738Y-109400359D01*
X108483738Y-107581705D01*
G37*
G04 #@! TD.AperFunction*
G04 #@! TA.AperFunction,SMDPad,CuDef*
G36*
X113481621Y-109638294D02*
G01*
X112702199Y-110088294D01*
X111702199Y-108356244D01*
X112481621Y-107906244D01*
X113481621Y-109638294D01*
G37*
G04 #@! TD.AperFunction*
G04 #@! TA.AperFunction,SMDPad,CuDef*
G36*
X112150281Y-107312346D02*
G01*
X111370859Y-107762346D01*
X110570859Y-106376706D01*
X111350281Y-105926706D01*
X112150281Y-107312346D01*
G37*
G04 #@! TD.AperFunction*
G04 #@! TA.AperFunction,SMDPad,CuDef*
G36*
X109973738Y-110162461D02*
G01*
X110926366Y-109612461D01*
X111576366Y-110738295D01*
X110623738Y-111288295D01*
X109973738Y-110162461D01*
G37*
G04 #@! TD.AperFunction*
G04 #@! TA.AperFunction,SMDPad,CuDef*
G36*
X95516262Y-78418295D02*
G01*
X94563634Y-78968295D01*
X93513634Y-77149641D01*
X94466262Y-76599641D01*
X95516262Y-78418295D01*
G37*
G04 #@! TD.AperFunction*
G04 #@! TA.AperFunction,SMDPad,CuDef*
G36*
X94026262Y-75837539D02*
G01*
X93073634Y-76387539D01*
X92423634Y-75261705D01*
X93376262Y-74711705D01*
X94026262Y-75837539D01*
G37*
G04 #@! TD.AperFunction*
G04 #@! TA.AperFunction,SMDPad,CuDef*
G36*
X91849719Y-78687654D02*
G01*
X92629141Y-78237654D01*
X93429141Y-79623294D01*
X92649719Y-80073294D01*
X91849719Y-78687654D01*
G37*
G04 #@! TD.AperFunction*
G04 #@! TA.AperFunction,SMDPad,CuDef*
G36*
X90518379Y-76361706D02*
G01*
X91297801Y-75911706D01*
X92297801Y-77643756D01*
X91518379Y-78093756D01*
X90518379Y-76361706D01*
G37*
G04 #@! TD.AperFunction*
G04 #@! TA.AperFunction,SMDPad,CuDef*
G36*
X89088295Y-83623738D02*
G01*
X88538295Y-84576366D01*
X86719641Y-83526366D01*
X87269641Y-82573738D01*
X89088295Y-83623738D01*
G37*
G04 #@! TD.AperFunction*
G04 #@! TA.AperFunction,SMDPad,CuDef*
G36*
X86507539Y-82133738D02*
G01*
X85957539Y-83086366D01*
X84831705Y-82436366D01*
X85381705Y-81483738D01*
X86507539Y-82133738D01*
G37*
G04 #@! TD.AperFunction*
G04 #@! TA.AperFunction,SMDPad,CuDef*
G36*
X86047654Y-85690281D02*
G01*
X86497654Y-84910859D01*
X87883294Y-85710859D01*
X87433294Y-86490281D01*
X86047654Y-85690281D01*
G37*
G04 #@! TD.AperFunction*
G04 #@! TA.AperFunction,SMDPad,CuDef*
G36*
X83731706Y-84341621D02*
G01*
X84181706Y-83562199D01*
X85913756Y-84562199D01*
X85463756Y-85341621D01*
X83731706Y-84341621D01*
G37*
G04 #@! TD.AperFunction*
D15*
X85090000Y-91880000D03*
D16*
X82510000Y-91880000D03*
D17*
X85340000Y-94190000D03*
D18*
X82860000Y-94180000D03*
G04 #@! TA.AperFunction,SMDPad,CuDef*
D14*
G36*
X87418295Y-99483738D02*
G01*
X87968295Y-100436366D01*
X86149641Y-101486366D01*
X85599641Y-100533738D01*
X87418295Y-99483738D01*
G37*
G04 #@! TD.AperFunction*
G04 #@! TA.AperFunction,SMDPad,CuDef*
G36*
X84837539Y-100973738D02*
G01*
X85387539Y-101926366D01*
X84261705Y-102576366D01*
X83711705Y-101623738D01*
X84837539Y-100973738D01*
G37*
G04 #@! TD.AperFunction*
G04 #@! TA.AperFunction,SMDPad,CuDef*
G36*
X87687654Y-103150281D02*
G01*
X87237654Y-102370859D01*
X88623294Y-101570859D01*
X89073294Y-102350281D01*
X87687654Y-103150281D01*
G37*
G04 #@! TD.AperFunction*
G04 #@! TA.AperFunction,SMDPad,CuDef*
G36*
X85361706Y-104481621D02*
G01*
X84911706Y-103702199D01*
X86643756Y-102702199D01*
X87093756Y-103481621D01*
X85361706Y-104481621D01*
G37*
G04 #@! TD.AperFunction*
G04 #@! TA.AperFunction,SMDPad,CuDef*
G36*
X92623738Y-105911705D02*
G01*
X93576366Y-106461705D01*
X92526366Y-108280359D01*
X91573738Y-107730359D01*
X92623738Y-105911705D01*
G37*
G04 #@! TD.AperFunction*
G04 #@! TA.AperFunction,SMDPad,CuDef*
G36*
X91133738Y-108492461D02*
G01*
X92086366Y-109042461D01*
X91436366Y-110168295D01*
X90483738Y-109618295D01*
X91133738Y-108492461D01*
G37*
G04 #@! TD.AperFunction*
G04 #@! TA.AperFunction,SMDPad,CuDef*
G36*
X94690281Y-108952346D02*
G01*
X93910859Y-108502346D01*
X94710859Y-107116706D01*
X95490281Y-107566706D01*
X94690281Y-108952346D01*
G37*
G04 #@! TD.AperFunction*
G04 #@! TA.AperFunction,SMDPad,CuDef*
G36*
X93341621Y-111268294D02*
G01*
X92562199Y-110818294D01*
X93562199Y-109086244D01*
X94341621Y-109536244D01*
X93341621Y-111268294D01*
G37*
G04 #@! TD.AperFunction*
D19*
X100880000Y-109910000D03*
D20*
X100880000Y-112490000D03*
D21*
X103190000Y-109660000D03*
D22*
X103180000Y-112140000D03*
G04 #@! TA.AperFunction,SMDPad,CuDef*
D14*
G36*
X114911705Y-102376262D02*
G01*
X115461705Y-101423634D01*
X117280359Y-102473634D01*
X116730359Y-103426262D01*
X114911705Y-102376262D01*
G37*
G04 #@! TD.AperFunction*
G04 #@! TA.AperFunction,SMDPad,CuDef*
G36*
X117492461Y-103866262D02*
G01*
X118042461Y-102913634D01*
X119168295Y-103563634D01*
X118618295Y-104516262D01*
X117492461Y-103866262D01*
G37*
G04 #@! TD.AperFunction*
G04 #@! TA.AperFunction,SMDPad,CuDef*
G36*
X117952346Y-100309719D02*
G01*
X117502346Y-101089141D01*
X116116706Y-100289141D01*
X116566706Y-99509719D01*
X117952346Y-100309719D01*
G37*
G04 #@! TD.AperFunction*
G04 #@! TA.AperFunction,SMDPad,CuDef*
G36*
X120268294Y-101658379D02*
G01*
X119818294Y-102437801D01*
X118086244Y-101437801D01*
X118536244Y-100658379D01*
X120268294Y-101658379D01*
G37*
G04 #@! TD.AperFunction*
D15*
X118910000Y-94120000D03*
D16*
X121490000Y-94120000D03*
D17*
X118660000Y-91810000D03*
D18*
X121140000Y-91820000D03*
G04 #@! TA.AperFunction,SMDPad,CuDef*
D14*
G36*
X116581705Y-86516262D02*
G01*
X116031705Y-85563634D01*
X117850359Y-84513634D01*
X118400359Y-85466262D01*
X116581705Y-86516262D01*
G37*
G04 #@! TD.AperFunction*
G04 #@! TA.AperFunction,SMDPad,CuDef*
G36*
X119162461Y-85026262D02*
G01*
X118612461Y-84073634D01*
X119738295Y-83423634D01*
X120288295Y-84376262D01*
X119162461Y-85026262D01*
G37*
G04 #@! TD.AperFunction*
G04 #@! TA.AperFunction,SMDPad,CuDef*
G36*
X116312346Y-82849719D02*
G01*
X116762346Y-83629141D01*
X115376706Y-84429141D01*
X114926706Y-83649719D01*
X116312346Y-82849719D01*
G37*
G04 #@! TD.AperFunction*
G04 #@! TA.AperFunction,SMDPad,CuDef*
G36*
X118638294Y-81518379D02*
G01*
X119088294Y-82297801D01*
X117356244Y-83297801D01*
X116906244Y-82518379D01*
X118638294Y-81518379D01*
G37*
G04 #@! TD.AperFunction*
G04 #@! TA.AperFunction,SMDPad,CuDef*
G36*
X111376262Y-80088295D02*
G01*
X110423634Y-79538295D01*
X111473634Y-77719641D01*
X112426262Y-78269641D01*
X111376262Y-80088295D01*
G37*
G04 #@! TD.AperFunction*
G04 #@! TA.AperFunction,SMDPad,CuDef*
G36*
X112866262Y-77507539D02*
G01*
X111913634Y-76957539D01*
X112563634Y-75831705D01*
X113516262Y-76381705D01*
X112866262Y-77507539D01*
G37*
G04 #@! TD.AperFunction*
G04 #@! TA.AperFunction,SMDPad,CuDef*
G36*
X109309719Y-77047654D02*
G01*
X110089141Y-77497654D01*
X109289141Y-78883294D01*
X108509719Y-78433294D01*
X109309719Y-77047654D01*
G37*
G04 #@! TD.AperFunction*
G04 #@! TA.AperFunction,SMDPad,CuDef*
G36*
X110658379Y-74731706D02*
G01*
X111437801Y-75181706D01*
X110437801Y-76913756D01*
X109658379Y-76463756D01*
X110658379Y-74731706D01*
G37*
G04 #@! TD.AperFunction*
D19*
X103120000Y-76090000D03*
D20*
X103120000Y-73510000D03*
D21*
X100810000Y-76340000D03*
D22*
X100820000Y-73860000D03*
D23*
X110000000Y-95540000D03*
X110000000Y-93000000D03*
D24*
X110000000Y-90460000D03*
D23*
X94000000Y-95540000D03*
X94000000Y-93000000D03*
D24*
X94000000Y-90460000D03*
D25*
X97400000Y-75500000D03*
X107600000Y-74550000D03*
X105700000Y-109500000D03*
X105000000Y-112300000D03*
X120200000Y-99850000D03*
X114900000Y-108200000D03*
X94900000Y-111300000D03*
X88500000Y-105700000D03*
X83550000Y-85900000D03*
X83200000Y-96500000D03*
X88900000Y-78700000D03*
X115800000Y-79900000D03*
X116600000Y-89600000D03*
X121200000Y-89200000D03*
X105650000Y-76600000D03*
X118900000Y-96200000D03*
X103150000Y-79850000D03*
X103500000Y-93000000D03*
X100850000Y-105600000D03*
X106100000Y-99150000D03*
X99100000Y-78050000D03*
D26*
X95283601Y-78552621D02*
X94514948Y-77783968D01*
X96580980Y-79850000D02*
X95283601Y-78552621D01*
X111424948Y-78903968D02*
X110478916Y-79850000D01*
X110478916Y-79850000D02*
X106250000Y-79850000D01*
X103120000Y-79370000D02*
X103120000Y-76090000D01*
X106250000Y-79850000D02*
X103600000Y-79850000D01*
X103600000Y-79850000D02*
X103120000Y-79370000D01*
X102100000Y-79850000D02*
X102640000Y-79850000D01*
X102640000Y-79850000D02*
X103120000Y-79370000D01*
X102100000Y-79850000D02*
X96580980Y-79850000D01*
X96580980Y-79850000D02*
X94514948Y-77783968D01*
X94071084Y-105600000D02*
X92575052Y-107096032D01*
X109485052Y-108216032D02*
X109485052Y-107885052D01*
X109485052Y-107885052D02*
X107200000Y-105600000D01*
X107200000Y-105600000D02*
X104000000Y-105600000D01*
X100880000Y-106270000D02*
X100880000Y-109910000D01*
X99750000Y-105600000D02*
X94071084Y-105600000D01*
X100880000Y-106120000D02*
X100880000Y-106270000D01*
X104000000Y-105600000D02*
X101400000Y-105600000D01*
X101400000Y-105600000D02*
X100880000Y-106120000D01*
X100880000Y-106130000D02*
X100880000Y-106270000D01*
X99750000Y-105600000D02*
X100350000Y-105600000D01*
X100350000Y-105600000D02*
X100880000Y-106130000D01*
X114600000Y-100928916D02*
X116096032Y-102424948D01*
X117216032Y-85514948D02*
X114600000Y-88130980D01*
X115230000Y-94120000D02*
X118910000Y-94120000D01*
X115180000Y-94120000D02*
X115230000Y-94120000D01*
X114600000Y-96500000D02*
X114600000Y-94700000D01*
X114600000Y-94700000D02*
X115180000Y-94120000D01*
X115120000Y-94120000D02*
X115230000Y-94120000D01*
X114600000Y-92750000D02*
X114600000Y-93600000D01*
X114600000Y-93600000D02*
X115120000Y-94120000D01*
X89400000Y-85071084D02*
X87903968Y-83575052D01*
X86783968Y-100485052D02*
X87064948Y-100485052D01*
X87064948Y-100485052D02*
X89400000Y-98150000D01*
X88830000Y-91880000D02*
X85090000Y-91880000D01*
X89400000Y-94400000D02*
X89400000Y-92450000D01*
X89400000Y-92450000D02*
X88830000Y-91880000D01*
X89400000Y-91310000D02*
X88830000Y-91880000D01*
X89400000Y-90800000D02*
X89400000Y-91310000D01*
X89400000Y-94400000D02*
X89400000Y-90800000D01*
X89400000Y-90800000D02*
X89400000Y-85071084D01*
X89400000Y-98150000D02*
X89400000Y-94900000D01*
X89400000Y-94900000D02*
X89400000Y-94400000D01*
X90000000Y-93000000D02*
X94000000Y-93000000D01*
X89400000Y-94900000D02*
X89400000Y-93600000D01*
X89400000Y-93600000D02*
X90000000Y-93000000D01*
X89450000Y-92450000D02*
X90000000Y-93000000D01*
X89400000Y-92450000D02*
X89450000Y-92450000D01*
X114600000Y-92750000D02*
X114600000Y-94150000D01*
X114600000Y-94150000D02*
X114600000Y-96500000D01*
X114600000Y-96500000D02*
X114600000Y-100300000D01*
X114600000Y-100300000D02*
X114600000Y-100928916D01*
X100850000Y-105600000D02*
X99750000Y-105600000D01*
X104000000Y-105600000D02*
X100900000Y-105600000D01*
X103100000Y-79850000D02*
X103150000Y-79850000D01*
X103150000Y-79850000D02*
X102100000Y-79850000D01*
X106250000Y-79850000D02*
X103100000Y-79850000D01*
X110000000Y-93000000D02*
X103500000Y-93000000D01*
X114000000Y-93000000D02*
X110000000Y-93000000D01*
X114600000Y-94150000D02*
X114600000Y-93600000D01*
X114600000Y-93600000D02*
X114000000Y-93000000D01*
X114600000Y-92400000D02*
X114000000Y-93000000D01*
X114600000Y-88130980D02*
X114600000Y-91700000D01*
X114600000Y-91700000D02*
X114600000Y-92400000D01*
X114600000Y-91700000D02*
X114600000Y-92750000D01*
X100900000Y-105600000D02*
X100850000Y-105600000D01*
X102750000Y-92250000D02*
X103500000Y-93000000D01*
X102750000Y-92250000D02*
X102750000Y-88800000D01*
X106100000Y-99150000D02*
X106100000Y-95250000D01*
X101250000Y-94650000D02*
X101250000Y-88700000D01*
X106100000Y-95250000D02*
X101850000Y-95250000D01*
X101850000Y-95250000D02*
X101250000Y-94650000D01*
X99900000Y-95250000D02*
X100650000Y-95250000D01*
X100650000Y-95250000D02*
X101250000Y-94650000D01*
X97900000Y-95250000D02*
X99900000Y-95250000D01*
X99900000Y-95250000D02*
X106100000Y-95250000D01*
X99760000Y-76340000D02*
X100810000Y-76340000D01*
X99100000Y-78050000D02*
X99100000Y-77000000D01*
X99100000Y-77000000D02*
X99760000Y-76340000D01*
X108779816Y-77965474D02*
X109299430Y-77965474D01*
X108625474Y-77965474D02*
X108779816Y-77965474D01*
X104170000Y-73510000D02*
X108625474Y-77965474D01*
X103120000Y-73510000D02*
X104170000Y-73510000D01*
X115844526Y-83639430D02*
X113900000Y-81694904D01*
X113900000Y-77854674D02*
X112714948Y-76669622D01*
X113900000Y-81694904D02*
X113900000Y-77854674D01*
X121490000Y-95843956D02*
X121490000Y-94120000D01*
X117034526Y-100299430D02*
X121490000Y-95843956D01*
X115200800Y-106844526D02*
X118330378Y-103714948D01*
X111360570Y-106844526D02*
X115200800Y-106844526D01*
X103775378Y-110450378D02*
X110139967Y-110450378D01*
X103190000Y-109660000D02*
X103190000Y-109865000D01*
X110139967Y-110450378D02*
X110775052Y-110450378D01*
X103190000Y-109865000D02*
X103775378Y-110450378D01*
X84549622Y-94980378D02*
X84549622Y-101775052D01*
X85340000Y-94190000D02*
X84549622Y-94980378D01*
X82510000Y-90156044D02*
X86965474Y-85700570D01*
X82510000Y-91880000D02*
X82510000Y-90156044D01*
X118660000Y-91810000D02*
X119450378Y-91019622D01*
X119450378Y-84860033D02*
X119450378Y-84224948D01*
X119450378Y-91019622D02*
X119450378Y-84860033D01*
X99156044Y-112490000D02*
X100880000Y-112490000D01*
X94700570Y-108034526D02*
X99156044Y-112490000D01*
X90200000Y-108245326D02*
X91285052Y-109330378D01*
X90200000Y-104400000D02*
X90200000Y-108245326D01*
X88155474Y-102360570D02*
X88160570Y-102360570D01*
X88160570Y-102360570D02*
X90200000Y-104400000D01*
X92639430Y-79160570D02*
X92639430Y-79155474D01*
X90500000Y-81300000D02*
X92639430Y-79160570D01*
X85669622Y-82285052D02*
X86654674Y-81300000D01*
X86654674Y-81300000D02*
X90500000Y-81300000D01*
D27*
X108054558Y-107444508D02*
X108046969Y-107464673D01*
X108032529Y-107552131D01*
X108035429Y-107640726D01*
X108055558Y-107727052D01*
X108092141Y-107807793D01*
X109142141Y-109626447D01*
X109193773Y-109698500D01*
X109249163Y-109750378D01*
X104092177Y-109750378D01*
X104092177Y-108860000D01*
X104083489Y-108771785D01*
X104057757Y-108686959D01*
X104015971Y-108608784D01*
X103959737Y-108540263D01*
X103891216Y-108484029D01*
X103813041Y-108442243D01*
X103728215Y-108416511D01*
X103640000Y-108407823D01*
X102740000Y-108407823D01*
X102651785Y-108416511D01*
X102566959Y-108442243D01*
X102488784Y-108484029D01*
X102420263Y-108540263D01*
X102364029Y-108608784D01*
X102322243Y-108686959D01*
X102296511Y-108771785D01*
X102287823Y-108860000D01*
X102287823Y-110460000D01*
X102296511Y-110548215D01*
X102322243Y-110633041D01*
X102364029Y-110711216D01*
X102372672Y-110721748D01*
X102339210Y-110749210D01*
X102270479Y-110832958D01*
X102219408Y-110928506D01*
X102187958Y-111032181D01*
X102177339Y-111140000D01*
X102180000Y-111902500D01*
X102317500Y-112040000D01*
X103080000Y-112040000D01*
X103080000Y-112020000D01*
X103280000Y-112020000D01*
X103280000Y-112040000D01*
X104042500Y-112040000D01*
X104180000Y-111902500D01*
X104182625Y-111150378D01*
X110021983Y-111150378D01*
X110232141Y-111514383D01*
X110283773Y-111586436D01*
X110348470Y-111647031D01*
X110376200Y-111664274D01*
X109835443Y-111916433D01*
X108156951Y-112527355D01*
X106431601Y-112989661D01*
X104672524Y-113299834D01*
X104142188Y-113346232D01*
X104172042Y-113247819D01*
X104182661Y-113140000D01*
X104180000Y-112377500D01*
X104042500Y-112240000D01*
X103280000Y-112240000D01*
X103280000Y-112260000D01*
X103080000Y-112260000D01*
X103080000Y-112240000D01*
X102317500Y-112240000D01*
X102180000Y-112377500D01*
X102177339Y-113140000D01*
X102187958Y-113247819D01*
X102219408Y-113351494D01*
X102270479Y-113447042D01*
X102277430Y-113455512D01*
X101753204Y-113455512D01*
X101805971Y-113391216D01*
X101847757Y-113313041D01*
X101873489Y-113228215D01*
X101882177Y-113140000D01*
X101882177Y-111840000D01*
X101873489Y-111751785D01*
X101847757Y-111666959D01*
X101805971Y-111588784D01*
X101749737Y-111520263D01*
X101681216Y-111464029D01*
X101603041Y-111422243D01*
X101529717Y-111400000D01*
X101603041Y-111377757D01*
X101681216Y-111335971D01*
X101749737Y-111279737D01*
X101805971Y-111211216D01*
X101847757Y-111133041D01*
X101873489Y-111048215D01*
X101882177Y-110960000D01*
X101882177Y-108860000D01*
X101873489Y-108771785D01*
X101847757Y-108686959D01*
X101805971Y-108608784D01*
X101749737Y-108540263D01*
X101681216Y-108484029D01*
X101603041Y-108442243D01*
X101580000Y-108435254D01*
X101580000Y-106409949D01*
X101689950Y-106300000D01*
X106910051Y-106300000D01*
X108054558Y-107444508D01*
G04 #@! TA.AperFunction,Conductor*
D28*
G36*
X108054558Y-107444508D02*
G01*
X108046969Y-107464673D01*
X108032529Y-107552131D01*
X108035429Y-107640726D01*
X108055558Y-107727052D01*
X108092141Y-107807793D01*
X109142141Y-109626447D01*
X109193773Y-109698500D01*
X109249163Y-109750378D01*
X104092177Y-109750378D01*
X104092177Y-108860000D01*
X104083489Y-108771785D01*
X104057757Y-108686959D01*
X104015971Y-108608784D01*
X103959737Y-108540263D01*
X103891216Y-108484029D01*
X103813041Y-108442243D01*
X103728215Y-108416511D01*
X103640000Y-108407823D01*
X102740000Y-108407823D01*
X102651785Y-108416511D01*
X102566959Y-108442243D01*
X102488784Y-108484029D01*
X102420263Y-108540263D01*
X102364029Y-108608784D01*
X102322243Y-108686959D01*
X102296511Y-108771785D01*
X102287823Y-108860000D01*
X102287823Y-110460000D01*
X102296511Y-110548215D01*
X102322243Y-110633041D01*
X102364029Y-110711216D01*
X102372672Y-110721748D01*
X102339210Y-110749210D01*
X102270479Y-110832958D01*
X102219408Y-110928506D01*
X102187958Y-111032181D01*
X102177339Y-111140000D01*
X102180000Y-111902500D01*
X102317500Y-112040000D01*
X103080000Y-112040000D01*
X103080000Y-112020000D01*
X103280000Y-112020000D01*
X103280000Y-112040000D01*
X104042500Y-112040000D01*
X104180000Y-111902500D01*
X104182625Y-111150378D01*
X110021983Y-111150378D01*
X110232141Y-111514383D01*
X110283773Y-111586436D01*
X110348470Y-111647031D01*
X110376200Y-111664274D01*
X109835443Y-111916433D01*
X108156951Y-112527355D01*
X106431601Y-112989661D01*
X104672524Y-113299834D01*
X104142188Y-113346232D01*
X104172042Y-113247819D01*
X104182661Y-113140000D01*
X104180000Y-112377500D01*
X104042500Y-112240000D01*
X103280000Y-112240000D01*
X103280000Y-112260000D01*
X103080000Y-112260000D01*
X103080000Y-112240000D01*
X102317500Y-112240000D01*
X102180000Y-112377500D01*
X102177339Y-113140000D01*
X102187958Y-113247819D01*
X102219408Y-113351494D01*
X102270479Y-113447042D01*
X102277430Y-113455512D01*
X101753204Y-113455512D01*
X101805971Y-113391216D01*
X101847757Y-113313041D01*
X101873489Y-113228215D01*
X101882177Y-113140000D01*
X101882177Y-111840000D01*
X101873489Y-111751785D01*
X101847757Y-111666959D01*
X101805971Y-111588784D01*
X101749737Y-111520263D01*
X101681216Y-111464029D01*
X101603041Y-111422243D01*
X101529717Y-111400000D01*
X101603041Y-111377757D01*
X101681216Y-111335971D01*
X101749737Y-111279737D01*
X101805971Y-111211216D01*
X101847757Y-111133041D01*
X101873489Y-111048215D01*
X101882177Y-110960000D01*
X101882177Y-108860000D01*
X101873489Y-108771785D01*
X101847757Y-108686959D01*
X101805971Y-108608784D01*
X101749737Y-108540263D01*
X101681216Y-108484029D01*
X101603041Y-108442243D01*
X101580000Y-108435254D01*
X101580000Y-106409949D01*
X101689950Y-106300000D01*
X106910051Y-106300000D01*
X108054558Y-107444508D01*
G37*
G04 #@! TD.AperFunction*
D27*
X100180000Y-106419950D02*
X100180001Y-108435253D01*
X100156959Y-108442243D01*
X100078784Y-108484029D01*
X100010263Y-108540263D01*
X99954029Y-108608784D01*
X99912243Y-108686959D01*
X99886511Y-108771785D01*
X99877823Y-108860000D01*
X99877823Y-110960000D01*
X99886511Y-111048215D01*
X99912243Y-111133041D01*
X99954029Y-111211216D01*
X100010263Y-111279737D01*
X100078784Y-111335971D01*
X100156959Y-111377757D01*
X100230283Y-111400000D01*
X100156959Y-111422243D01*
X100078784Y-111464029D01*
X100010263Y-111520263D01*
X99954029Y-111588784D01*
X99912243Y-111666959D01*
X99886511Y-111751785D01*
X99882747Y-111790000D01*
X99445994Y-111790000D01*
X95723356Y-108067363D01*
X95881878Y-107792795D01*
X95918461Y-107712054D01*
X95938590Y-107625727D01*
X95941490Y-107537132D01*
X95927050Y-107449674D01*
X95895826Y-107366713D01*
X95849017Y-107291438D01*
X95788422Y-107226741D01*
X95716370Y-107175109D01*
X94936948Y-106725109D01*
X94856207Y-106688526D01*
X94769880Y-106668397D01*
X94681285Y-106665497D01*
X94593827Y-106679937D01*
X94510866Y-106711161D01*
X94435591Y-106757970D01*
X94370894Y-106818565D01*
X94319262Y-106890617D01*
X93519262Y-108276257D01*
X93482679Y-108356998D01*
X93462550Y-108443325D01*
X93459650Y-108531920D01*
X93461870Y-108545363D01*
X93419160Y-108552415D01*
X93317763Y-108590577D01*
X93225760Y-108647788D01*
X93146686Y-108721849D01*
X93083580Y-108809913D01*
X92704635Y-109471588D01*
X92754963Y-109659416D01*
X93415307Y-110040666D01*
X93425307Y-110023346D01*
X93598513Y-110123346D01*
X93588513Y-110140666D01*
X94248857Y-110521916D01*
X94436685Y-110471588D01*
X94820240Y-109812574D01*
X94864953Y-109713891D01*
X94889554Y-109608380D01*
X94893099Y-109500098D01*
X94875450Y-109393205D01*
X94865648Y-109367160D01*
X94890274Y-109357891D01*
X94965549Y-109311082D01*
X94976717Y-109300622D01*
X98636753Y-112960659D01*
X98658674Y-112987370D01*
X98765263Y-113074845D01*
X98886869Y-113139845D01*
X99018820Y-113179872D01*
X99121654Y-113190000D01*
X99121657Y-113190000D01*
X99156044Y-113193387D01*
X99190431Y-113190000D01*
X99882747Y-113190000D01*
X99886511Y-113228215D01*
X99912243Y-113313041D01*
X99933525Y-113352856D01*
X99327476Y-113299834D01*
X97568399Y-112989661D01*
X95843049Y-112527355D01*
X94164557Y-111916433D01*
X93690302Y-111695284D01*
X93757134Y-111632689D01*
X93820240Y-111544625D01*
X94199185Y-110882950D01*
X94148857Y-110695122D01*
X93488513Y-110313872D01*
X93478513Y-110331192D01*
X93305307Y-110231192D01*
X93315307Y-110213872D01*
X92654963Y-109832622D01*
X92467135Y-109882950D01*
X92083580Y-110541964D01*
X92038867Y-110640647D01*
X92014266Y-110746158D01*
X92010778Y-110852711D01*
X91570616Y-110598584D01*
X91636359Y-110573840D01*
X91711634Y-110527031D01*
X91776331Y-110466436D01*
X91827963Y-110394383D01*
X92477963Y-109268549D01*
X92514546Y-109187809D01*
X92534675Y-109101482D01*
X92537575Y-109012887D01*
X92523135Y-108925429D01*
X92491911Y-108842468D01*
X92445102Y-108767193D01*
X92392723Y-108711268D01*
X92467345Y-108728668D01*
X92555940Y-108731568D01*
X92643398Y-108717128D01*
X92726359Y-108685904D01*
X92801634Y-108639095D01*
X92866331Y-108578500D01*
X92917963Y-108506447D01*
X93960754Y-106700280D01*
X94361034Y-106300000D01*
X100060051Y-106300000D01*
X100180000Y-106419950D01*
G04 #@! TA.AperFunction,Conductor*
D28*
G36*
X100180000Y-106419950D02*
G01*
X100180001Y-108435253D01*
X100156959Y-108442243D01*
X100078784Y-108484029D01*
X100010263Y-108540263D01*
X99954029Y-108608784D01*
X99912243Y-108686959D01*
X99886511Y-108771785D01*
X99877823Y-108860000D01*
X99877823Y-110960000D01*
X99886511Y-111048215D01*
X99912243Y-111133041D01*
X99954029Y-111211216D01*
X100010263Y-111279737D01*
X100078784Y-111335971D01*
X100156959Y-111377757D01*
X100230283Y-111400000D01*
X100156959Y-111422243D01*
X100078784Y-111464029D01*
X100010263Y-111520263D01*
X99954029Y-111588784D01*
X99912243Y-111666959D01*
X99886511Y-111751785D01*
X99882747Y-111790000D01*
X99445994Y-111790000D01*
X95723356Y-108067363D01*
X95881878Y-107792795D01*
X95918461Y-107712054D01*
X95938590Y-107625727D01*
X95941490Y-107537132D01*
X95927050Y-107449674D01*
X95895826Y-107366713D01*
X95849017Y-107291438D01*
X95788422Y-107226741D01*
X95716370Y-107175109D01*
X94936948Y-106725109D01*
X94856207Y-106688526D01*
X94769880Y-106668397D01*
X94681285Y-106665497D01*
X94593827Y-106679937D01*
X94510866Y-106711161D01*
X94435591Y-106757970D01*
X94370894Y-106818565D01*
X94319262Y-106890617D01*
X93519262Y-108276257D01*
X93482679Y-108356998D01*
X93462550Y-108443325D01*
X93459650Y-108531920D01*
X93461870Y-108545363D01*
X93419160Y-108552415D01*
X93317763Y-108590577D01*
X93225760Y-108647788D01*
X93146686Y-108721849D01*
X93083580Y-108809913D01*
X92704635Y-109471588D01*
X92754963Y-109659416D01*
X93415307Y-110040666D01*
X93425307Y-110023346D01*
X93598513Y-110123346D01*
X93588513Y-110140666D01*
X94248857Y-110521916D01*
X94436685Y-110471588D01*
X94820240Y-109812574D01*
X94864953Y-109713891D01*
X94889554Y-109608380D01*
X94893099Y-109500098D01*
X94875450Y-109393205D01*
X94865648Y-109367160D01*
X94890274Y-109357891D01*
X94965549Y-109311082D01*
X94976717Y-109300622D01*
X98636753Y-112960659D01*
X98658674Y-112987370D01*
X98765263Y-113074845D01*
X98886869Y-113139845D01*
X99018820Y-113179872D01*
X99121654Y-113190000D01*
X99121657Y-113190000D01*
X99156044Y-113193387D01*
X99190431Y-113190000D01*
X99882747Y-113190000D01*
X99886511Y-113228215D01*
X99912243Y-113313041D01*
X99933525Y-113352856D01*
X99327476Y-113299834D01*
X97568399Y-112989661D01*
X95843049Y-112527355D01*
X94164557Y-111916433D01*
X93690302Y-111695284D01*
X93757134Y-111632689D01*
X93820240Y-111544625D01*
X94199185Y-110882950D01*
X94148857Y-110695122D01*
X93488513Y-110313872D01*
X93478513Y-110331192D01*
X93305307Y-110231192D01*
X93315307Y-110213872D01*
X92654963Y-109832622D01*
X92467135Y-109882950D01*
X92083580Y-110541964D01*
X92038867Y-110640647D01*
X92014266Y-110746158D01*
X92010778Y-110852711D01*
X91570616Y-110598584D01*
X91636359Y-110573840D01*
X91711634Y-110527031D01*
X91776331Y-110466436D01*
X91827963Y-110394383D01*
X92477963Y-109268549D01*
X92514546Y-109187809D01*
X92534675Y-109101482D01*
X92537575Y-109012887D01*
X92523135Y-108925429D01*
X92491911Y-108842468D01*
X92445102Y-108767193D01*
X92392723Y-108711268D01*
X92467345Y-108728668D01*
X92555940Y-108731568D01*
X92643398Y-108717128D01*
X92726359Y-108685904D01*
X92801634Y-108639095D01*
X92866331Y-108578500D01*
X92917963Y-108506447D01*
X93960754Y-106700280D01*
X94361034Y-106300000D01*
X100060051Y-106300000D01*
X100180000Y-106419950D01*
G37*
G04 #@! TD.AperFunction*
D27*
X91972425Y-75232131D02*
X91975325Y-75320726D01*
X91995454Y-75407052D01*
X92032037Y-75487793D01*
X92682037Y-76613627D01*
X92733669Y-76685680D01*
X92798366Y-76746275D01*
X92873641Y-76793084D01*
X92956602Y-76824308D01*
X93044060Y-76838748D01*
X93132655Y-76835848D01*
X93207277Y-76818448D01*
X93154898Y-76874373D01*
X93108089Y-76949648D01*
X93076865Y-77032609D01*
X93062425Y-77120067D01*
X93065325Y-77208662D01*
X93085454Y-77294988D01*
X93122037Y-77375729D01*
X94172037Y-79194383D01*
X94223669Y-79266436D01*
X94288366Y-79327031D01*
X94363641Y-79373840D01*
X94446602Y-79405064D01*
X94534060Y-79419504D01*
X94622655Y-79416604D01*
X94708982Y-79396475D01*
X94789722Y-79359892D01*
X94987015Y-79245985D01*
X96061688Y-80320658D01*
X96083610Y-80347370D01*
X96110321Y-80369291D01*
X96110322Y-80369292D01*
X96190198Y-80434845D01*
X96300570Y-80493840D01*
X96311805Y-80499845D01*
X96443756Y-80539872D01*
X96546590Y-80550000D01*
X96546592Y-80550000D01*
X96580979Y-80553387D01*
X96580980Y-80553387D01*
X96615367Y-80550000D01*
X102605613Y-80550000D01*
X102640000Y-80553387D01*
X102674387Y-80550000D01*
X102880105Y-80550000D01*
X102931233Y-80571178D01*
X103076131Y-80600000D01*
X103223869Y-80600000D01*
X103368767Y-80571178D01*
X103419895Y-80550000D01*
X103565610Y-80550000D01*
X103600000Y-80553387D01*
X103634390Y-80550000D01*
X110444529Y-80550000D01*
X110478916Y-80553387D01*
X110513303Y-80550000D01*
X110513306Y-80550000D01*
X110616140Y-80539872D01*
X110748091Y-80499845D01*
X110869697Y-80434845D01*
X110953305Y-80366230D01*
X111150174Y-80479892D01*
X111230915Y-80516475D01*
X111317241Y-80536604D01*
X111405836Y-80539504D01*
X111493294Y-80525064D01*
X111576255Y-80493840D01*
X111651530Y-80447031D01*
X111716227Y-80386436D01*
X111767859Y-80314383D01*
X112817859Y-78495729D01*
X112854442Y-78414989D01*
X112874571Y-78328662D01*
X112877471Y-78240067D01*
X112863031Y-78152609D01*
X112831807Y-78069648D01*
X112784998Y-77994373D01*
X112732619Y-77938448D01*
X112807241Y-77955848D01*
X112895836Y-77958748D01*
X112983294Y-77944308D01*
X112995202Y-77939826D01*
X113200001Y-78144625D01*
X113200000Y-81660517D01*
X113196613Y-81694904D01*
X113200000Y-81729291D01*
X113200000Y-81729293D01*
X113210128Y-81832127D01*
X113250155Y-81964078D01*
X113315155Y-82085685D01*
X113380708Y-82165561D01*
X113402630Y-82192273D01*
X113429343Y-82214196D01*
X114578430Y-83363283D01*
X114567970Y-83374451D01*
X114521161Y-83449726D01*
X114489937Y-83532687D01*
X114475497Y-83620145D01*
X114478397Y-83708740D01*
X114498526Y-83795067D01*
X114535109Y-83875808D01*
X114985109Y-84655230D01*
X115036741Y-84727282D01*
X115101438Y-84787877D01*
X115176713Y-84834686D01*
X115259674Y-84865910D01*
X115347132Y-84880350D01*
X115435727Y-84877450D01*
X115522054Y-84857321D01*
X115602795Y-84820738D01*
X116988435Y-84020738D01*
X117060487Y-83969106D01*
X117121082Y-83904409D01*
X117167891Y-83829134D01*
X117172691Y-83816382D01*
X117213205Y-83831630D01*
X117320098Y-83849279D01*
X117428380Y-83845734D01*
X117533891Y-83821133D01*
X117632574Y-83776420D01*
X118291588Y-83392865D01*
X118341916Y-83205037D01*
X117960666Y-82544693D01*
X117943346Y-82554693D01*
X117843346Y-82381487D01*
X117860666Y-82371487D01*
X117479416Y-81711143D01*
X117291588Y-81660815D01*
X116629913Y-82039760D01*
X116541849Y-82102866D01*
X116467788Y-82181940D01*
X116410577Y-82273943D01*
X116372415Y-82375340D01*
X116367882Y-82402796D01*
X116341920Y-82398510D01*
X116253325Y-82401410D01*
X116166998Y-82421539D01*
X116086257Y-82458122D01*
X115811689Y-82616644D01*
X114600000Y-81404955D01*
X114600000Y-77889064D01*
X114603387Y-77854674D01*
X114589872Y-77717450D01*
X114549845Y-77585499D01*
X114484845Y-77463893D01*
X114419292Y-77384016D01*
X114419291Y-77384015D01*
X114397370Y-77357304D01*
X114370658Y-77335382D01*
X113810939Y-76775663D01*
X113907859Y-76607793D01*
X113944442Y-76527053D01*
X113964571Y-76440726D01*
X113965679Y-76406889D01*
X114464390Y-76756090D01*
X115832710Y-77904247D01*
X117095753Y-79167290D01*
X118243910Y-80535610D01*
X118550880Y-80974008D01*
X118460647Y-80995047D01*
X118361964Y-81039760D01*
X117702950Y-81423315D01*
X117652622Y-81611143D01*
X118033872Y-82271487D01*
X118051192Y-82261487D01*
X118151192Y-82434693D01*
X118133872Y-82444693D01*
X118515122Y-83105037D01*
X118702950Y-83155365D01*
X119364625Y-82776420D01*
X119452689Y-82713314D01*
X119526750Y-82634240D01*
X119583047Y-82543706D01*
X119837175Y-82983868D01*
X119767869Y-82972425D01*
X119679274Y-82975325D01*
X119592948Y-82995454D01*
X119512207Y-83032037D01*
X118386373Y-83682037D01*
X118314320Y-83733669D01*
X118253725Y-83798366D01*
X118206916Y-83873641D01*
X118175692Y-83956602D01*
X118161252Y-84044060D01*
X118164152Y-84132655D01*
X118181552Y-84207277D01*
X118125627Y-84154898D01*
X118050352Y-84108089D01*
X117967391Y-84076865D01*
X117879933Y-84062425D01*
X117791338Y-84065325D01*
X117705012Y-84085454D01*
X117624271Y-84122037D01*
X115805617Y-85172037D01*
X115733564Y-85223669D01*
X115672969Y-85288366D01*
X115626160Y-85363641D01*
X115594936Y-85446602D01*
X115580496Y-85534060D01*
X115583396Y-85622655D01*
X115603525Y-85708982D01*
X115640108Y-85789722D01*
X115754015Y-85987015D01*
X114129343Y-87611688D01*
X114102630Y-87633611D01*
X114080709Y-87660322D01*
X114080708Y-87660323D01*
X114015155Y-87740199D01*
X113963610Y-87836633D01*
X113950155Y-87861806D01*
X113910128Y-87993757D01*
X113900000Y-88096590D01*
X113896613Y-88130980D01*
X113900000Y-88165367D01*
X113900001Y-91665601D01*
X113900000Y-91665611D01*
X113900000Y-92110050D01*
X113710051Y-92300000D01*
X110915368Y-92300000D01*
X110893263Y-92266918D01*
X110733082Y-92106737D01*
X110544729Y-91980884D01*
X110335443Y-91894194D01*
X110113265Y-91850000D01*
X109886735Y-91850000D01*
X109664557Y-91894194D01*
X109455271Y-91980884D01*
X109266918Y-92106737D01*
X109106737Y-92266918D01*
X109084632Y-92300000D01*
X103789950Y-92300000D01*
X103450000Y-91960051D01*
X103450000Y-91450000D01*
X104647339Y-91450000D01*
X104657958Y-91557819D01*
X104689408Y-91661494D01*
X104740479Y-91757042D01*
X104809210Y-91840790D01*
X104892958Y-91909521D01*
X104988506Y-91960592D01*
X105092181Y-91992042D01*
X105200000Y-92002661D01*
X105862500Y-92000000D01*
X106000000Y-91862500D01*
X106000000Y-90850000D01*
X106200000Y-90850000D01*
X106200000Y-91862500D01*
X106337500Y-92000000D01*
X107000000Y-92002661D01*
X107107819Y-91992042D01*
X107211494Y-91960592D01*
X107307042Y-91909521D01*
X107390790Y-91840790D01*
X107459521Y-91757042D01*
X107510592Y-91661494D01*
X107542042Y-91557819D01*
X107552661Y-91450000D01*
X107550993Y-91160000D01*
X108747339Y-91160000D01*
X108757958Y-91267819D01*
X108789408Y-91371494D01*
X108840479Y-91467042D01*
X108909210Y-91550790D01*
X108992958Y-91619521D01*
X109088506Y-91670592D01*
X109192181Y-91702042D01*
X109300000Y-91712661D01*
X109762500Y-91710000D01*
X109900000Y-91572500D01*
X109900000Y-90560000D01*
X110100000Y-90560000D01*
X110100000Y-91572500D01*
X110237500Y-91710000D01*
X110700000Y-91712661D01*
X110807819Y-91702042D01*
X110911494Y-91670592D01*
X111007042Y-91619521D01*
X111090790Y-91550790D01*
X111159521Y-91467042D01*
X111210592Y-91371494D01*
X111242042Y-91267819D01*
X111252661Y-91160000D01*
X111250000Y-90697500D01*
X111112500Y-90560000D01*
X110100000Y-90560000D01*
X109900000Y-90560000D01*
X108887500Y-90560000D01*
X108750000Y-90697500D01*
X108747339Y-91160000D01*
X107550993Y-91160000D01*
X107550000Y-90987500D01*
X107412500Y-90850000D01*
X106200000Y-90850000D01*
X106000000Y-90850000D01*
X104787500Y-90850000D01*
X104650000Y-90987500D01*
X104647339Y-91450000D01*
X103450000Y-91450000D01*
X103450000Y-90050000D01*
X104647339Y-90050000D01*
X104650000Y-90512500D01*
X104787500Y-90650000D01*
X106000000Y-90650000D01*
X106000000Y-89637500D01*
X106200000Y-89637500D01*
X106200000Y-90650000D01*
X107412500Y-90650000D01*
X107550000Y-90512500D01*
X107552661Y-90050000D01*
X107542042Y-89942181D01*
X107510592Y-89838506D01*
X107468631Y-89760000D01*
X108747339Y-89760000D01*
X108750000Y-90222500D01*
X108887500Y-90360000D01*
X109900000Y-90360000D01*
X109900000Y-89347500D01*
X110100000Y-89347500D01*
X110100000Y-90360000D01*
X111112500Y-90360000D01*
X111250000Y-90222500D01*
X111252661Y-89760000D01*
X111242042Y-89652181D01*
X111210592Y-89548506D01*
X111159521Y-89452958D01*
X111090790Y-89369210D01*
X111007042Y-89300479D01*
X110911494Y-89249408D01*
X110807819Y-89217958D01*
X110700000Y-89207339D01*
X110237500Y-89210000D01*
X110100000Y-89347500D01*
X109900000Y-89347500D01*
X109762500Y-89210000D01*
X109300000Y-89207339D01*
X109192181Y-89217958D01*
X109088506Y-89249408D01*
X108992958Y-89300479D01*
X108909210Y-89369210D01*
X108840479Y-89452958D01*
X108789408Y-89548506D01*
X108757958Y-89652181D01*
X108747339Y-89760000D01*
X107468631Y-89760000D01*
X107459521Y-89742958D01*
X107390790Y-89659210D01*
X107307042Y-89590479D01*
X107211494Y-89539408D01*
X107107819Y-89507958D01*
X107000000Y-89497339D01*
X106337500Y-89500000D01*
X106200000Y-89637500D01*
X106000000Y-89637500D01*
X105862500Y-89500000D01*
X105200000Y-89497339D01*
X105092181Y-89507958D01*
X104988506Y-89539408D01*
X104892958Y-89590479D01*
X104809210Y-89659210D01*
X104740479Y-89742958D01*
X104689408Y-89838506D01*
X104657958Y-89942181D01*
X104647339Y-90050000D01*
X103450000Y-90050000D01*
X103450000Y-89272105D01*
X103452177Y-89250000D01*
X103452177Y-88350000D01*
X103443489Y-88261785D01*
X103417757Y-88176959D01*
X103375971Y-88098784D01*
X103319737Y-88030263D01*
X103251216Y-87974029D01*
X103173041Y-87932243D01*
X103088215Y-87906511D01*
X103000000Y-87897823D01*
X102552861Y-87897823D01*
X102860483Y-87836633D01*
X103397349Y-87614256D01*
X103880516Y-87291415D01*
X104291415Y-86880516D01*
X104614256Y-86397349D01*
X104836633Y-85860483D01*
X104950000Y-85290550D01*
X104950000Y-84709450D01*
X104836633Y-84139517D01*
X104614256Y-83602651D01*
X104291415Y-83119484D01*
X103880516Y-82708585D01*
X103397349Y-82385744D01*
X102860483Y-82163367D01*
X102290550Y-82050000D01*
X101709450Y-82050000D01*
X101139517Y-82163367D01*
X100602651Y-82385744D01*
X100119484Y-82708585D01*
X99708585Y-83119484D01*
X99385744Y-83602651D01*
X99163367Y-84139517D01*
X99050000Y-84709450D01*
X99050000Y-85290550D01*
X99163367Y-85860483D01*
X99385744Y-86397349D01*
X99708585Y-86880516D01*
X100119484Y-87291415D01*
X100602651Y-87614256D01*
X101139517Y-87836633D01*
X101447139Y-87897823D01*
X101000000Y-87897823D01*
X100911785Y-87906511D01*
X100826959Y-87932243D01*
X100748784Y-87974029D01*
X100680263Y-88030263D01*
X100624029Y-88098784D01*
X100582243Y-88176959D01*
X100556511Y-88261785D01*
X100547823Y-88350000D01*
X100547823Y-89250000D01*
X100550001Y-89272114D01*
X100550000Y-94360050D01*
X100360051Y-94550000D01*
X99252177Y-94550000D01*
X99243489Y-94461785D01*
X99217757Y-94376959D01*
X99175971Y-94298784D01*
X99119737Y-94230263D01*
X99051216Y-94174029D01*
X98973041Y-94132243D01*
X98888215Y-94106511D01*
X98800000Y-94097823D01*
X97000000Y-94097823D01*
X96911785Y-94106511D01*
X96826959Y-94132243D01*
X96748784Y-94174029D01*
X96680263Y-94230263D01*
X96624029Y-94298784D01*
X96582243Y-94376959D01*
X96556511Y-94461785D01*
X96547823Y-94550000D01*
X96547823Y-95950000D01*
X96556511Y-96038215D01*
X96582243Y-96123041D01*
X96624029Y-96201216D01*
X96680263Y-96269737D01*
X96748784Y-96325971D01*
X96826959Y-96367757D01*
X96911785Y-96393489D01*
X97000000Y-96402177D01*
X98800000Y-96402177D01*
X98888215Y-96393489D01*
X98973041Y-96367757D01*
X99051216Y-96325971D01*
X99119737Y-96269737D01*
X99175971Y-96201216D01*
X99217757Y-96123041D01*
X99243489Y-96038215D01*
X99252177Y-95950000D01*
X100615613Y-95950000D01*
X100650000Y-95953387D01*
X100684387Y-95950000D01*
X101815612Y-95950000D01*
X101849999Y-95953387D01*
X101884386Y-95950000D01*
X104747823Y-95950000D01*
X104756511Y-96038215D01*
X104782243Y-96123041D01*
X104824029Y-96201216D01*
X104880263Y-96269737D01*
X104948784Y-96325971D01*
X105026959Y-96367757D01*
X105111785Y-96393489D01*
X105200000Y-96402177D01*
X105400001Y-96402177D01*
X105400000Y-98880105D01*
X105378822Y-98931233D01*
X105350000Y-99076131D01*
X105350000Y-99223869D01*
X105378822Y-99368767D01*
X105435359Y-99505258D01*
X105517437Y-99628097D01*
X105621903Y-99732563D01*
X105744742Y-99814641D01*
X105881233Y-99871178D01*
X106026131Y-99900000D01*
X106173869Y-99900000D01*
X106318767Y-99871178D01*
X106455258Y-99814641D01*
X106578097Y-99732563D01*
X106682563Y-99628097D01*
X106764641Y-99505258D01*
X106821178Y-99368767D01*
X106850000Y-99223869D01*
X106850000Y-99076131D01*
X106821178Y-98931233D01*
X106800000Y-98880105D01*
X106800000Y-96402177D01*
X107000000Y-96402177D01*
X107088215Y-96393489D01*
X107173041Y-96367757D01*
X107251216Y-96325971D01*
X107319737Y-96269737D01*
X107375971Y-96201216D01*
X107417757Y-96123041D01*
X107443489Y-96038215D01*
X107452177Y-95950000D01*
X107452177Y-95426735D01*
X108850000Y-95426735D01*
X108850000Y-95653265D01*
X108894194Y-95875443D01*
X108980884Y-96084729D01*
X109106737Y-96273082D01*
X109266918Y-96433263D01*
X109455271Y-96559116D01*
X109664557Y-96645806D01*
X109886735Y-96690000D01*
X110113265Y-96690000D01*
X110335443Y-96645806D01*
X110544729Y-96559116D01*
X110733082Y-96433263D01*
X110893263Y-96273082D01*
X111019116Y-96084729D01*
X111105806Y-95875443D01*
X111150000Y-95653265D01*
X111150000Y-95426735D01*
X111105806Y-95204557D01*
X111019116Y-94995271D01*
X110893263Y-94806918D01*
X110733082Y-94646737D01*
X110544729Y-94520884D01*
X110335443Y-94434194D01*
X110113265Y-94390000D01*
X109886735Y-94390000D01*
X109664557Y-94434194D01*
X109455271Y-94520884D01*
X109266918Y-94646737D01*
X109106737Y-94806918D01*
X108980884Y-94995271D01*
X108894194Y-95204557D01*
X108850000Y-95426735D01*
X107452177Y-95426735D01*
X107452177Y-94550000D01*
X107443489Y-94461785D01*
X107417757Y-94376959D01*
X107375971Y-94298784D01*
X107319737Y-94230263D01*
X107251216Y-94174029D01*
X107173041Y-94132243D01*
X107088215Y-94106511D01*
X107000000Y-94097823D01*
X105200000Y-94097823D01*
X105111785Y-94106511D01*
X105026959Y-94132243D01*
X104948784Y-94174029D01*
X104880263Y-94230263D01*
X104824029Y-94298784D01*
X104782243Y-94376959D01*
X104756511Y-94461785D01*
X104747823Y-94550000D01*
X102139950Y-94550000D01*
X101950000Y-94360051D01*
X101950000Y-89272105D01*
X101952177Y-89250000D01*
X101952177Y-88350000D01*
X101943489Y-88261785D01*
X101917757Y-88176959D01*
X101875971Y-88098784D01*
X101819737Y-88030263D01*
X101751216Y-87974029D01*
X101704372Y-87948990D01*
X101709450Y-87950000D01*
X102290550Y-87950000D01*
X102295628Y-87948990D01*
X102248784Y-87974029D01*
X102180263Y-88030263D01*
X102124029Y-88098784D01*
X102082243Y-88176959D01*
X102056511Y-88261785D01*
X102047823Y-88350000D01*
X102047823Y-89250000D01*
X102050001Y-89272113D01*
X102050000Y-92215613D01*
X102046613Y-92250000D01*
X102050000Y-92284387D01*
X102050000Y-92284389D01*
X102060128Y-92387223D01*
X102095137Y-92502631D01*
X102100155Y-92519174D01*
X102165155Y-92640781D01*
X102223749Y-92712177D01*
X102252630Y-92747369D01*
X102279342Y-92769291D01*
X102814181Y-93304131D01*
X102835359Y-93355258D01*
X102917437Y-93478097D01*
X103021903Y-93582563D01*
X103144742Y-93664641D01*
X103281233Y-93721178D01*
X103426131Y-93750000D01*
X103573869Y-93750000D01*
X103718767Y-93721178D01*
X103769895Y-93700000D01*
X109084632Y-93700000D01*
X109106737Y-93733082D01*
X109266918Y-93893263D01*
X109455271Y-94019116D01*
X109664557Y-94105806D01*
X109886735Y-94150000D01*
X110113265Y-94150000D01*
X110335443Y-94105806D01*
X110544729Y-94019116D01*
X110733082Y-93893263D01*
X110893263Y-93733082D01*
X110915368Y-93700000D01*
X113710051Y-93700000D01*
X113900000Y-93889950D01*
X113900000Y-94665610D01*
X113896613Y-94700000D01*
X113900000Y-94734390D01*
X113900001Y-95327490D01*
X113900000Y-96465610D01*
X113900000Y-96465611D01*
X113900001Y-100265601D01*
X113900000Y-100265611D01*
X113900000Y-100894529D01*
X113896613Y-100928916D01*
X113900000Y-100963303D01*
X113900000Y-100963306D01*
X113910128Y-101066140D01*
X113950155Y-101198091D01*
X113972797Y-101240449D01*
X114015155Y-101319697D01*
X114070621Y-101387282D01*
X114102631Y-101426286D01*
X114129342Y-101448207D01*
X114634015Y-101952881D01*
X114520108Y-102150174D01*
X114483525Y-102230915D01*
X114463396Y-102317241D01*
X114460496Y-102405836D01*
X114474936Y-102493294D01*
X114506160Y-102576255D01*
X114552969Y-102651530D01*
X114613564Y-102716227D01*
X114685617Y-102767859D01*
X116504271Y-103817859D01*
X116585011Y-103854442D01*
X116671338Y-103874571D01*
X116759933Y-103877471D01*
X116847391Y-103863031D01*
X116930352Y-103831807D01*
X117005627Y-103784998D01*
X117061552Y-103732619D01*
X117044152Y-103807241D01*
X117041252Y-103895836D01*
X117055692Y-103983294D01*
X117060174Y-103995202D01*
X114910851Y-106144526D01*
X111998169Y-106144526D01*
X111741878Y-105700617D01*
X111690246Y-105628565D01*
X111625549Y-105567970D01*
X111550274Y-105521161D01*
X111467313Y-105489937D01*
X111379855Y-105475497D01*
X111291260Y-105478397D01*
X111204933Y-105498526D01*
X111124192Y-105535109D01*
X110344770Y-105985109D01*
X110272718Y-106036741D01*
X110212123Y-106101438D01*
X110165314Y-106176713D01*
X110134090Y-106259674D01*
X110119650Y-106347132D01*
X110122550Y-106435727D01*
X110142679Y-106522054D01*
X110179262Y-106602795D01*
X110979262Y-107988435D01*
X111030894Y-108060487D01*
X111095591Y-108121082D01*
X111170866Y-108167891D01*
X111183618Y-108172691D01*
X111168370Y-108213205D01*
X111150721Y-108320098D01*
X111154266Y-108428380D01*
X111178867Y-108533891D01*
X111223580Y-108632574D01*
X111607135Y-109291588D01*
X111794963Y-109341916D01*
X112455307Y-108960666D01*
X112445307Y-108943346D01*
X112618513Y-108843346D01*
X112628513Y-108860666D01*
X113288857Y-108479416D01*
X113339185Y-108291588D01*
X112960240Y-107629913D01*
X112899052Y-107544526D01*
X115166413Y-107544526D01*
X115200800Y-107547913D01*
X115235187Y-107544526D01*
X115235190Y-107544526D01*
X115338024Y-107534398D01*
X115469975Y-107494371D01*
X115591581Y-107429371D01*
X115698170Y-107341896D01*
X115720096Y-107315179D01*
X118224337Y-104810939D01*
X118392207Y-104907859D01*
X118472947Y-104944442D01*
X118559274Y-104964571D01*
X118593111Y-104965679D01*
X118243910Y-105464390D01*
X117095753Y-106832710D01*
X115832710Y-108095753D01*
X114464390Y-109243910D01*
X114025992Y-109550880D01*
X114004953Y-109460647D01*
X113960240Y-109361964D01*
X113576685Y-108702950D01*
X113388857Y-108652622D01*
X112728513Y-109033872D01*
X112738513Y-109051192D01*
X112565307Y-109151192D01*
X112555307Y-109133872D01*
X111894963Y-109515122D01*
X111844635Y-109702950D01*
X112223580Y-110364625D01*
X112286686Y-110452689D01*
X112365760Y-110526750D01*
X112456294Y-110583047D01*
X112016132Y-110837175D01*
X112027575Y-110767869D01*
X112024675Y-110679274D01*
X112004546Y-110592948D01*
X111967963Y-110512207D01*
X111317963Y-109386373D01*
X111266331Y-109314320D01*
X111201634Y-109253725D01*
X111126359Y-109206916D01*
X111043398Y-109175692D01*
X110955940Y-109161252D01*
X110867345Y-109164152D01*
X110792723Y-109181552D01*
X110845102Y-109125627D01*
X110891911Y-109050352D01*
X110923135Y-108967391D01*
X110937575Y-108879933D01*
X110934675Y-108791338D01*
X110914546Y-108705012D01*
X110877963Y-108624271D01*
X109827963Y-106805617D01*
X109776331Y-106733564D01*
X109711634Y-106672969D01*
X109636359Y-106626160D01*
X109553398Y-106594936D01*
X109465940Y-106580496D01*
X109377345Y-106583396D01*
X109291018Y-106603525D01*
X109223890Y-106633940D01*
X107719296Y-105129347D01*
X107697370Y-105102630D01*
X107590781Y-105015155D01*
X107469175Y-104950155D01*
X107337224Y-104910128D01*
X107234390Y-104900000D01*
X107234387Y-104900000D01*
X107200000Y-104896613D01*
X107165613Y-104900000D01*
X101434386Y-104900000D01*
X101399999Y-104896613D01*
X101365612Y-104900000D01*
X101119895Y-104900000D01*
X101068767Y-104878822D01*
X100923869Y-104850000D01*
X100776131Y-104850000D01*
X100631233Y-104878822D01*
X100580105Y-104900000D01*
X100384387Y-104900000D01*
X100350000Y-104896613D01*
X100315613Y-104900000D01*
X94105471Y-104900000D01*
X94071084Y-104896613D01*
X94036697Y-104900000D01*
X94036694Y-104900000D01*
X93933860Y-104910128D01*
X93801909Y-104950155D01*
X93680303Y-105015155D01*
X93573714Y-105102630D01*
X93551792Y-105129342D01*
X93047119Y-105634015D01*
X92849826Y-105520108D01*
X92769085Y-105483525D01*
X92682759Y-105463396D01*
X92594164Y-105460496D01*
X92506706Y-105474936D01*
X92423745Y-105506160D01*
X92348470Y-105552969D01*
X92283773Y-105613564D01*
X92232141Y-105685617D01*
X91182141Y-107504271D01*
X91145558Y-107585011D01*
X91125429Y-107671338D01*
X91122529Y-107759933D01*
X91136969Y-107847391D01*
X91168193Y-107930352D01*
X91215002Y-108005627D01*
X91267381Y-108061552D01*
X91192759Y-108044152D01*
X91104164Y-108041252D01*
X91016706Y-108055692D01*
X91004797Y-108060174D01*
X90900000Y-107955377D01*
X90900000Y-104434390D01*
X90903387Y-104400000D01*
X90889872Y-104262776D01*
X90849845Y-104130825D01*
X90784845Y-104009219D01*
X90719292Y-103929342D01*
X90719287Y-103929337D01*
X90697369Y-103902630D01*
X90670663Y-103880713D01*
X89424035Y-102634085D01*
X89432030Y-102625549D01*
X89478839Y-102550274D01*
X89510063Y-102467313D01*
X89524503Y-102379855D01*
X89521603Y-102291260D01*
X89501474Y-102204933D01*
X89464891Y-102124192D01*
X89014891Y-101344770D01*
X88963259Y-101272718D01*
X88898562Y-101212123D01*
X88823287Y-101165314D01*
X88740326Y-101134090D01*
X88652868Y-101119650D01*
X88564273Y-101122550D01*
X88477946Y-101142679D01*
X88397205Y-101179262D01*
X87011565Y-101979262D01*
X86939513Y-102030894D01*
X86878918Y-102095591D01*
X86832109Y-102170866D01*
X86827309Y-102183618D01*
X86786795Y-102168370D01*
X86679902Y-102150721D01*
X86571620Y-102154266D01*
X86466109Y-102178867D01*
X86367426Y-102223580D01*
X85708412Y-102607135D01*
X85658084Y-102794963D01*
X86039334Y-103455307D01*
X86056654Y-103445307D01*
X86156654Y-103618513D01*
X86139334Y-103628513D01*
X86520584Y-104288857D01*
X86708412Y-104339185D01*
X87370087Y-103960240D01*
X87458151Y-103897134D01*
X87532212Y-103818060D01*
X87589423Y-103726057D01*
X87627585Y-103624660D01*
X87632118Y-103597204D01*
X87658080Y-103601490D01*
X87746675Y-103598590D01*
X87833002Y-103578461D01*
X87913743Y-103541878D01*
X88191542Y-103381491D01*
X89500000Y-104689950D01*
X89500001Y-108210929D01*
X89496613Y-108245326D01*
X89510129Y-108382549D01*
X89550155Y-108514500D01*
X89615155Y-108636107D01*
X89674599Y-108708539D01*
X89702631Y-108742696D01*
X89729342Y-108764617D01*
X90189061Y-109224336D01*
X90092141Y-109392207D01*
X90055558Y-109472947D01*
X90035429Y-109559274D01*
X90034321Y-109593111D01*
X89535610Y-109243910D01*
X88167290Y-108095753D01*
X86904247Y-106832710D01*
X85756090Y-105464390D01*
X85449120Y-105025992D01*
X85539353Y-105004953D01*
X85638036Y-104960240D01*
X86297050Y-104576685D01*
X86347378Y-104388857D01*
X85966128Y-103728513D01*
X85948808Y-103738513D01*
X85848808Y-103565307D01*
X85866128Y-103555307D01*
X85484878Y-102894963D01*
X85297050Y-102844635D01*
X84635375Y-103223580D01*
X84547311Y-103286686D01*
X84473250Y-103365760D01*
X84416953Y-103456294D01*
X84162825Y-103016132D01*
X84232131Y-103027575D01*
X84320726Y-103024675D01*
X84407052Y-103004546D01*
X84487793Y-102967963D01*
X85613627Y-102317963D01*
X85685680Y-102266331D01*
X85746275Y-102201634D01*
X85793084Y-102126359D01*
X85824308Y-102043398D01*
X85838748Y-101955940D01*
X85835848Y-101867345D01*
X85818448Y-101792723D01*
X85874373Y-101845102D01*
X85949648Y-101891911D01*
X86032609Y-101923135D01*
X86120067Y-101937575D01*
X86208662Y-101934675D01*
X86294988Y-101914546D01*
X86375729Y-101877963D01*
X88194383Y-100827963D01*
X88266436Y-100776331D01*
X88327031Y-100711634D01*
X88328389Y-100709450D01*
X99050000Y-100709450D01*
X99050000Y-101290550D01*
X99163367Y-101860483D01*
X99385744Y-102397349D01*
X99708585Y-102880516D01*
X100119484Y-103291415D01*
X100602651Y-103614256D01*
X101139517Y-103836633D01*
X101709450Y-103950000D01*
X102290550Y-103950000D01*
X102860483Y-103836633D01*
X103397349Y-103614256D01*
X103880516Y-103291415D01*
X104291415Y-102880516D01*
X104614256Y-102397349D01*
X104836633Y-101860483D01*
X104950000Y-101290550D01*
X104950000Y-100709450D01*
X104836633Y-100139517D01*
X104614256Y-99602651D01*
X104291415Y-99119484D01*
X103880516Y-98708585D01*
X103397349Y-98385744D01*
X102860483Y-98163367D01*
X102290550Y-98050000D01*
X101709450Y-98050000D01*
X101139517Y-98163367D01*
X100602651Y-98385744D01*
X100119484Y-98708585D01*
X99708585Y-99119484D01*
X99385744Y-99602651D01*
X99163367Y-100139517D01*
X99050000Y-100709450D01*
X88328389Y-100709450D01*
X88373840Y-100636359D01*
X88405064Y-100553398D01*
X88419504Y-100465940D01*
X88416604Y-100377345D01*
X88396475Y-100291018D01*
X88359892Y-100210278D01*
X88348830Y-100191119D01*
X89870663Y-98669287D01*
X89897369Y-98647370D01*
X89919287Y-98620663D01*
X89919292Y-98620658D01*
X89984845Y-98540782D01*
X90049845Y-98419175D01*
X90059986Y-98385744D01*
X90089872Y-98287224D01*
X90100000Y-98184390D01*
X90100000Y-98184388D01*
X90103387Y-98150001D01*
X90100000Y-98115614D01*
X90100000Y-95426735D01*
X92850000Y-95426735D01*
X92850000Y-95653265D01*
X92894194Y-95875443D01*
X92980884Y-96084729D01*
X93106737Y-96273082D01*
X93266918Y-96433263D01*
X93455271Y-96559116D01*
X93664557Y-96645806D01*
X93886735Y-96690000D01*
X94113265Y-96690000D01*
X94335443Y-96645806D01*
X94544729Y-96559116D01*
X94733082Y-96433263D01*
X94893263Y-96273082D01*
X95019116Y-96084729D01*
X95105806Y-95875443D01*
X95150000Y-95653265D01*
X95150000Y-95426735D01*
X95105806Y-95204557D01*
X95019116Y-94995271D01*
X94893263Y-94806918D01*
X94733082Y-94646737D01*
X94544729Y-94520884D01*
X94335443Y-94434194D01*
X94113265Y-94390000D01*
X93886735Y-94390000D01*
X93664557Y-94434194D01*
X93455271Y-94520884D01*
X93266918Y-94646737D01*
X93106737Y-94806918D01*
X92980884Y-94995271D01*
X92894194Y-95204557D01*
X92850000Y-95426735D01*
X90100000Y-95426735D01*
X90100000Y-93889949D01*
X90289950Y-93700000D01*
X93084632Y-93700000D01*
X93106737Y-93733082D01*
X93266918Y-93893263D01*
X93455271Y-94019116D01*
X93664557Y-94105806D01*
X93886735Y-94150000D01*
X94113265Y-94150000D01*
X94335443Y-94105806D01*
X94544729Y-94019116D01*
X94733082Y-93893263D01*
X94893263Y-93733082D01*
X95019116Y-93544729D01*
X95105806Y-93335443D01*
X95150000Y-93113265D01*
X95150000Y-92886735D01*
X95105806Y-92664557D01*
X95019116Y-92455271D01*
X94893263Y-92266918D01*
X94733082Y-92106737D01*
X94544729Y-91980884D01*
X94335443Y-91894194D01*
X94113265Y-91850000D01*
X93886735Y-91850000D01*
X93664557Y-91894194D01*
X93455271Y-91980884D01*
X93266918Y-92106737D01*
X93106737Y-92266918D01*
X93084632Y-92300000D01*
X90289949Y-92300000D01*
X90100000Y-92110051D01*
X90100000Y-91344387D01*
X90103387Y-91310000D01*
X90100000Y-91275613D01*
X90100000Y-91160000D01*
X92747339Y-91160000D01*
X92757958Y-91267819D01*
X92789408Y-91371494D01*
X92840479Y-91467042D01*
X92909210Y-91550790D01*
X92992958Y-91619521D01*
X93088506Y-91670592D01*
X93192181Y-91702042D01*
X93300000Y-91712661D01*
X93762500Y-91710000D01*
X93900000Y-91572500D01*
X93900000Y-90560000D01*
X94100000Y-90560000D01*
X94100000Y-91572500D01*
X94237500Y-91710000D01*
X94700000Y-91712661D01*
X94807819Y-91702042D01*
X94911494Y-91670592D01*
X95007042Y-91619521D01*
X95090790Y-91550790D01*
X95159521Y-91467042D01*
X95168630Y-91450000D01*
X96447339Y-91450000D01*
X96457958Y-91557819D01*
X96489408Y-91661494D01*
X96540479Y-91757042D01*
X96609210Y-91840790D01*
X96692958Y-91909521D01*
X96788506Y-91960592D01*
X96892181Y-91992042D01*
X97000000Y-92002661D01*
X97662500Y-92000000D01*
X97800000Y-91862500D01*
X97800000Y-90850000D01*
X98000000Y-90850000D01*
X98000000Y-91862500D01*
X98137500Y-92000000D01*
X98800000Y-92002661D01*
X98907819Y-91992042D01*
X99011494Y-91960592D01*
X99107042Y-91909521D01*
X99190790Y-91840790D01*
X99259521Y-91757042D01*
X99310592Y-91661494D01*
X99342042Y-91557819D01*
X99352661Y-91450000D01*
X99350000Y-90987500D01*
X99212500Y-90850000D01*
X98000000Y-90850000D01*
X97800000Y-90850000D01*
X96587500Y-90850000D01*
X96450000Y-90987500D01*
X96447339Y-91450000D01*
X95168630Y-91450000D01*
X95210592Y-91371494D01*
X95242042Y-91267819D01*
X95252661Y-91160000D01*
X95250000Y-90697500D01*
X95112500Y-90560000D01*
X94100000Y-90560000D01*
X93900000Y-90560000D01*
X92887500Y-90560000D01*
X92750000Y-90697500D01*
X92747339Y-91160000D01*
X90100000Y-91160000D01*
X90100000Y-89760000D01*
X92747339Y-89760000D01*
X92750000Y-90222500D01*
X92887500Y-90360000D01*
X93900000Y-90360000D01*
X93900000Y-89347500D01*
X94100000Y-89347500D01*
X94100000Y-90360000D01*
X95112500Y-90360000D01*
X95250000Y-90222500D01*
X95250992Y-90050000D01*
X96447339Y-90050000D01*
X96450000Y-90512500D01*
X96587500Y-90650000D01*
X97800000Y-90650000D01*
X97800000Y-89637500D01*
X98000000Y-89637500D01*
X98000000Y-90650000D01*
X99212500Y-90650000D01*
X99350000Y-90512500D01*
X99352661Y-90050000D01*
X99342042Y-89942181D01*
X99310592Y-89838506D01*
X99259521Y-89742958D01*
X99190790Y-89659210D01*
X99107042Y-89590479D01*
X99011494Y-89539408D01*
X98907819Y-89507958D01*
X98800000Y-89497339D01*
X98137500Y-89500000D01*
X98000000Y-89637500D01*
X97800000Y-89637500D01*
X97662500Y-89500000D01*
X97000000Y-89497339D01*
X96892181Y-89507958D01*
X96788506Y-89539408D01*
X96692958Y-89590479D01*
X96609210Y-89659210D01*
X96540479Y-89742958D01*
X96489408Y-89838506D01*
X96457958Y-89942181D01*
X96447339Y-90050000D01*
X95250992Y-90050000D01*
X95252661Y-89760000D01*
X95242042Y-89652181D01*
X95210592Y-89548506D01*
X95159521Y-89452958D01*
X95090790Y-89369210D01*
X95007042Y-89300479D01*
X94911494Y-89249408D01*
X94807819Y-89217958D01*
X94700000Y-89207339D01*
X94237500Y-89210000D01*
X94100000Y-89347500D01*
X93900000Y-89347500D01*
X93762500Y-89210000D01*
X93300000Y-89207339D01*
X93192181Y-89217958D01*
X93088506Y-89249408D01*
X92992958Y-89300479D01*
X92909210Y-89369210D01*
X92840479Y-89452958D01*
X92789408Y-89548506D01*
X92757958Y-89652181D01*
X92747339Y-89760000D01*
X90100000Y-89760000D01*
X90100000Y-85105471D01*
X90103387Y-85071084D01*
X90098816Y-85024675D01*
X90089872Y-84933860D01*
X90049845Y-84801909D01*
X89984845Y-84680303D01*
X89897370Y-84573714D01*
X89870658Y-84551792D01*
X89365985Y-84047119D01*
X89479892Y-83849826D01*
X89516475Y-83769085D01*
X89536604Y-83682759D01*
X89539504Y-83594164D01*
X89525064Y-83506706D01*
X89493840Y-83423745D01*
X89447031Y-83348470D01*
X89386436Y-83283773D01*
X89314383Y-83232141D01*
X87495729Y-82182141D01*
X87414989Y-82145558D01*
X87328662Y-82125429D01*
X87240067Y-82122529D01*
X87152609Y-82136969D01*
X87069648Y-82168193D01*
X86994373Y-82215002D01*
X86938448Y-82267381D01*
X86955848Y-82192759D01*
X86958748Y-82104164D01*
X86944308Y-82016706D01*
X86939826Y-82004798D01*
X86944624Y-82000000D01*
X90465613Y-82000000D01*
X90500000Y-82003387D01*
X90534387Y-82000000D01*
X90534390Y-82000000D01*
X90637224Y-81989872D01*
X90769175Y-81949845D01*
X90890781Y-81884845D01*
X90997370Y-81797370D01*
X91019296Y-81770653D01*
X92365915Y-80424035D01*
X92374451Y-80432030D01*
X92449726Y-80478839D01*
X92532687Y-80510063D01*
X92620145Y-80524503D01*
X92708740Y-80521603D01*
X92795067Y-80501474D01*
X92875808Y-80464891D01*
X93655230Y-80014891D01*
X93727282Y-79963259D01*
X93787877Y-79898562D01*
X93834686Y-79823287D01*
X93865910Y-79740326D01*
X93880350Y-79652868D01*
X93877450Y-79564273D01*
X93857321Y-79477946D01*
X93820738Y-79397205D01*
X93020738Y-78011565D01*
X92969106Y-77939513D01*
X92904409Y-77878918D01*
X92829134Y-77832109D01*
X92816382Y-77827309D01*
X92831630Y-77786795D01*
X92849279Y-77679902D01*
X92845734Y-77571620D01*
X92821133Y-77466109D01*
X92776420Y-77367426D01*
X92392865Y-76708412D01*
X92205037Y-76658084D01*
X91544693Y-77039334D01*
X91554693Y-77056654D01*
X91381487Y-77156654D01*
X91371487Y-77139334D01*
X90711143Y-77520584D01*
X90660815Y-77708412D01*
X91039760Y-78370087D01*
X91102866Y-78458151D01*
X91181940Y-78532212D01*
X91273943Y-78589423D01*
X91375340Y-78627585D01*
X91402796Y-78632118D01*
X91398510Y-78658080D01*
X91401410Y-78746675D01*
X91421539Y-78833002D01*
X91458122Y-78913743D01*
X91618509Y-79191541D01*
X90210051Y-80600000D01*
X86689061Y-80600000D01*
X86654674Y-80596613D01*
X86620287Y-80600000D01*
X86620284Y-80600000D01*
X86517450Y-80610128D01*
X86385499Y-80650155D01*
X86263892Y-80715155D01*
X86184016Y-80780708D01*
X86157304Y-80802630D01*
X86135382Y-80829342D01*
X85775663Y-81189061D01*
X85607793Y-81092141D01*
X85527053Y-81055558D01*
X85440726Y-81035429D01*
X85406889Y-81034321D01*
X85756090Y-80535610D01*
X86904247Y-79167290D01*
X88167290Y-77904247D01*
X89535610Y-76756090D01*
X89974008Y-76449120D01*
X89995047Y-76539353D01*
X90039760Y-76638036D01*
X90423315Y-77297050D01*
X90611143Y-77347378D01*
X91271487Y-76966128D01*
X91261487Y-76948808D01*
X91434693Y-76848808D01*
X91444693Y-76866128D01*
X92105037Y-76484878D01*
X92155365Y-76297050D01*
X91776420Y-75635375D01*
X91713314Y-75547311D01*
X91634240Y-75473250D01*
X91543706Y-75416953D01*
X91983868Y-75162825D01*
X91972425Y-75232131D01*
G04 #@! TA.AperFunction,Conductor*
D28*
G36*
X91972425Y-75232131D02*
G01*
X91975325Y-75320726D01*
X91995454Y-75407052D01*
X92032037Y-75487793D01*
X92682037Y-76613627D01*
X92733669Y-76685680D01*
X92798366Y-76746275D01*
X92873641Y-76793084D01*
X92956602Y-76824308D01*
X93044060Y-76838748D01*
X93132655Y-76835848D01*
X93207277Y-76818448D01*
X93154898Y-76874373D01*
X93108089Y-76949648D01*
X93076865Y-77032609D01*
X93062425Y-77120067D01*
X93065325Y-77208662D01*
X93085454Y-77294988D01*
X93122037Y-77375729D01*
X94172037Y-79194383D01*
X94223669Y-79266436D01*
X94288366Y-79327031D01*
X94363641Y-79373840D01*
X94446602Y-79405064D01*
X94534060Y-79419504D01*
X94622655Y-79416604D01*
X94708982Y-79396475D01*
X94789722Y-79359892D01*
X94987015Y-79245985D01*
X96061688Y-80320658D01*
X96083610Y-80347370D01*
X96110321Y-80369291D01*
X96110322Y-80369292D01*
X96190198Y-80434845D01*
X96300570Y-80493840D01*
X96311805Y-80499845D01*
X96443756Y-80539872D01*
X96546590Y-80550000D01*
X96546592Y-80550000D01*
X96580979Y-80553387D01*
X96580980Y-80553387D01*
X96615367Y-80550000D01*
X102605613Y-80550000D01*
X102640000Y-80553387D01*
X102674387Y-80550000D01*
X102880105Y-80550000D01*
X102931233Y-80571178D01*
X103076131Y-80600000D01*
X103223869Y-80600000D01*
X103368767Y-80571178D01*
X103419895Y-80550000D01*
X103565610Y-80550000D01*
X103600000Y-80553387D01*
X103634390Y-80550000D01*
X110444529Y-80550000D01*
X110478916Y-80553387D01*
X110513303Y-80550000D01*
X110513306Y-80550000D01*
X110616140Y-80539872D01*
X110748091Y-80499845D01*
X110869697Y-80434845D01*
X110953305Y-80366230D01*
X111150174Y-80479892D01*
X111230915Y-80516475D01*
X111317241Y-80536604D01*
X111405836Y-80539504D01*
X111493294Y-80525064D01*
X111576255Y-80493840D01*
X111651530Y-80447031D01*
X111716227Y-80386436D01*
X111767859Y-80314383D01*
X112817859Y-78495729D01*
X112854442Y-78414989D01*
X112874571Y-78328662D01*
X112877471Y-78240067D01*
X112863031Y-78152609D01*
X112831807Y-78069648D01*
X112784998Y-77994373D01*
X112732619Y-77938448D01*
X112807241Y-77955848D01*
X112895836Y-77958748D01*
X112983294Y-77944308D01*
X112995202Y-77939826D01*
X113200001Y-78144625D01*
X113200000Y-81660517D01*
X113196613Y-81694904D01*
X113200000Y-81729291D01*
X113200000Y-81729293D01*
X113210128Y-81832127D01*
X113250155Y-81964078D01*
X113315155Y-82085685D01*
X113380708Y-82165561D01*
X113402630Y-82192273D01*
X113429343Y-82214196D01*
X114578430Y-83363283D01*
X114567970Y-83374451D01*
X114521161Y-83449726D01*
X114489937Y-83532687D01*
X114475497Y-83620145D01*
X114478397Y-83708740D01*
X114498526Y-83795067D01*
X114535109Y-83875808D01*
X114985109Y-84655230D01*
X115036741Y-84727282D01*
X115101438Y-84787877D01*
X115176713Y-84834686D01*
X115259674Y-84865910D01*
X115347132Y-84880350D01*
X115435727Y-84877450D01*
X115522054Y-84857321D01*
X115602795Y-84820738D01*
X116988435Y-84020738D01*
X117060487Y-83969106D01*
X117121082Y-83904409D01*
X117167891Y-83829134D01*
X117172691Y-83816382D01*
X117213205Y-83831630D01*
X117320098Y-83849279D01*
X117428380Y-83845734D01*
X117533891Y-83821133D01*
X117632574Y-83776420D01*
X118291588Y-83392865D01*
X118341916Y-83205037D01*
X117960666Y-82544693D01*
X117943346Y-82554693D01*
X117843346Y-82381487D01*
X117860666Y-82371487D01*
X117479416Y-81711143D01*
X117291588Y-81660815D01*
X116629913Y-82039760D01*
X116541849Y-82102866D01*
X116467788Y-82181940D01*
X116410577Y-82273943D01*
X116372415Y-82375340D01*
X116367882Y-82402796D01*
X116341920Y-82398510D01*
X116253325Y-82401410D01*
X116166998Y-82421539D01*
X116086257Y-82458122D01*
X115811689Y-82616644D01*
X114600000Y-81404955D01*
X114600000Y-77889064D01*
X114603387Y-77854674D01*
X114589872Y-77717450D01*
X114549845Y-77585499D01*
X114484845Y-77463893D01*
X114419292Y-77384016D01*
X114419291Y-77384015D01*
X114397370Y-77357304D01*
X114370658Y-77335382D01*
X113810939Y-76775663D01*
X113907859Y-76607793D01*
X113944442Y-76527053D01*
X113964571Y-76440726D01*
X113965679Y-76406889D01*
X114464390Y-76756090D01*
X115832710Y-77904247D01*
X117095753Y-79167290D01*
X118243910Y-80535610D01*
X118550880Y-80974008D01*
X118460647Y-80995047D01*
X118361964Y-81039760D01*
X117702950Y-81423315D01*
X117652622Y-81611143D01*
X118033872Y-82271487D01*
X118051192Y-82261487D01*
X118151192Y-82434693D01*
X118133872Y-82444693D01*
X118515122Y-83105037D01*
X118702950Y-83155365D01*
X119364625Y-82776420D01*
X119452689Y-82713314D01*
X119526750Y-82634240D01*
X119583047Y-82543706D01*
X119837175Y-82983868D01*
X119767869Y-82972425D01*
X119679274Y-82975325D01*
X119592948Y-82995454D01*
X119512207Y-83032037D01*
X118386373Y-83682037D01*
X118314320Y-83733669D01*
X118253725Y-83798366D01*
X118206916Y-83873641D01*
X118175692Y-83956602D01*
X118161252Y-84044060D01*
X118164152Y-84132655D01*
X118181552Y-84207277D01*
X118125627Y-84154898D01*
X118050352Y-84108089D01*
X117967391Y-84076865D01*
X117879933Y-84062425D01*
X117791338Y-84065325D01*
X117705012Y-84085454D01*
X117624271Y-84122037D01*
X115805617Y-85172037D01*
X115733564Y-85223669D01*
X115672969Y-85288366D01*
X115626160Y-85363641D01*
X115594936Y-85446602D01*
X115580496Y-85534060D01*
X115583396Y-85622655D01*
X115603525Y-85708982D01*
X115640108Y-85789722D01*
X115754015Y-85987015D01*
X114129343Y-87611688D01*
X114102630Y-87633611D01*
X114080709Y-87660322D01*
X114080708Y-87660323D01*
X114015155Y-87740199D01*
X113963610Y-87836633D01*
X113950155Y-87861806D01*
X113910128Y-87993757D01*
X113900000Y-88096590D01*
X113896613Y-88130980D01*
X113900000Y-88165367D01*
X113900001Y-91665601D01*
X113900000Y-91665611D01*
X113900000Y-92110050D01*
X113710051Y-92300000D01*
X110915368Y-92300000D01*
X110893263Y-92266918D01*
X110733082Y-92106737D01*
X110544729Y-91980884D01*
X110335443Y-91894194D01*
X110113265Y-91850000D01*
X109886735Y-91850000D01*
X109664557Y-91894194D01*
X109455271Y-91980884D01*
X109266918Y-92106737D01*
X109106737Y-92266918D01*
X109084632Y-92300000D01*
X103789950Y-92300000D01*
X103450000Y-91960051D01*
X103450000Y-91450000D01*
X104647339Y-91450000D01*
X104657958Y-91557819D01*
X104689408Y-91661494D01*
X104740479Y-91757042D01*
X104809210Y-91840790D01*
X104892958Y-91909521D01*
X104988506Y-91960592D01*
X105092181Y-91992042D01*
X105200000Y-92002661D01*
X105862500Y-92000000D01*
X106000000Y-91862500D01*
X106000000Y-90850000D01*
X106200000Y-90850000D01*
X106200000Y-91862500D01*
X106337500Y-92000000D01*
X107000000Y-92002661D01*
X107107819Y-91992042D01*
X107211494Y-91960592D01*
X107307042Y-91909521D01*
X107390790Y-91840790D01*
X107459521Y-91757042D01*
X107510592Y-91661494D01*
X107542042Y-91557819D01*
X107552661Y-91450000D01*
X107550993Y-91160000D01*
X108747339Y-91160000D01*
X108757958Y-91267819D01*
X108789408Y-91371494D01*
X108840479Y-91467042D01*
X108909210Y-91550790D01*
X108992958Y-91619521D01*
X109088506Y-91670592D01*
X109192181Y-91702042D01*
X109300000Y-91712661D01*
X109762500Y-91710000D01*
X109900000Y-91572500D01*
X109900000Y-90560000D01*
X110100000Y-90560000D01*
X110100000Y-91572500D01*
X110237500Y-91710000D01*
X110700000Y-91712661D01*
X110807819Y-91702042D01*
X110911494Y-91670592D01*
X111007042Y-91619521D01*
X111090790Y-91550790D01*
X111159521Y-91467042D01*
X111210592Y-91371494D01*
X111242042Y-91267819D01*
X111252661Y-91160000D01*
X111250000Y-90697500D01*
X111112500Y-90560000D01*
X110100000Y-90560000D01*
X109900000Y-90560000D01*
X108887500Y-90560000D01*
X108750000Y-90697500D01*
X108747339Y-91160000D01*
X107550993Y-91160000D01*
X107550000Y-90987500D01*
X107412500Y-90850000D01*
X106200000Y-90850000D01*
X106000000Y-90850000D01*
X104787500Y-90850000D01*
X104650000Y-90987500D01*
X104647339Y-91450000D01*
X103450000Y-91450000D01*
X103450000Y-90050000D01*
X104647339Y-90050000D01*
X104650000Y-90512500D01*
X104787500Y-90650000D01*
X106000000Y-90650000D01*
X106000000Y-89637500D01*
X106200000Y-89637500D01*
X106200000Y-90650000D01*
X107412500Y-90650000D01*
X107550000Y-90512500D01*
X107552661Y-90050000D01*
X107542042Y-89942181D01*
X107510592Y-89838506D01*
X107468631Y-89760000D01*
X108747339Y-89760000D01*
X108750000Y-90222500D01*
X108887500Y-90360000D01*
X109900000Y-90360000D01*
X109900000Y-89347500D01*
X110100000Y-89347500D01*
X110100000Y-90360000D01*
X111112500Y-90360000D01*
X111250000Y-90222500D01*
X111252661Y-89760000D01*
X111242042Y-89652181D01*
X111210592Y-89548506D01*
X111159521Y-89452958D01*
X111090790Y-89369210D01*
X111007042Y-89300479D01*
X110911494Y-89249408D01*
X110807819Y-89217958D01*
X110700000Y-89207339D01*
X110237500Y-89210000D01*
X110100000Y-89347500D01*
X109900000Y-89347500D01*
X109762500Y-89210000D01*
X109300000Y-89207339D01*
X109192181Y-89217958D01*
X109088506Y-89249408D01*
X108992958Y-89300479D01*
X108909210Y-89369210D01*
X108840479Y-89452958D01*
X108789408Y-89548506D01*
X108757958Y-89652181D01*
X108747339Y-89760000D01*
X107468631Y-89760000D01*
X107459521Y-89742958D01*
X107390790Y-89659210D01*
X107307042Y-89590479D01*
X107211494Y-89539408D01*
X107107819Y-89507958D01*
X107000000Y-89497339D01*
X106337500Y-89500000D01*
X106200000Y-89637500D01*
X106000000Y-89637500D01*
X105862500Y-89500000D01*
X105200000Y-89497339D01*
X105092181Y-89507958D01*
X104988506Y-89539408D01*
X104892958Y-89590479D01*
X104809210Y-89659210D01*
X104740479Y-89742958D01*
X104689408Y-89838506D01*
X104657958Y-89942181D01*
X104647339Y-90050000D01*
X103450000Y-90050000D01*
X103450000Y-89272105D01*
X103452177Y-89250000D01*
X103452177Y-88350000D01*
X103443489Y-88261785D01*
X103417757Y-88176959D01*
X103375971Y-88098784D01*
X103319737Y-88030263D01*
X103251216Y-87974029D01*
X103173041Y-87932243D01*
X103088215Y-87906511D01*
X103000000Y-87897823D01*
X102552861Y-87897823D01*
X102860483Y-87836633D01*
X103397349Y-87614256D01*
X103880516Y-87291415D01*
X104291415Y-86880516D01*
X104614256Y-86397349D01*
X104836633Y-85860483D01*
X104950000Y-85290550D01*
X104950000Y-84709450D01*
X104836633Y-84139517D01*
X104614256Y-83602651D01*
X104291415Y-83119484D01*
X103880516Y-82708585D01*
X103397349Y-82385744D01*
X102860483Y-82163367D01*
X102290550Y-82050000D01*
X101709450Y-82050000D01*
X101139517Y-82163367D01*
X100602651Y-82385744D01*
X100119484Y-82708585D01*
X99708585Y-83119484D01*
X99385744Y-83602651D01*
X99163367Y-84139517D01*
X99050000Y-84709450D01*
X99050000Y-85290550D01*
X99163367Y-85860483D01*
X99385744Y-86397349D01*
X99708585Y-86880516D01*
X100119484Y-87291415D01*
X100602651Y-87614256D01*
X101139517Y-87836633D01*
X101447139Y-87897823D01*
X101000000Y-87897823D01*
X100911785Y-87906511D01*
X100826959Y-87932243D01*
X100748784Y-87974029D01*
X100680263Y-88030263D01*
X100624029Y-88098784D01*
X100582243Y-88176959D01*
X100556511Y-88261785D01*
X100547823Y-88350000D01*
X100547823Y-89250000D01*
X100550001Y-89272114D01*
X100550000Y-94360050D01*
X100360051Y-94550000D01*
X99252177Y-94550000D01*
X99243489Y-94461785D01*
X99217757Y-94376959D01*
X99175971Y-94298784D01*
X99119737Y-94230263D01*
X99051216Y-94174029D01*
X98973041Y-94132243D01*
X98888215Y-94106511D01*
X98800000Y-94097823D01*
X97000000Y-94097823D01*
X96911785Y-94106511D01*
X96826959Y-94132243D01*
X96748784Y-94174029D01*
X96680263Y-94230263D01*
X96624029Y-94298784D01*
X96582243Y-94376959D01*
X96556511Y-94461785D01*
X96547823Y-94550000D01*
X96547823Y-95950000D01*
X96556511Y-96038215D01*
X96582243Y-96123041D01*
X96624029Y-96201216D01*
X96680263Y-96269737D01*
X96748784Y-96325971D01*
X96826959Y-96367757D01*
X96911785Y-96393489D01*
X97000000Y-96402177D01*
X98800000Y-96402177D01*
X98888215Y-96393489D01*
X98973041Y-96367757D01*
X99051216Y-96325971D01*
X99119737Y-96269737D01*
X99175971Y-96201216D01*
X99217757Y-96123041D01*
X99243489Y-96038215D01*
X99252177Y-95950000D01*
X100615613Y-95950000D01*
X100650000Y-95953387D01*
X100684387Y-95950000D01*
X101815612Y-95950000D01*
X101849999Y-95953387D01*
X101884386Y-95950000D01*
X104747823Y-95950000D01*
X104756511Y-96038215D01*
X104782243Y-96123041D01*
X104824029Y-96201216D01*
X104880263Y-96269737D01*
X104948784Y-96325971D01*
X105026959Y-96367757D01*
X105111785Y-96393489D01*
X105200000Y-96402177D01*
X105400001Y-96402177D01*
X105400000Y-98880105D01*
X105378822Y-98931233D01*
X105350000Y-99076131D01*
X105350000Y-99223869D01*
X105378822Y-99368767D01*
X105435359Y-99505258D01*
X105517437Y-99628097D01*
X105621903Y-99732563D01*
X105744742Y-99814641D01*
X105881233Y-99871178D01*
X106026131Y-99900000D01*
X106173869Y-99900000D01*
X106318767Y-99871178D01*
X106455258Y-99814641D01*
X106578097Y-99732563D01*
X106682563Y-99628097D01*
X106764641Y-99505258D01*
X106821178Y-99368767D01*
X106850000Y-99223869D01*
X106850000Y-99076131D01*
X106821178Y-98931233D01*
X106800000Y-98880105D01*
X106800000Y-96402177D01*
X107000000Y-96402177D01*
X107088215Y-96393489D01*
X107173041Y-96367757D01*
X107251216Y-96325971D01*
X107319737Y-96269737D01*
X107375971Y-96201216D01*
X107417757Y-96123041D01*
X107443489Y-96038215D01*
X107452177Y-95950000D01*
X107452177Y-95426735D01*
X108850000Y-95426735D01*
X108850000Y-95653265D01*
X108894194Y-95875443D01*
X108980884Y-96084729D01*
X109106737Y-96273082D01*
X109266918Y-96433263D01*
X109455271Y-96559116D01*
X109664557Y-96645806D01*
X109886735Y-96690000D01*
X110113265Y-96690000D01*
X110335443Y-96645806D01*
X110544729Y-96559116D01*
X110733082Y-96433263D01*
X110893263Y-96273082D01*
X111019116Y-96084729D01*
X111105806Y-95875443D01*
X111150000Y-95653265D01*
X111150000Y-95426735D01*
X111105806Y-95204557D01*
X111019116Y-94995271D01*
X110893263Y-94806918D01*
X110733082Y-94646737D01*
X110544729Y-94520884D01*
X110335443Y-94434194D01*
X110113265Y-94390000D01*
X109886735Y-94390000D01*
X109664557Y-94434194D01*
X109455271Y-94520884D01*
X109266918Y-94646737D01*
X109106737Y-94806918D01*
X108980884Y-94995271D01*
X108894194Y-95204557D01*
X108850000Y-95426735D01*
X107452177Y-95426735D01*
X107452177Y-94550000D01*
X107443489Y-94461785D01*
X107417757Y-94376959D01*
X107375971Y-94298784D01*
X107319737Y-94230263D01*
X107251216Y-94174029D01*
X107173041Y-94132243D01*
X107088215Y-94106511D01*
X107000000Y-94097823D01*
X105200000Y-94097823D01*
X105111785Y-94106511D01*
X105026959Y-94132243D01*
X104948784Y-94174029D01*
X104880263Y-94230263D01*
X104824029Y-94298784D01*
X104782243Y-94376959D01*
X104756511Y-94461785D01*
X104747823Y-94550000D01*
X102139950Y-94550000D01*
X101950000Y-94360051D01*
X101950000Y-89272105D01*
X101952177Y-89250000D01*
X101952177Y-88350000D01*
X101943489Y-88261785D01*
X101917757Y-88176959D01*
X101875971Y-88098784D01*
X101819737Y-88030263D01*
X101751216Y-87974029D01*
X101704372Y-87948990D01*
X101709450Y-87950000D01*
X102290550Y-87950000D01*
X102295628Y-87948990D01*
X102248784Y-87974029D01*
X102180263Y-88030263D01*
X102124029Y-88098784D01*
X102082243Y-88176959D01*
X102056511Y-88261785D01*
X102047823Y-88350000D01*
X102047823Y-89250000D01*
X102050001Y-89272113D01*
X102050000Y-92215613D01*
X102046613Y-92250000D01*
X102050000Y-92284387D01*
X102050000Y-92284389D01*
X102060128Y-92387223D01*
X102095137Y-92502631D01*
X102100155Y-92519174D01*
X102165155Y-92640781D01*
X102223749Y-92712177D01*
X102252630Y-92747369D01*
X102279342Y-92769291D01*
X102814181Y-93304131D01*
X102835359Y-93355258D01*
X102917437Y-93478097D01*
X103021903Y-93582563D01*
X103144742Y-93664641D01*
X103281233Y-93721178D01*
X103426131Y-93750000D01*
X103573869Y-93750000D01*
X103718767Y-93721178D01*
X103769895Y-93700000D01*
X109084632Y-93700000D01*
X109106737Y-93733082D01*
X109266918Y-93893263D01*
X109455271Y-94019116D01*
X109664557Y-94105806D01*
X109886735Y-94150000D01*
X110113265Y-94150000D01*
X110335443Y-94105806D01*
X110544729Y-94019116D01*
X110733082Y-93893263D01*
X110893263Y-93733082D01*
X110915368Y-93700000D01*
X113710051Y-93700000D01*
X113900000Y-93889950D01*
X113900000Y-94665610D01*
X113896613Y-94700000D01*
X113900000Y-94734390D01*
X113900001Y-95327490D01*
X113900000Y-96465610D01*
X113900000Y-96465611D01*
X113900001Y-100265601D01*
X113900000Y-100265611D01*
X113900000Y-100894529D01*
X113896613Y-100928916D01*
X113900000Y-100963303D01*
X113900000Y-100963306D01*
X113910128Y-101066140D01*
X113950155Y-101198091D01*
X113972797Y-101240449D01*
X114015155Y-101319697D01*
X114070621Y-101387282D01*
X114102631Y-101426286D01*
X114129342Y-101448207D01*
X114634015Y-101952881D01*
X114520108Y-102150174D01*
X114483525Y-102230915D01*
X114463396Y-102317241D01*
X114460496Y-102405836D01*
X114474936Y-102493294D01*
X114506160Y-102576255D01*
X114552969Y-102651530D01*
X114613564Y-102716227D01*
X114685617Y-102767859D01*
X116504271Y-103817859D01*
X116585011Y-103854442D01*
X116671338Y-103874571D01*
X116759933Y-103877471D01*
X116847391Y-103863031D01*
X116930352Y-103831807D01*
X117005627Y-103784998D01*
X117061552Y-103732619D01*
X117044152Y-103807241D01*
X117041252Y-103895836D01*
X117055692Y-103983294D01*
X117060174Y-103995202D01*
X114910851Y-106144526D01*
X111998169Y-106144526D01*
X111741878Y-105700617D01*
X111690246Y-105628565D01*
X111625549Y-105567970D01*
X111550274Y-105521161D01*
X111467313Y-105489937D01*
X111379855Y-105475497D01*
X111291260Y-105478397D01*
X111204933Y-105498526D01*
X111124192Y-105535109D01*
X110344770Y-105985109D01*
X110272718Y-106036741D01*
X110212123Y-106101438D01*
X110165314Y-106176713D01*
X110134090Y-106259674D01*
X110119650Y-106347132D01*
X110122550Y-106435727D01*
X110142679Y-106522054D01*
X110179262Y-106602795D01*
X110979262Y-107988435D01*
X111030894Y-108060487D01*
X111095591Y-108121082D01*
X111170866Y-108167891D01*
X111183618Y-108172691D01*
X111168370Y-108213205D01*
X111150721Y-108320098D01*
X111154266Y-108428380D01*
X111178867Y-108533891D01*
X111223580Y-108632574D01*
X111607135Y-109291588D01*
X111794963Y-109341916D01*
X112455307Y-108960666D01*
X112445307Y-108943346D01*
X112618513Y-108843346D01*
X112628513Y-108860666D01*
X113288857Y-108479416D01*
X113339185Y-108291588D01*
X112960240Y-107629913D01*
X112899052Y-107544526D01*
X115166413Y-107544526D01*
X115200800Y-107547913D01*
X115235187Y-107544526D01*
X115235190Y-107544526D01*
X115338024Y-107534398D01*
X115469975Y-107494371D01*
X115591581Y-107429371D01*
X115698170Y-107341896D01*
X115720096Y-107315179D01*
X118224337Y-104810939D01*
X118392207Y-104907859D01*
X118472947Y-104944442D01*
X118559274Y-104964571D01*
X118593111Y-104965679D01*
X118243910Y-105464390D01*
X117095753Y-106832710D01*
X115832710Y-108095753D01*
X114464390Y-109243910D01*
X114025992Y-109550880D01*
X114004953Y-109460647D01*
X113960240Y-109361964D01*
X113576685Y-108702950D01*
X113388857Y-108652622D01*
X112728513Y-109033872D01*
X112738513Y-109051192D01*
X112565307Y-109151192D01*
X112555307Y-109133872D01*
X111894963Y-109515122D01*
X111844635Y-109702950D01*
X112223580Y-110364625D01*
X112286686Y-110452689D01*
X112365760Y-110526750D01*
X112456294Y-110583047D01*
X112016132Y-110837175D01*
X112027575Y-110767869D01*
X112024675Y-110679274D01*
X112004546Y-110592948D01*
X111967963Y-110512207D01*
X111317963Y-109386373D01*
X111266331Y-109314320D01*
X111201634Y-109253725D01*
X111126359Y-109206916D01*
X111043398Y-109175692D01*
X110955940Y-109161252D01*
X110867345Y-109164152D01*
X110792723Y-109181552D01*
X110845102Y-109125627D01*
X110891911Y-109050352D01*
X110923135Y-108967391D01*
X110937575Y-108879933D01*
X110934675Y-108791338D01*
X110914546Y-108705012D01*
X110877963Y-108624271D01*
X109827963Y-106805617D01*
X109776331Y-106733564D01*
X109711634Y-106672969D01*
X109636359Y-106626160D01*
X109553398Y-106594936D01*
X109465940Y-106580496D01*
X109377345Y-106583396D01*
X109291018Y-106603525D01*
X109223890Y-106633940D01*
X107719296Y-105129347D01*
X107697370Y-105102630D01*
X107590781Y-105015155D01*
X107469175Y-104950155D01*
X107337224Y-104910128D01*
X107234390Y-104900000D01*
X107234387Y-104900000D01*
X107200000Y-104896613D01*
X107165613Y-104900000D01*
X101434386Y-104900000D01*
X101399999Y-104896613D01*
X101365612Y-104900000D01*
X101119895Y-104900000D01*
X101068767Y-104878822D01*
X100923869Y-104850000D01*
X100776131Y-104850000D01*
X100631233Y-104878822D01*
X100580105Y-104900000D01*
X100384387Y-104900000D01*
X100350000Y-104896613D01*
X100315613Y-104900000D01*
X94105471Y-104900000D01*
X94071084Y-104896613D01*
X94036697Y-104900000D01*
X94036694Y-104900000D01*
X93933860Y-104910128D01*
X93801909Y-104950155D01*
X93680303Y-105015155D01*
X93573714Y-105102630D01*
X93551792Y-105129342D01*
X93047119Y-105634015D01*
X92849826Y-105520108D01*
X92769085Y-105483525D01*
X92682759Y-105463396D01*
X92594164Y-105460496D01*
X92506706Y-105474936D01*
X92423745Y-105506160D01*
X92348470Y-105552969D01*
X92283773Y-105613564D01*
X92232141Y-105685617D01*
X91182141Y-107504271D01*
X91145558Y-107585011D01*
X91125429Y-107671338D01*
X91122529Y-107759933D01*
X91136969Y-107847391D01*
X91168193Y-107930352D01*
X91215002Y-108005627D01*
X91267381Y-108061552D01*
X91192759Y-108044152D01*
X91104164Y-108041252D01*
X91016706Y-108055692D01*
X91004797Y-108060174D01*
X90900000Y-107955377D01*
X90900000Y-104434390D01*
X90903387Y-104400000D01*
X90889872Y-104262776D01*
X90849845Y-104130825D01*
X90784845Y-104009219D01*
X90719292Y-103929342D01*
X90719287Y-103929337D01*
X90697369Y-103902630D01*
X90670663Y-103880713D01*
X89424035Y-102634085D01*
X89432030Y-102625549D01*
X89478839Y-102550274D01*
X89510063Y-102467313D01*
X89524503Y-102379855D01*
X89521603Y-102291260D01*
X89501474Y-102204933D01*
X89464891Y-102124192D01*
X89014891Y-101344770D01*
X88963259Y-101272718D01*
X88898562Y-101212123D01*
X88823287Y-101165314D01*
X88740326Y-101134090D01*
X88652868Y-101119650D01*
X88564273Y-101122550D01*
X88477946Y-101142679D01*
X88397205Y-101179262D01*
X87011565Y-101979262D01*
X86939513Y-102030894D01*
X86878918Y-102095591D01*
X86832109Y-102170866D01*
X86827309Y-102183618D01*
X86786795Y-102168370D01*
X86679902Y-102150721D01*
X86571620Y-102154266D01*
X86466109Y-102178867D01*
X86367426Y-102223580D01*
X85708412Y-102607135D01*
X85658084Y-102794963D01*
X86039334Y-103455307D01*
X86056654Y-103445307D01*
X86156654Y-103618513D01*
X86139334Y-103628513D01*
X86520584Y-104288857D01*
X86708412Y-104339185D01*
X87370087Y-103960240D01*
X87458151Y-103897134D01*
X87532212Y-103818060D01*
X87589423Y-103726057D01*
X87627585Y-103624660D01*
X87632118Y-103597204D01*
X87658080Y-103601490D01*
X87746675Y-103598590D01*
X87833002Y-103578461D01*
X87913743Y-103541878D01*
X88191542Y-103381491D01*
X89500000Y-104689950D01*
X89500001Y-108210929D01*
X89496613Y-108245326D01*
X89510129Y-108382549D01*
X89550155Y-108514500D01*
X89615155Y-108636107D01*
X89674599Y-108708539D01*
X89702631Y-108742696D01*
X89729342Y-108764617D01*
X90189061Y-109224336D01*
X90092141Y-109392207D01*
X90055558Y-109472947D01*
X90035429Y-109559274D01*
X90034321Y-109593111D01*
X89535610Y-109243910D01*
X88167290Y-108095753D01*
X86904247Y-106832710D01*
X85756090Y-105464390D01*
X85449120Y-105025992D01*
X85539353Y-105004953D01*
X85638036Y-104960240D01*
X86297050Y-104576685D01*
X86347378Y-104388857D01*
X85966128Y-103728513D01*
X85948808Y-103738513D01*
X85848808Y-103565307D01*
X85866128Y-103555307D01*
X85484878Y-102894963D01*
X85297050Y-102844635D01*
X84635375Y-103223580D01*
X84547311Y-103286686D01*
X84473250Y-103365760D01*
X84416953Y-103456294D01*
X84162825Y-103016132D01*
X84232131Y-103027575D01*
X84320726Y-103024675D01*
X84407052Y-103004546D01*
X84487793Y-102967963D01*
X85613627Y-102317963D01*
X85685680Y-102266331D01*
X85746275Y-102201634D01*
X85793084Y-102126359D01*
X85824308Y-102043398D01*
X85838748Y-101955940D01*
X85835848Y-101867345D01*
X85818448Y-101792723D01*
X85874373Y-101845102D01*
X85949648Y-101891911D01*
X86032609Y-101923135D01*
X86120067Y-101937575D01*
X86208662Y-101934675D01*
X86294988Y-101914546D01*
X86375729Y-101877963D01*
X88194383Y-100827963D01*
X88266436Y-100776331D01*
X88327031Y-100711634D01*
X88328389Y-100709450D01*
X99050000Y-100709450D01*
X99050000Y-101290550D01*
X99163367Y-101860483D01*
X99385744Y-102397349D01*
X99708585Y-102880516D01*
X100119484Y-103291415D01*
X100602651Y-103614256D01*
X101139517Y-103836633D01*
X101709450Y-103950000D01*
X102290550Y-103950000D01*
X102860483Y-103836633D01*
X103397349Y-103614256D01*
X103880516Y-103291415D01*
X104291415Y-102880516D01*
X104614256Y-102397349D01*
X104836633Y-101860483D01*
X104950000Y-101290550D01*
X104950000Y-100709450D01*
X104836633Y-100139517D01*
X104614256Y-99602651D01*
X104291415Y-99119484D01*
X103880516Y-98708585D01*
X103397349Y-98385744D01*
X102860483Y-98163367D01*
X102290550Y-98050000D01*
X101709450Y-98050000D01*
X101139517Y-98163367D01*
X100602651Y-98385744D01*
X100119484Y-98708585D01*
X99708585Y-99119484D01*
X99385744Y-99602651D01*
X99163367Y-100139517D01*
X99050000Y-100709450D01*
X88328389Y-100709450D01*
X88373840Y-100636359D01*
X88405064Y-100553398D01*
X88419504Y-100465940D01*
X88416604Y-100377345D01*
X88396475Y-100291018D01*
X88359892Y-100210278D01*
X88348830Y-100191119D01*
X89870663Y-98669287D01*
X89897369Y-98647370D01*
X89919287Y-98620663D01*
X89919292Y-98620658D01*
X89984845Y-98540782D01*
X90049845Y-98419175D01*
X90059986Y-98385744D01*
X90089872Y-98287224D01*
X90100000Y-98184390D01*
X90100000Y-98184388D01*
X90103387Y-98150001D01*
X90100000Y-98115614D01*
X90100000Y-95426735D01*
X92850000Y-95426735D01*
X92850000Y-95653265D01*
X92894194Y-95875443D01*
X92980884Y-96084729D01*
X93106737Y-96273082D01*
X93266918Y-96433263D01*
X93455271Y-96559116D01*
X93664557Y-96645806D01*
X93886735Y-96690000D01*
X94113265Y-96690000D01*
X94335443Y-96645806D01*
X94544729Y-96559116D01*
X94733082Y-96433263D01*
X94893263Y-96273082D01*
X95019116Y-96084729D01*
X95105806Y-95875443D01*
X95150000Y-95653265D01*
X95150000Y-95426735D01*
X95105806Y-95204557D01*
X95019116Y-94995271D01*
X94893263Y-94806918D01*
X94733082Y-94646737D01*
X94544729Y-94520884D01*
X94335443Y-94434194D01*
X94113265Y-94390000D01*
X93886735Y-94390000D01*
X93664557Y-94434194D01*
X93455271Y-94520884D01*
X93266918Y-94646737D01*
X93106737Y-94806918D01*
X92980884Y-94995271D01*
X92894194Y-95204557D01*
X92850000Y-95426735D01*
X90100000Y-95426735D01*
X90100000Y-93889949D01*
X90289950Y-93700000D01*
X93084632Y-93700000D01*
X93106737Y-93733082D01*
X93266918Y-93893263D01*
X93455271Y-94019116D01*
X93664557Y-94105806D01*
X93886735Y-94150000D01*
X94113265Y-94150000D01*
X94335443Y-94105806D01*
X94544729Y-94019116D01*
X94733082Y-93893263D01*
X94893263Y-93733082D01*
X95019116Y-93544729D01*
X95105806Y-93335443D01*
X95150000Y-93113265D01*
X95150000Y-92886735D01*
X95105806Y-92664557D01*
X95019116Y-92455271D01*
X94893263Y-92266918D01*
X94733082Y-92106737D01*
X94544729Y-91980884D01*
X94335443Y-91894194D01*
X94113265Y-91850000D01*
X93886735Y-91850000D01*
X93664557Y-91894194D01*
X93455271Y-91980884D01*
X93266918Y-92106737D01*
X93106737Y-92266918D01*
X93084632Y-92300000D01*
X90289949Y-92300000D01*
X90100000Y-92110051D01*
X90100000Y-91344387D01*
X90103387Y-91310000D01*
X90100000Y-91275613D01*
X90100000Y-91160000D01*
X92747339Y-91160000D01*
X92757958Y-91267819D01*
X92789408Y-91371494D01*
X92840479Y-91467042D01*
X92909210Y-91550790D01*
X92992958Y-91619521D01*
X93088506Y-91670592D01*
X93192181Y-91702042D01*
X93300000Y-91712661D01*
X93762500Y-91710000D01*
X93900000Y-91572500D01*
X93900000Y-90560000D01*
X94100000Y-90560000D01*
X94100000Y-91572500D01*
X94237500Y-91710000D01*
X94700000Y-91712661D01*
X94807819Y-91702042D01*
X94911494Y-91670592D01*
X95007042Y-91619521D01*
X95090790Y-91550790D01*
X95159521Y-91467042D01*
X95168630Y-91450000D01*
X96447339Y-91450000D01*
X96457958Y-91557819D01*
X96489408Y-91661494D01*
X96540479Y-91757042D01*
X96609210Y-91840790D01*
X96692958Y-91909521D01*
X96788506Y-91960592D01*
X96892181Y-91992042D01*
X97000000Y-92002661D01*
X97662500Y-92000000D01*
X97800000Y-91862500D01*
X97800000Y-90850000D01*
X98000000Y-90850000D01*
X98000000Y-91862500D01*
X98137500Y-92000000D01*
X98800000Y-92002661D01*
X98907819Y-91992042D01*
X99011494Y-91960592D01*
X99107042Y-91909521D01*
X99190790Y-91840790D01*
X99259521Y-91757042D01*
X99310592Y-91661494D01*
X99342042Y-91557819D01*
X99352661Y-91450000D01*
X99350000Y-90987500D01*
X99212500Y-90850000D01*
X98000000Y-90850000D01*
X97800000Y-90850000D01*
X96587500Y-90850000D01*
X96450000Y-90987500D01*
X96447339Y-91450000D01*
X95168630Y-91450000D01*
X95210592Y-91371494D01*
X95242042Y-91267819D01*
X95252661Y-91160000D01*
X95250000Y-90697500D01*
X95112500Y-90560000D01*
X94100000Y-90560000D01*
X93900000Y-90560000D01*
X92887500Y-90560000D01*
X92750000Y-90697500D01*
X92747339Y-91160000D01*
X90100000Y-91160000D01*
X90100000Y-89760000D01*
X92747339Y-89760000D01*
X92750000Y-90222500D01*
X92887500Y-90360000D01*
X93900000Y-90360000D01*
X93900000Y-89347500D01*
X94100000Y-89347500D01*
X94100000Y-90360000D01*
X95112500Y-90360000D01*
X95250000Y-90222500D01*
X95250992Y-90050000D01*
X96447339Y-90050000D01*
X96450000Y-90512500D01*
X96587500Y-90650000D01*
X97800000Y-90650000D01*
X97800000Y-89637500D01*
X98000000Y-89637500D01*
X98000000Y-90650000D01*
X99212500Y-90650000D01*
X99350000Y-90512500D01*
X99352661Y-90050000D01*
X99342042Y-89942181D01*
X99310592Y-89838506D01*
X99259521Y-89742958D01*
X99190790Y-89659210D01*
X99107042Y-89590479D01*
X99011494Y-89539408D01*
X98907819Y-89507958D01*
X98800000Y-89497339D01*
X98137500Y-89500000D01*
X98000000Y-89637500D01*
X97800000Y-89637500D01*
X97662500Y-89500000D01*
X97000000Y-89497339D01*
X96892181Y-89507958D01*
X96788506Y-89539408D01*
X96692958Y-89590479D01*
X96609210Y-89659210D01*
X96540479Y-89742958D01*
X96489408Y-89838506D01*
X96457958Y-89942181D01*
X96447339Y-90050000D01*
X95250992Y-90050000D01*
X95252661Y-89760000D01*
X95242042Y-89652181D01*
X95210592Y-89548506D01*
X95159521Y-89452958D01*
X95090790Y-89369210D01*
X95007042Y-89300479D01*
X94911494Y-89249408D01*
X94807819Y-89217958D01*
X94700000Y-89207339D01*
X94237500Y-89210000D01*
X94100000Y-89347500D01*
X93900000Y-89347500D01*
X93762500Y-89210000D01*
X93300000Y-89207339D01*
X93192181Y-89217958D01*
X93088506Y-89249408D01*
X92992958Y-89300479D01*
X92909210Y-89369210D01*
X92840479Y-89452958D01*
X92789408Y-89548506D01*
X92757958Y-89652181D01*
X92747339Y-89760000D01*
X90100000Y-89760000D01*
X90100000Y-85105471D01*
X90103387Y-85071084D01*
X90098816Y-85024675D01*
X90089872Y-84933860D01*
X90049845Y-84801909D01*
X89984845Y-84680303D01*
X89897370Y-84573714D01*
X89870658Y-84551792D01*
X89365985Y-84047119D01*
X89479892Y-83849826D01*
X89516475Y-83769085D01*
X89536604Y-83682759D01*
X89539504Y-83594164D01*
X89525064Y-83506706D01*
X89493840Y-83423745D01*
X89447031Y-83348470D01*
X89386436Y-83283773D01*
X89314383Y-83232141D01*
X87495729Y-82182141D01*
X87414989Y-82145558D01*
X87328662Y-82125429D01*
X87240067Y-82122529D01*
X87152609Y-82136969D01*
X87069648Y-82168193D01*
X86994373Y-82215002D01*
X86938448Y-82267381D01*
X86955848Y-82192759D01*
X86958748Y-82104164D01*
X86944308Y-82016706D01*
X86939826Y-82004798D01*
X86944624Y-82000000D01*
X90465613Y-82000000D01*
X90500000Y-82003387D01*
X90534387Y-82000000D01*
X90534390Y-82000000D01*
X90637224Y-81989872D01*
X90769175Y-81949845D01*
X90890781Y-81884845D01*
X90997370Y-81797370D01*
X91019296Y-81770653D01*
X92365915Y-80424035D01*
X92374451Y-80432030D01*
X92449726Y-80478839D01*
X92532687Y-80510063D01*
X92620145Y-80524503D01*
X92708740Y-80521603D01*
X92795067Y-80501474D01*
X92875808Y-80464891D01*
X93655230Y-80014891D01*
X93727282Y-79963259D01*
X93787877Y-79898562D01*
X93834686Y-79823287D01*
X93865910Y-79740326D01*
X93880350Y-79652868D01*
X93877450Y-79564273D01*
X93857321Y-79477946D01*
X93820738Y-79397205D01*
X93020738Y-78011565D01*
X92969106Y-77939513D01*
X92904409Y-77878918D01*
X92829134Y-77832109D01*
X92816382Y-77827309D01*
X92831630Y-77786795D01*
X92849279Y-77679902D01*
X92845734Y-77571620D01*
X92821133Y-77466109D01*
X92776420Y-77367426D01*
X92392865Y-76708412D01*
X92205037Y-76658084D01*
X91544693Y-77039334D01*
X91554693Y-77056654D01*
X91381487Y-77156654D01*
X91371487Y-77139334D01*
X90711143Y-77520584D01*
X90660815Y-77708412D01*
X91039760Y-78370087D01*
X91102866Y-78458151D01*
X91181940Y-78532212D01*
X91273943Y-78589423D01*
X91375340Y-78627585D01*
X91402796Y-78632118D01*
X91398510Y-78658080D01*
X91401410Y-78746675D01*
X91421539Y-78833002D01*
X91458122Y-78913743D01*
X91618509Y-79191541D01*
X90210051Y-80600000D01*
X86689061Y-80600000D01*
X86654674Y-80596613D01*
X86620287Y-80600000D01*
X86620284Y-80600000D01*
X86517450Y-80610128D01*
X86385499Y-80650155D01*
X86263892Y-80715155D01*
X86184016Y-80780708D01*
X86157304Y-80802630D01*
X86135382Y-80829342D01*
X85775663Y-81189061D01*
X85607793Y-81092141D01*
X85527053Y-81055558D01*
X85440726Y-81035429D01*
X85406889Y-81034321D01*
X85756090Y-80535610D01*
X86904247Y-79167290D01*
X88167290Y-77904247D01*
X89535610Y-76756090D01*
X89974008Y-76449120D01*
X89995047Y-76539353D01*
X90039760Y-76638036D01*
X90423315Y-77297050D01*
X90611143Y-77347378D01*
X91271487Y-76966128D01*
X91261487Y-76948808D01*
X91434693Y-76848808D01*
X91444693Y-76866128D01*
X92105037Y-76484878D01*
X92155365Y-76297050D01*
X91776420Y-75635375D01*
X91713314Y-75547311D01*
X91634240Y-75473250D01*
X91543706Y-75416953D01*
X91983868Y-75162825D01*
X91972425Y-75232131D01*
G37*
G04 #@! TD.AperFunction*
D27*
X120422243Y-94843041D02*
X120464029Y-94921216D01*
X120520263Y-94989737D01*
X120588784Y-95045971D01*
X120666959Y-95087757D01*
X120751785Y-95113489D01*
X120790000Y-95117253D01*
X120790000Y-95554006D01*
X117067363Y-99276644D01*
X116792795Y-99118122D01*
X116712054Y-99081539D01*
X116625727Y-99061410D01*
X116537132Y-99058510D01*
X116449674Y-99072950D01*
X116366713Y-99104174D01*
X116291438Y-99150983D01*
X116226741Y-99211578D01*
X116175109Y-99283630D01*
X115725109Y-100063052D01*
X115688526Y-100143793D01*
X115668397Y-100230120D01*
X115665497Y-100318715D01*
X115679937Y-100406173D01*
X115711161Y-100489134D01*
X115757970Y-100564409D01*
X115818565Y-100629106D01*
X115890617Y-100680738D01*
X117276257Y-101480738D01*
X117356998Y-101517321D01*
X117443325Y-101537450D01*
X117531920Y-101540350D01*
X117545363Y-101538130D01*
X117552415Y-101580840D01*
X117590577Y-101682237D01*
X117647788Y-101774240D01*
X117721849Y-101853314D01*
X117809913Y-101916420D01*
X118471588Y-102295365D01*
X118659416Y-102245037D01*
X119040666Y-101584693D01*
X119023346Y-101574693D01*
X119123346Y-101401487D01*
X119140666Y-101411487D01*
X119521916Y-100751143D01*
X119471588Y-100563315D01*
X118812574Y-100179760D01*
X118713891Y-100135047D01*
X118608380Y-100110446D01*
X118500098Y-100106901D01*
X118393205Y-100124550D01*
X118367160Y-100134352D01*
X118357891Y-100109726D01*
X118311082Y-100034451D01*
X118300622Y-100023283D01*
X121960663Y-96363243D01*
X121987369Y-96341326D01*
X122009287Y-96314619D01*
X122009292Y-96314614D01*
X122074845Y-96234737D01*
X122139845Y-96113131D01*
X122143055Y-96102549D01*
X122179872Y-95981180D01*
X122190000Y-95878346D01*
X122190000Y-95878343D01*
X122193387Y-95843956D01*
X122190000Y-95809569D01*
X122190000Y-95117253D01*
X122228215Y-95113489D01*
X122313041Y-95087757D01*
X122352856Y-95066475D01*
X122299834Y-95672524D01*
X121989661Y-97431601D01*
X121527355Y-99156951D01*
X120916433Y-100835443D01*
X120695284Y-101309698D01*
X120632689Y-101242866D01*
X120544625Y-101179760D01*
X119882950Y-100800815D01*
X119695122Y-100851143D01*
X119313872Y-101511487D01*
X119331192Y-101521487D01*
X119231192Y-101694693D01*
X119213872Y-101684693D01*
X118832622Y-102345037D01*
X118882950Y-102532865D01*
X119541964Y-102916420D01*
X119640647Y-102961133D01*
X119746158Y-102985734D01*
X119852711Y-102989222D01*
X119598584Y-103429384D01*
X119573840Y-103363641D01*
X119527031Y-103288366D01*
X119466436Y-103223669D01*
X119394383Y-103172037D01*
X118268549Y-102522037D01*
X118187809Y-102485454D01*
X118101482Y-102465325D01*
X118012887Y-102462425D01*
X117925429Y-102476865D01*
X117842468Y-102508089D01*
X117767193Y-102554898D01*
X117711268Y-102607277D01*
X117728668Y-102532655D01*
X117731568Y-102444060D01*
X117717128Y-102356602D01*
X117685904Y-102273641D01*
X117639095Y-102198366D01*
X117578500Y-102133669D01*
X117506447Y-102082037D01*
X115700279Y-101039246D01*
X115300000Y-100638967D01*
X115300000Y-94989949D01*
X115469950Y-94820000D01*
X117435254Y-94820000D01*
X117442243Y-94843041D01*
X117484029Y-94921216D01*
X117540263Y-94989737D01*
X117608784Y-95045971D01*
X117686959Y-95087757D01*
X117771785Y-95113489D01*
X117860000Y-95122177D01*
X119960000Y-95122177D01*
X120048215Y-95113489D01*
X120133041Y-95087757D01*
X120211216Y-95045971D01*
X120279737Y-94989737D01*
X120335971Y-94921216D01*
X120377757Y-94843041D01*
X120400000Y-94769717D01*
X120422243Y-94843041D01*
G04 #@! TA.AperFunction,Conductor*
D28*
G36*
X120422243Y-94843041D02*
G01*
X120464029Y-94921216D01*
X120520263Y-94989737D01*
X120588784Y-95045971D01*
X120666959Y-95087757D01*
X120751785Y-95113489D01*
X120790000Y-95117253D01*
X120790000Y-95554006D01*
X117067363Y-99276644D01*
X116792795Y-99118122D01*
X116712054Y-99081539D01*
X116625727Y-99061410D01*
X116537132Y-99058510D01*
X116449674Y-99072950D01*
X116366713Y-99104174D01*
X116291438Y-99150983D01*
X116226741Y-99211578D01*
X116175109Y-99283630D01*
X115725109Y-100063052D01*
X115688526Y-100143793D01*
X115668397Y-100230120D01*
X115665497Y-100318715D01*
X115679937Y-100406173D01*
X115711161Y-100489134D01*
X115757970Y-100564409D01*
X115818565Y-100629106D01*
X115890617Y-100680738D01*
X117276257Y-101480738D01*
X117356998Y-101517321D01*
X117443325Y-101537450D01*
X117531920Y-101540350D01*
X117545363Y-101538130D01*
X117552415Y-101580840D01*
X117590577Y-101682237D01*
X117647788Y-101774240D01*
X117721849Y-101853314D01*
X117809913Y-101916420D01*
X118471588Y-102295365D01*
X118659416Y-102245037D01*
X119040666Y-101584693D01*
X119023346Y-101574693D01*
X119123346Y-101401487D01*
X119140666Y-101411487D01*
X119521916Y-100751143D01*
X119471588Y-100563315D01*
X118812574Y-100179760D01*
X118713891Y-100135047D01*
X118608380Y-100110446D01*
X118500098Y-100106901D01*
X118393205Y-100124550D01*
X118367160Y-100134352D01*
X118357891Y-100109726D01*
X118311082Y-100034451D01*
X118300622Y-100023283D01*
X121960663Y-96363243D01*
X121987369Y-96341326D01*
X122009287Y-96314619D01*
X122009292Y-96314614D01*
X122074845Y-96234737D01*
X122139845Y-96113131D01*
X122143055Y-96102549D01*
X122179872Y-95981180D01*
X122190000Y-95878346D01*
X122190000Y-95878343D01*
X122193387Y-95843956D01*
X122190000Y-95809569D01*
X122190000Y-95117253D01*
X122228215Y-95113489D01*
X122313041Y-95087757D01*
X122352856Y-95066475D01*
X122299834Y-95672524D01*
X121989661Y-97431601D01*
X121527355Y-99156951D01*
X120916433Y-100835443D01*
X120695284Y-101309698D01*
X120632689Y-101242866D01*
X120544625Y-101179760D01*
X119882950Y-100800815D01*
X119695122Y-100851143D01*
X119313872Y-101511487D01*
X119331192Y-101521487D01*
X119231192Y-101694693D01*
X119213872Y-101684693D01*
X118832622Y-102345037D01*
X118882950Y-102532865D01*
X119541964Y-102916420D01*
X119640647Y-102961133D01*
X119746158Y-102985734D01*
X119852711Y-102989222D01*
X119598584Y-103429384D01*
X119573840Y-103363641D01*
X119527031Y-103288366D01*
X119466436Y-103223669D01*
X119394383Y-103172037D01*
X118268549Y-102522037D01*
X118187809Y-102485454D01*
X118101482Y-102465325D01*
X118012887Y-102462425D01*
X117925429Y-102476865D01*
X117842468Y-102508089D01*
X117767193Y-102554898D01*
X117711268Y-102607277D01*
X117728668Y-102532655D01*
X117731568Y-102444060D01*
X117717128Y-102356602D01*
X117685904Y-102273641D01*
X117639095Y-102198366D01*
X117578500Y-102133669D01*
X117506447Y-102082037D01*
X115700279Y-101039246D01*
X115300000Y-100638967D01*
X115300000Y-94989949D01*
X115469950Y-94820000D01*
X117435254Y-94820000D01*
X117442243Y-94843041D01*
X117484029Y-94921216D01*
X117540263Y-94989737D01*
X117608784Y-95045971D01*
X117686959Y-95087757D01*
X117771785Y-95113489D01*
X117860000Y-95122177D01*
X119960000Y-95122177D01*
X120048215Y-95113489D01*
X120133041Y-95087757D01*
X120211216Y-95045971D01*
X120279737Y-94989737D01*
X120335971Y-94921216D01*
X120377757Y-94843041D01*
X120400000Y-94769717D01*
X120422243Y-94843041D01*
G37*
G04 #@! TD.AperFunction*
D27*
X83622243Y-92603041D02*
X83664029Y-92681216D01*
X83720263Y-92749737D01*
X83788784Y-92805971D01*
X83866959Y-92847757D01*
X83951785Y-92873489D01*
X84040000Y-92882177D01*
X86140000Y-92882177D01*
X86228215Y-92873489D01*
X86313041Y-92847757D01*
X86391216Y-92805971D01*
X86459737Y-92749737D01*
X86515971Y-92681216D01*
X86557757Y-92603041D01*
X86564746Y-92580000D01*
X88540051Y-92580000D01*
X88700000Y-92739950D01*
X88700000Y-93565609D01*
X88696613Y-93600000D01*
X88700000Y-93634390D01*
X88700000Y-94934389D01*
X88700001Y-94934399D01*
X88700000Y-97860050D01*
X87516234Y-99043817D01*
X87447869Y-99032529D01*
X87359274Y-99035429D01*
X87272948Y-99055558D01*
X87192207Y-99092141D01*
X85373553Y-100142141D01*
X85301500Y-100193773D01*
X85249622Y-100249163D01*
X85249622Y-95270327D01*
X85427772Y-95092177D01*
X86140000Y-95092177D01*
X86228215Y-95083489D01*
X86313041Y-95057757D01*
X86391216Y-95015971D01*
X86459737Y-94959737D01*
X86515971Y-94891216D01*
X86557757Y-94813041D01*
X86583489Y-94728215D01*
X86592177Y-94640000D01*
X86592177Y-93740000D01*
X86583489Y-93651785D01*
X86557757Y-93566959D01*
X86515971Y-93488784D01*
X86459737Y-93420263D01*
X86391216Y-93364029D01*
X86313041Y-93322243D01*
X86228215Y-93296511D01*
X86140000Y-93287823D01*
X84540000Y-93287823D01*
X84451785Y-93296511D01*
X84366959Y-93322243D01*
X84288784Y-93364029D01*
X84278252Y-93372672D01*
X84250790Y-93339210D01*
X84167042Y-93270479D01*
X84071494Y-93219408D01*
X83967819Y-93187958D01*
X83860000Y-93177339D01*
X83097500Y-93180000D01*
X82960000Y-93317500D01*
X82960000Y-94080000D01*
X82980000Y-94080000D01*
X82980000Y-94280000D01*
X82960000Y-94280000D01*
X82960000Y-95042500D01*
X83097500Y-95180000D01*
X83849622Y-95182625D01*
X83849623Y-101021982D01*
X83485617Y-101232141D01*
X83413564Y-101283773D01*
X83352969Y-101348470D01*
X83335726Y-101376200D01*
X83083567Y-100835443D01*
X82472645Y-99156951D01*
X82010339Y-97431601D01*
X81717653Y-95771696D01*
X81724073Y-95731184D01*
X81720149Y-95628797D01*
X81719104Y-95621542D01*
X81699525Y-95492001D01*
X81690320Y-95455609D01*
X81683029Y-95418767D01*
X81680862Y-95411764D01*
X81676015Y-95396480D01*
X81653768Y-95142188D01*
X81752181Y-95172042D01*
X81860000Y-95182661D01*
X82622500Y-95180000D01*
X82760000Y-95042500D01*
X82760000Y-94280000D01*
X82740000Y-94280000D01*
X82740000Y-94080000D01*
X82760000Y-94080000D01*
X82760000Y-93317500D01*
X82622500Y-93180000D01*
X81860000Y-93177339D01*
X81752181Y-93187958D01*
X81750402Y-93188498D01*
X81741383Y-93175000D01*
X81762487Y-93143416D01*
X81817139Y-93011475D01*
X81843187Y-92880521D01*
X81860000Y-92882177D01*
X83160000Y-92882177D01*
X83248215Y-92873489D01*
X83333041Y-92847757D01*
X83411216Y-92805971D01*
X83479737Y-92749737D01*
X83535971Y-92681216D01*
X83577757Y-92603041D01*
X83600000Y-92529717D01*
X83622243Y-92603041D01*
G04 #@! TA.AperFunction,Conductor*
D28*
G36*
X83622243Y-92603041D02*
G01*
X83664029Y-92681216D01*
X83720263Y-92749737D01*
X83788784Y-92805971D01*
X83866959Y-92847757D01*
X83951785Y-92873489D01*
X84040000Y-92882177D01*
X86140000Y-92882177D01*
X86228215Y-92873489D01*
X86313041Y-92847757D01*
X86391216Y-92805971D01*
X86459737Y-92749737D01*
X86515971Y-92681216D01*
X86557757Y-92603041D01*
X86564746Y-92580000D01*
X88540051Y-92580000D01*
X88700000Y-92739950D01*
X88700000Y-93565609D01*
X88696613Y-93600000D01*
X88700000Y-93634390D01*
X88700000Y-94934389D01*
X88700001Y-94934399D01*
X88700000Y-97860050D01*
X87516234Y-99043817D01*
X87447869Y-99032529D01*
X87359274Y-99035429D01*
X87272948Y-99055558D01*
X87192207Y-99092141D01*
X85373553Y-100142141D01*
X85301500Y-100193773D01*
X85249622Y-100249163D01*
X85249622Y-95270327D01*
X85427772Y-95092177D01*
X86140000Y-95092177D01*
X86228215Y-95083489D01*
X86313041Y-95057757D01*
X86391216Y-95015971D01*
X86459737Y-94959737D01*
X86515971Y-94891216D01*
X86557757Y-94813041D01*
X86583489Y-94728215D01*
X86592177Y-94640000D01*
X86592177Y-93740000D01*
X86583489Y-93651785D01*
X86557757Y-93566959D01*
X86515971Y-93488784D01*
X86459737Y-93420263D01*
X86391216Y-93364029D01*
X86313041Y-93322243D01*
X86228215Y-93296511D01*
X86140000Y-93287823D01*
X84540000Y-93287823D01*
X84451785Y-93296511D01*
X84366959Y-93322243D01*
X84288784Y-93364029D01*
X84278252Y-93372672D01*
X84250790Y-93339210D01*
X84167042Y-93270479D01*
X84071494Y-93219408D01*
X83967819Y-93187958D01*
X83860000Y-93177339D01*
X83097500Y-93180000D01*
X82960000Y-93317500D01*
X82960000Y-94080000D01*
X82980000Y-94080000D01*
X82980000Y-94280000D01*
X82960000Y-94280000D01*
X82960000Y-95042500D01*
X83097500Y-95180000D01*
X83849622Y-95182625D01*
X83849623Y-101021982D01*
X83485617Y-101232141D01*
X83413564Y-101283773D01*
X83352969Y-101348470D01*
X83335726Y-101376200D01*
X83083567Y-100835443D01*
X82472645Y-99156951D01*
X82010339Y-97431601D01*
X81717653Y-95771696D01*
X81724073Y-95731184D01*
X81720149Y-95628797D01*
X81719104Y-95621542D01*
X81699525Y-95492001D01*
X81690320Y-95455609D01*
X81683029Y-95418767D01*
X81680862Y-95411764D01*
X81676015Y-95396480D01*
X81653768Y-95142188D01*
X81752181Y-95172042D01*
X81860000Y-95182661D01*
X82622500Y-95180000D01*
X82760000Y-95042500D01*
X82760000Y-94280000D01*
X82740000Y-94280000D01*
X82740000Y-94080000D01*
X82760000Y-94080000D01*
X82760000Y-93317500D01*
X82622500Y-93180000D01*
X81860000Y-93177339D01*
X81752181Y-93187958D01*
X81750402Y-93188498D01*
X81741383Y-93175000D01*
X81762487Y-93143416D01*
X81817139Y-93011475D01*
X81843187Y-92880521D01*
X81860000Y-92882177D01*
X83160000Y-92882177D01*
X83248215Y-92873489D01*
X83333041Y-92847757D01*
X83411216Y-92805971D01*
X83479737Y-92749737D01*
X83535971Y-92681216D01*
X83577757Y-92603041D01*
X83600000Y-92529717D01*
X83622243Y-92603041D01*
G37*
G04 #@! TD.AperFunction*
D27*
X120916433Y-85164557D02*
X121527355Y-86843049D01*
X121989661Y-88568399D01*
X122299834Y-90327476D01*
X122346232Y-90857812D01*
X122247819Y-90827958D01*
X122140000Y-90817339D01*
X121377500Y-90820000D01*
X121240000Y-90957500D01*
X121240000Y-91720000D01*
X121260000Y-91720000D01*
X121260000Y-91920000D01*
X121240000Y-91920000D01*
X121240000Y-92682500D01*
X121377500Y-92820000D01*
X122140000Y-92822661D01*
X122207447Y-92816018D01*
X122195000Y-92878594D01*
X122195000Y-93021406D01*
X122215660Y-93125275D01*
X122140000Y-93117823D01*
X120840000Y-93117823D01*
X120751785Y-93126511D01*
X120666959Y-93152243D01*
X120588784Y-93194029D01*
X120520263Y-93250263D01*
X120464029Y-93318784D01*
X120422243Y-93396959D01*
X120400000Y-93470283D01*
X120377757Y-93396959D01*
X120335971Y-93318784D01*
X120279737Y-93250263D01*
X120211216Y-93194029D01*
X120133041Y-93152243D01*
X120048215Y-93126511D01*
X119960000Y-93117823D01*
X117860000Y-93117823D01*
X117771785Y-93126511D01*
X117686959Y-93152243D01*
X117608784Y-93194029D01*
X117540263Y-93250263D01*
X117484029Y-93318784D01*
X117442243Y-93396959D01*
X117435254Y-93420000D01*
X115409950Y-93420000D01*
X115300000Y-93310051D01*
X115300000Y-92434388D01*
X115303387Y-92400001D01*
X115300000Y-92365614D01*
X115300000Y-88420929D01*
X116820280Y-86900650D01*
X118626447Y-85857859D01*
X118698500Y-85806227D01*
X118750379Y-85750836D01*
X118750378Y-90729673D01*
X118572228Y-90907823D01*
X117860000Y-90907823D01*
X117771785Y-90916511D01*
X117686959Y-90942243D01*
X117608784Y-90984029D01*
X117540263Y-91040263D01*
X117484029Y-91108784D01*
X117442243Y-91186959D01*
X117416511Y-91271785D01*
X117407823Y-91360000D01*
X117407823Y-92260000D01*
X117416511Y-92348215D01*
X117442243Y-92433041D01*
X117484029Y-92511216D01*
X117540263Y-92579737D01*
X117608784Y-92635971D01*
X117686959Y-92677757D01*
X117771785Y-92703489D01*
X117860000Y-92712177D01*
X119460000Y-92712177D01*
X119548215Y-92703489D01*
X119633041Y-92677757D01*
X119711216Y-92635971D01*
X119721748Y-92627328D01*
X119749210Y-92660790D01*
X119832958Y-92729521D01*
X119928506Y-92780592D01*
X120032181Y-92812042D01*
X120140000Y-92822661D01*
X120902500Y-92820000D01*
X121040000Y-92682500D01*
X121040000Y-91920000D01*
X121020000Y-91920000D01*
X121020000Y-91720000D01*
X121040000Y-91720000D01*
X121040000Y-90957500D01*
X120902500Y-90820000D01*
X120150378Y-90817375D01*
X120150378Y-84978017D01*
X120514383Y-84767859D01*
X120586436Y-84716227D01*
X120647031Y-84651530D01*
X120664274Y-84623800D01*
X120916433Y-85164557D01*
G04 #@! TA.AperFunction,Conductor*
D28*
G36*
X120916433Y-85164557D02*
G01*
X121527355Y-86843049D01*
X121989661Y-88568399D01*
X122299834Y-90327476D01*
X122346232Y-90857812D01*
X122247819Y-90827958D01*
X122140000Y-90817339D01*
X121377500Y-90820000D01*
X121240000Y-90957500D01*
X121240000Y-91720000D01*
X121260000Y-91720000D01*
X121260000Y-91920000D01*
X121240000Y-91920000D01*
X121240000Y-92682500D01*
X121377500Y-92820000D01*
X122140000Y-92822661D01*
X122207447Y-92816018D01*
X122195000Y-92878594D01*
X122195000Y-93021406D01*
X122215660Y-93125275D01*
X122140000Y-93117823D01*
X120840000Y-93117823D01*
X120751785Y-93126511D01*
X120666959Y-93152243D01*
X120588784Y-93194029D01*
X120520263Y-93250263D01*
X120464029Y-93318784D01*
X120422243Y-93396959D01*
X120400000Y-93470283D01*
X120377757Y-93396959D01*
X120335971Y-93318784D01*
X120279737Y-93250263D01*
X120211216Y-93194029D01*
X120133041Y-93152243D01*
X120048215Y-93126511D01*
X119960000Y-93117823D01*
X117860000Y-93117823D01*
X117771785Y-93126511D01*
X117686959Y-93152243D01*
X117608784Y-93194029D01*
X117540263Y-93250263D01*
X117484029Y-93318784D01*
X117442243Y-93396959D01*
X117435254Y-93420000D01*
X115409950Y-93420000D01*
X115300000Y-93310051D01*
X115300000Y-92434388D01*
X115303387Y-92400001D01*
X115300000Y-92365614D01*
X115300000Y-88420929D01*
X116820280Y-86900650D01*
X118626447Y-85857859D01*
X118698500Y-85806227D01*
X118750379Y-85750836D01*
X118750378Y-90729673D01*
X118572228Y-90907823D01*
X117860000Y-90907823D01*
X117771785Y-90916511D01*
X117686959Y-90942243D01*
X117608784Y-90984029D01*
X117540263Y-91040263D01*
X117484029Y-91108784D01*
X117442243Y-91186959D01*
X117416511Y-91271785D01*
X117407823Y-91360000D01*
X117407823Y-92260000D01*
X117416511Y-92348215D01*
X117442243Y-92433041D01*
X117484029Y-92511216D01*
X117540263Y-92579737D01*
X117608784Y-92635971D01*
X117686959Y-92677757D01*
X117771785Y-92703489D01*
X117860000Y-92712177D01*
X119460000Y-92712177D01*
X119548215Y-92703489D01*
X119633041Y-92677757D01*
X119711216Y-92635971D01*
X119721748Y-92627328D01*
X119749210Y-92660790D01*
X119832958Y-92729521D01*
X119928506Y-92780592D01*
X120032181Y-92812042D01*
X120140000Y-92822661D01*
X120902500Y-92820000D01*
X121040000Y-92682500D01*
X121040000Y-91920000D01*
X121020000Y-91920000D01*
X121020000Y-91720000D01*
X121040000Y-91720000D01*
X121040000Y-90957500D01*
X120902500Y-90820000D01*
X120150378Y-90817375D01*
X120150378Y-84978017D01*
X120514383Y-84767859D01*
X120586436Y-84716227D01*
X120647031Y-84651530D01*
X120664274Y-84623800D01*
X120916433Y-85164557D01*
G37*
G04 #@! TD.AperFunction*
D27*
X84426160Y-82636359D02*
X84472969Y-82711634D01*
X84533564Y-82776331D01*
X84605617Y-82827963D01*
X85731451Y-83477963D01*
X85812191Y-83514546D01*
X85898518Y-83534675D01*
X85987113Y-83537575D01*
X86074571Y-83523135D01*
X86157532Y-83491911D01*
X86232807Y-83445102D01*
X86288732Y-83392723D01*
X86271332Y-83467345D01*
X86268432Y-83555940D01*
X86282872Y-83643398D01*
X86314096Y-83726359D01*
X86360905Y-83801634D01*
X86421500Y-83866331D01*
X86493553Y-83917963D01*
X88299720Y-84960754D01*
X88700001Y-85361035D01*
X88700000Y-90765610D01*
X88700000Y-91020050D01*
X88540051Y-91180000D01*
X86564746Y-91180000D01*
X86557757Y-91156959D01*
X86515971Y-91078784D01*
X86459737Y-91010263D01*
X86391216Y-90954029D01*
X86313041Y-90912243D01*
X86228215Y-90886511D01*
X86140000Y-90877823D01*
X84040000Y-90877823D01*
X83951785Y-90886511D01*
X83866959Y-90912243D01*
X83788784Y-90954029D01*
X83720263Y-91010263D01*
X83664029Y-91078784D01*
X83622243Y-91156959D01*
X83600000Y-91230283D01*
X83577757Y-91156959D01*
X83535971Y-91078784D01*
X83479737Y-91010263D01*
X83411216Y-90954029D01*
X83333041Y-90912243D01*
X83248215Y-90886511D01*
X83210000Y-90882747D01*
X83210000Y-90445993D01*
X86932638Y-86723356D01*
X87207205Y-86881878D01*
X87287946Y-86918461D01*
X87374273Y-86938590D01*
X87462868Y-86941490D01*
X87550326Y-86927050D01*
X87633287Y-86895826D01*
X87708562Y-86849017D01*
X87773259Y-86788422D01*
X87824891Y-86716370D01*
X88274891Y-85936948D01*
X88311474Y-85856207D01*
X88331603Y-85769880D01*
X88334503Y-85681285D01*
X88320063Y-85593827D01*
X88288839Y-85510866D01*
X88242030Y-85435591D01*
X88181435Y-85370894D01*
X88109383Y-85319262D01*
X86723743Y-84519262D01*
X86643002Y-84482679D01*
X86556675Y-84462550D01*
X86468080Y-84459650D01*
X86454637Y-84461870D01*
X86447585Y-84419160D01*
X86409423Y-84317763D01*
X86352212Y-84225760D01*
X86278151Y-84146686D01*
X86190087Y-84083580D01*
X85528412Y-83704635D01*
X85340584Y-83754963D01*
X84959334Y-84415307D01*
X84976654Y-84425307D01*
X84876654Y-84598513D01*
X84859334Y-84588513D01*
X84478084Y-85248857D01*
X84528412Y-85436685D01*
X85187426Y-85820240D01*
X85286109Y-85864953D01*
X85391620Y-85889554D01*
X85499902Y-85893099D01*
X85606795Y-85875450D01*
X85632840Y-85865648D01*
X85642109Y-85890274D01*
X85688918Y-85965549D01*
X85699378Y-85976717D01*
X82039342Y-89636753D01*
X82012631Y-89658674D01*
X81990710Y-89685385D01*
X81990708Y-89685387D01*
X81925155Y-89765263D01*
X81860155Y-89886870D01*
X81834573Y-89971203D01*
X81823211Y-90008662D01*
X81820129Y-90018821D01*
X81806613Y-90156044D01*
X81810001Y-90190441D01*
X81810001Y-90882747D01*
X81771785Y-90886511D01*
X81725124Y-90900666D01*
X81683144Y-90837839D01*
X81657738Y-90812433D01*
X81700166Y-90327476D01*
X82010339Y-88568399D01*
X82472645Y-86843049D01*
X83083567Y-85164557D01*
X83304716Y-84690302D01*
X83367311Y-84757134D01*
X83455375Y-84820240D01*
X84117050Y-85199185D01*
X84304878Y-85148857D01*
X84686128Y-84488513D01*
X84668808Y-84478513D01*
X84768808Y-84305307D01*
X84786128Y-84315307D01*
X85167378Y-83654963D01*
X85117050Y-83467135D01*
X84458036Y-83083580D01*
X84359353Y-83038867D01*
X84253842Y-83014266D01*
X84147289Y-83010778D01*
X84401416Y-82570616D01*
X84426160Y-82636359D01*
G04 #@! TA.AperFunction,Conductor*
D28*
G36*
X84426160Y-82636359D02*
G01*
X84472969Y-82711634D01*
X84533564Y-82776331D01*
X84605617Y-82827963D01*
X85731451Y-83477963D01*
X85812191Y-83514546D01*
X85898518Y-83534675D01*
X85987113Y-83537575D01*
X86074571Y-83523135D01*
X86157532Y-83491911D01*
X86232807Y-83445102D01*
X86288732Y-83392723D01*
X86271332Y-83467345D01*
X86268432Y-83555940D01*
X86282872Y-83643398D01*
X86314096Y-83726359D01*
X86360905Y-83801634D01*
X86421500Y-83866331D01*
X86493553Y-83917963D01*
X88299720Y-84960754D01*
X88700001Y-85361035D01*
X88700000Y-90765610D01*
X88700000Y-91020050D01*
X88540051Y-91180000D01*
X86564746Y-91180000D01*
X86557757Y-91156959D01*
X86515971Y-91078784D01*
X86459737Y-91010263D01*
X86391216Y-90954029D01*
X86313041Y-90912243D01*
X86228215Y-90886511D01*
X86140000Y-90877823D01*
X84040000Y-90877823D01*
X83951785Y-90886511D01*
X83866959Y-90912243D01*
X83788784Y-90954029D01*
X83720263Y-91010263D01*
X83664029Y-91078784D01*
X83622243Y-91156959D01*
X83600000Y-91230283D01*
X83577757Y-91156959D01*
X83535971Y-91078784D01*
X83479737Y-91010263D01*
X83411216Y-90954029D01*
X83333041Y-90912243D01*
X83248215Y-90886511D01*
X83210000Y-90882747D01*
X83210000Y-90445993D01*
X86932638Y-86723356D01*
X87207205Y-86881878D01*
X87287946Y-86918461D01*
X87374273Y-86938590D01*
X87462868Y-86941490D01*
X87550326Y-86927050D01*
X87633287Y-86895826D01*
X87708562Y-86849017D01*
X87773259Y-86788422D01*
X87824891Y-86716370D01*
X88274891Y-85936948D01*
X88311474Y-85856207D01*
X88331603Y-85769880D01*
X88334503Y-85681285D01*
X88320063Y-85593827D01*
X88288839Y-85510866D01*
X88242030Y-85435591D01*
X88181435Y-85370894D01*
X88109383Y-85319262D01*
X86723743Y-84519262D01*
X86643002Y-84482679D01*
X86556675Y-84462550D01*
X86468080Y-84459650D01*
X86454637Y-84461870D01*
X86447585Y-84419160D01*
X86409423Y-84317763D01*
X86352212Y-84225760D01*
X86278151Y-84146686D01*
X86190087Y-84083580D01*
X85528412Y-83704635D01*
X85340584Y-83754963D01*
X84959334Y-84415307D01*
X84976654Y-84425307D01*
X84876654Y-84598513D01*
X84859334Y-84588513D01*
X84478084Y-85248857D01*
X84528412Y-85436685D01*
X85187426Y-85820240D01*
X85286109Y-85864953D01*
X85391620Y-85889554D01*
X85499902Y-85893099D01*
X85606795Y-85875450D01*
X85632840Y-85865648D01*
X85642109Y-85890274D01*
X85688918Y-85965549D01*
X85699378Y-85976717D01*
X82039342Y-89636753D01*
X82012631Y-89658674D01*
X81990710Y-89685385D01*
X81990708Y-89685387D01*
X81925155Y-89765263D01*
X81860155Y-89886870D01*
X81834573Y-89971203D01*
X81823211Y-90008662D01*
X81820129Y-90018821D01*
X81806613Y-90156044D01*
X81810001Y-90190441D01*
X81810001Y-90882747D01*
X81771785Y-90886511D01*
X81725124Y-90900666D01*
X81683144Y-90837839D01*
X81657738Y-90812433D01*
X81700166Y-90327476D01*
X82010339Y-88568399D01*
X82472645Y-86843049D01*
X83083567Y-85164557D01*
X83304716Y-84690302D01*
X83367311Y-84757134D01*
X83455375Y-84820240D01*
X84117050Y-85199185D01*
X84304878Y-85148857D01*
X84686128Y-84488513D01*
X84668808Y-84478513D01*
X84768808Y-84305307D01*
X84786128Y-84315307D01*
X85167378Y-83654963D01*
X85117050Y-83467135D01*
X84458036Y-83083580D01*
X84359353Y-83038867D01*
X84253842Y-83014266D01*
X84147289Y-83010778D01*
X84401416Y-82570616D01*
X84426160Y-82636359D01*
G37*
G04 #@! TD.AperFunction*
D27*
X104672524Y-72700166D02*
X106431601Y-73010339D01*
X108156951Y-73472645D01*
X109835443Y-74083567D01*
X110309698Y-74304716D01*
X110242866Y-74367311D01*
X110179760Y-74455375D01*
X109800815Y-75117050D01*
X109851143Y-75304878D01*
X110511487Y-75686128D01*
X110521487Y-75668808D01*
X110694693Y-75768808D01*
X110684693Y-75786128D01*
X111345037Y-76167378D01*
X111532865Y-76117050D01*
X111916420Y-75458036D01*
X111961133Y-75359353D01*
X111985734Y-75253842D01*
X111989222Y-75147289D01*
X112429384Y-75401416D01*
X112363641Y-75426160D01*
X112288366Y-75472969D01*
X112223669Y-75533564D01*
X112172037Y-75605617D01*
X111522037Y-76731451D01*
X111485454Y-76812191D01*
X111465325Y-76898518D01*
X111462425Y-76987113D01*
X111476865Y-77074571D01*
X111508089Y-77157532D01*
X111554898Y-77232807D01*
X111607277Y-77288732D01*
X111532655Y-77271332D01*
X111444060Y-77268432D01*
X111356602Y-77282872D01*
X111273641Y-77314096D01*
X111198366Y-77360905D01*
X111133669Y-77421500D01*
X111082037Y-77493553D01*
X110125687Y-79150000D01*
X109651632Y-79150000D01*
X109680738Y-79109383D01*
X110480738Y-77723743D01*
X110517321Y-77643002D01*
X110537450Y-77556675D01*
X110540350Y-77468080D01*
X110538130Y-77454637D01*
X110580840Y-77447585D01*
X110682237Y-77409423D01*
X110774240Y-77352212D01*
X110853314Y-77278151D01*
X110916420Y-77190087D01*
X111295365Y-76528412D01*
X111245037Y-76340584D01*
X110584693Y-75959334D01*
X110574693Y-75976654D01*
X110401487Y-75876654D01*
X110411487Y-75859334D01*
X109751143Y-75478084D01*
X109563315Y-75528412D01*
X109179760Y-76187426D01*
X109135047Y-76286109D01*
X109110446Y-76391620D01*
X109106901Y-76499902D01*
X109124550Y-76606795D01*
X109134352Y-76632840D01*
X109109726Y-76642109D01*
X109034451Y-76688918D01*
X108969754Y-76749513D01*
X108918122Y-76821565D01*
X108754652Y-77104702D01*
X104689296Y-73039347D01*
X104667370Y-73012630D01*
X104560781Y-72925155D01*
X104439175Y-72860155D01*
X104307224Y-72820128D01*
X104204390Y-72810000D01*
X104204387Y-72810000D01*
X104170000Y-72806613D01*
X104135613Y-72810000D01*
X104117253Y-72810000D01*
X104113489Y-72771785D01*
X104087757Y-72686959D01*
X104066475Y-72647144D01*
X104672524Y-72700166D01*
G04 #@! TA.AperFunction,Conductor*
D28*
G36*
X104672524Y-72700166D02*
G01*
X106431601Y-73010339D01*
X108156951Y-73472645D01*
X109835443Y-74083567D01*
X110309698Y-74304716D01*
X110242866Y-74367311D01*
X110179760Y-74455375D01*
X109800815Y-75117050D01*
X109851143Y-75304878D01*
X110511487Y-75686128D01*
X110521487Y-75668808D01*
X110694693Y-75768808D01*
X110684693Y-75786128D01*
X111345037Y-76167378D01*
X111532865Y-76117050D01*
X111916420Y-75458036D01*
X111961133Y-75359353D01*
X111985734Y-75253842D01*
X111989222Y-75147289D01*
X112429384Y-75401416D01*
X112363641Y-75426160D01*
X112288366Y-75472969D01*
X112223669Y-75533564D01*
X112172037Y-75605617D01*
X111522037Y-76731451D01*
X111485454Y-76812191D01*
X111465325Y-76898518D01*
X111462425Y-76987113D01*
X111476865Y-77074571D01*
X111508089Y-77157532D01*
X111554898Y-77232807D01*
X111607277Y-77288732D01*
X111532655Y-77271332D01*
X111444060Y-77268432D01*
X111356602Y-77282872D01*
X111273641Y-77314096D01*
X111198366Y-77360905D01*
X111133669Y-77421500D01*
X111082037Y-77493553D01*
X110125687Y-79150000D01*
X109651632Y-79150000D01*
X109680738Y-79109383D01*
X110480738Y-77723743D01*
X110517321Y-77643002D01*
X110537450Y-77556675D01*
X110540350Y-77468080D01*
X110538130Y-77454637D01*
X110580840Y-77447585D01*
X110682237Y-77409423D01*
X110774240Y-77352212D01*
X110853314Y-77278151D01*
X110916420Y-77190087D01*
X111295365Y-76528412D01*
X111245037Y-76340584D01*
X110584693Y-75959334D01*
X110574693Y-75976654D01*
X110401487Y-75876654D01*
X110411487Y-75859334D01*
X109751143Y-75478084D01*
X109563315Y-75528412D01*
X109179760Y-76187426D01*
X109135047Y-76286109D01*
X109110446Y-76391620D01*
X109106901Y-76499902D01*
X109124550Y-76606795D01*
X109134352Y-76632840D01*
X109109726Y-76642109D01*
X109034451Y-76688918D01*
X108969754Y-76749513D01*
X108918122Y-76821565D01*
X108754652Y-77104702D01*
X104689296Y-73039347D01*
X104667370Y-73012630D01*
X104560781Y-72925155D01*
X104439175Y-72860155D01*
X104307224Y-72820128D01*
X104204390Y-72810000D01*
X104204387Y-72810000D01*
X104170000Y-72806613D01*
X104135613Y-72810000D01*
X104117253Y-72810000D01*
X104113489Y-72771785D01*
X104087757Y-72686959D01*
X104066475Y-72647144D01*
X104672524Y-72700166D01*
G37*
G04 #@! TD.AperFunction*
D27*
X102194029Y-72608784D02*
X102152243Y-72686959D01*
X102126511Y-72771785D01*
X102117823Y-72860000D01*
X102117823Y-74160000D01*
X102126511Y-74248215D01*
X102152243Y-74333041D01*
X102194029Y-74411216D01*
X102250263Y-74479737D01*
X102318784Y-74535971D01*
X102396959Y-74577757D01*
X102470283Y-74600000D01*
X102396959Y-74622243D01*
X102318784Y-74664029D01*
X102250263Y-74720263D01*
X102194029Y-74788784D01*
X102152243Y-74866959D01*
X102126511Y-74951785D01*
X102117823Y-75040000D01*
X102117823Y-77140000D01*
X102126511Y-77228215D01*
X102152243Y-77313041D01*
X102194029Y-77391216D01*
X102250263Y-77459737D01*
X102318784Y-77515971D01*
X102396959Y-77557757D01*
X102420001Y-77564747D01*
X102420000Y-79080051D01*
X102350051Y-79150000D01*
X96870930Y-79150000D01*
X95900650Y-78179721D01*
X95783108Y-77976131D01*
X98350000Y-77976131D01*
X98350000Y-78123869D01*
X98378822Y-78268767D01*
X98435359Y-78405258D01*
X98517437Y-78528097D01*
X98621903Y-78632563D01*
X98744742Y-78714641D01*
X98881233Y-78771178D01*
X99026131Y-78800000D01*
X99173869Y-78800000D01*
X99318767Y-78771178D01*
X99455258Y-78714641D01*
X99578097Y-78632563D01*
X99682563Y-78528097D01*
X99764641Y-78405258D01*
X99821178Y-78268767D01*
X99850000Y-78123869D01*
X99850000Y-77976131D01*
X99821178Y-77831233D01*
X99800000Y-77780105D01*
X99800000Y-77289949D01*
X99911600Y-77178350D01*
X99916511Y-77228215D01*
X99942243Y-77313041D01*
X99984029Y-77391216D01*
X100040263Y-77459737D01*
X100108784Y-77515971D01*
X100186959Y-77557757D01*
X100271785Y-77583489D01*
X100360000Y-77592177D01*
X101260000Y-77592177D01*
X101348215Y-77583489D01*
X101433041Y-77557757D01*
X101511216Y-77515971D01*
X101579737Y-77459737D01*
X101635971Y-77391216D01*
X101677757Y-77313041D01*
X101703489Y-77228215D01*
X101712177Y-77140000D01*
X101712177Y-75540000D01*
X101703489Y-75451785D01*
X101677757Y-75366959D01*
X101635971Y-75288784D01*
X101627328Y-75278252D01*
X101660790Y-75250790D01*
X101729521Y-75167042D01*
X101780592Y-75071494D01*
X101812042Y-74967819D01*
X101822661Y-74860000D01*
X101820000Y-74097500D01*
X101682500Y-73960000D01*
X100920000Y-73960000D01*
X100920000Y-73980000D01*
X100720000Y-73980000D01*
X100720000Y-73960000D01*
X99957500Y-73960000D01*
X99820000Y-74097500D01*
X99817339Y-74860000D01*
X99827958Y-74967819D01*
X99859408Y-75071494D01*
X99910479Y-75167042D01*
X99979210Y-75250790D01*
X100000721Y-75268444D01*
X99984029Y-75288784D01*
X99942243Y-75366959D01*
X99916511Y-75451785D01*
X99907823Y-75540000D01*
X99907823Y-75640000D01*
X99794387Y-75640000D01*
X99760000Y-75636613D01*
X99725613Y-75640000D01*
X99725610Y-75640000D01*
X99622776Y-75650128D01*
X99490825Y-75690155D01*
X99369218Y-75755155D01*
X99331478Y-75786128D01*
X99262630Y-75842630D01*
X99240708Y-75869342D01*
X98629342Y-76480709D01*
X98602631Y-76502630D01*
X98580710Y-76529341D01*
X98580708Y-76529343D01*
X98515155Y-76609219D01*
X98450155Y-76730826D01*
X98410129Y-76862777D01*
X98396613Y-77000000D01*
X98400001Y-77034396D01*
X98400000Y-77780105D01*
X98378822Y-77831233D01*
X98350000Y-77976131D01*
X95783108Y-77976131D01*
X94857859Y-76373553D01*
X94806227Y-76301500D01*
X94741530Y-76240905D01*
X94666255Y-76194096D01*
X94583294Y-76162872D01*
X94495836Y-76148432D01*
X94407241Y-76151332D01*
X94332619Y-76168732D01*
X94384998Y-76112807D01*
X94431807Y-76037532D01*
X94463031Y-75954571D01*
X94477471Y-75867113D01*
X94474571Y-75778518D01*
X94454442Y-75692192D01*
X94417859Y-75611451D01*
X93767859Y-74485617D01*
X93716227Y-74413564D01*
X93651530Y-74352969D01*
X93623800Y-74335726D01*
X94164557Y-74083567D01*
X95843049Y-73472645D01*
X97568399Y-73010339D01*
X99327476Y-72700166D01*
X99857812Y-72653768D01*
X99827958Y-72752181D01*
X99817339Y-72860000D01*
X99820000Y-73622500D01*
X99957500Y-73760000D01*
X100720000Y-73760000D01*
X100720000Y-73740000D01*
X100920000Y-73740000D01*
X100920000Y-73760000D01*
X101682500Y-73760000D01*
X101820000Y-73622500D01*
X101822661Y-72860000D01*
X101812042Y-72752181D01*
X101780592Y-72648506D01*
X101729521Y-72552958D01*
X101722570Y-72544488D01*
X102246796Y-72544488D01*
X102194029Y-72608784D01*
G04 #@! TA.AperFunction,Conductor*
D28*
G36*
X102194029Y-72608784D02*
G01*
X102152243Y-72686959D01*
X102126511Y-72771785D01*
X102117823Y-72860000D01*
X102117823Y-74160000D01*
X102126511Y-74248215D01*
X102152243Y-74333041D01*
X102194029Y-74411216D01*
X102250263Y-74479737D01*
X102318784Y-74535971D01*
X102396959Y-74577757D01*
X102470283Y-74600000D01*
X102396959Y-74622243D01*
X102318784Y-74664029D01*
X102250263Y-74720263D01*
X102194029Y-74788784D01*
X102152243Y-74866959D01*
X102126511Y-74951785D01*
X102117823Y-75040000D01*
X102117823Y-77140000D01*
X102126511Y-77228215D01*
X102152243Y-77313041D01*
X102194029Y-77391216D01*
X102250263Y-77459737D01*
X102318784Y-77515971D01*
X102396959Y-77557757D01*
X102420001Y-77564747D01*
X102420000Y-79080051D01*
X102350051Y-79150000D01*
X96870930Y-79150000D01*
X95900650Y-78179721D01*
X95783108Y-77976131D01*
X98350000Y-77976131D01*
X98350000Y-78123869D01*
X98378822Y-78268767D01*
X98435359Y-78405258D01*
X98517437Y-78528097D01*
X98621903Y-78632563D01*
X98744742Y-78714641D01*
X98881233Y-78771178D01*
X99026131Y-78800000D01*
X99173869Y-78800000D01*
X99318767Y-78771178D01*
X99455258Y-78714641D01*
X99578097Y-78632563D01*
X99682563Y-78528097D01*
X99764641Y-78405258D01*
X99821178Y-78268767D01*
X99850000Y-78123869D01*
X99850000Y-77976131D01*
X99821178Y-77831233D01*
X99800000Y-77780105D01*
X99800000Y-77289949D01*
X99911600Y-77178350D01*
X99916511Y-77228215D01*
X99942243Y-77313041D01*
X99984029Y-77391216D01*
X100040263Y-77459737D01*
X100108784Y-77515971D01*
X100186959Y-77557757D01*
X100271785Y-77583489D01*
X100360000Y-77592177D01*
X101260000Y-77592177D01*
X101348215Y-77583489D01*
X101433041Y-77557757D01*
X101511216Y-77515971D01*
X101579737Y-77459737D01*
X101635971Y-77391216D01*
X101677757Y-77313041D01*
X101703489Y-77228215D01*
X101712177Y-77140000D01*
X101712177Y-75540000D01*
X101703489Y-75451785D01*
X101677757Y-75366959D01*
X101635971Y-75288784D01*
X101627328Y-75278252D01*
X101660790Y-75250790D01*
X101729521Y-75167042D01*
X101780592Y-75071494D01*
X101812042Y-74967819D01*
X101822661Y-74860000D01*
X101820000Y-74097500D01*
X101682500Y-73960000D01*
X100920000Y-73960000D01*
X100920000Y-73980000D01*
X100720000Y-73980000D01*
X100720000Y-73960000D01*
X99957500Y-73960000D01*
X99820000Y-74097500D01*
X99817339Y-74860000D01*
X99827958Y-74967819D01*
X99859408Y-75071494D01*
X99910479Y-75167042D01*
X99979210Y-75250790D01*
X100000721Y-75268444D01*
X99984029Y-75288784D01*
X99942243Y-75366959D01*
X99916511Y-75451785D01*
X99907823Y-75540000D01*
X99907823Y-75640000D01*
X99794387Y-75640000D01*
X99760000Y-75636613D01*
X99725613Y-75640000D01*
X99725610Y-75640000D01*
X99622776Y-75650128D01*
X99490825Y-75690155D01*
X99369218Y-75755155D01*
X99331478Y-75786128D01*
X99262630Y-75842630D01*
X99240708Y-75869342D01*
X98629342Y-76480709D01*
X98602631Y-76502630D01*
X98580710Y-76529341D01*
X98580708Y-76529343D01*
X98515155Y-76609219D01*
X98450155Y-76730826D01*
X98410129Y-76862777D01*
X98396613Y-77000000D01*
X98400001Y-77034396D01*
X98400000Y-77780105D01*
X98378822Y-77831233D01*
X98350000Y-77976131D01*
X95783108Y-77976131D01*
X94857859Y-76373553D01*
X94806227Y-76301500D01*
X94741530Y-76240905D01*
X94666255Y-76194096D01*
X94583294Y-76162872D01*
X94495836Y-76148432D01*
X94407241Y-76151332D01*
X94332619Y-76168732D01*
X94384998Y-76112807D01*
X94431807Y-76037532D01*
X94463031Y-75954571D01*
X94477471Y-75867113D01*
X94474571Y-75778518D01*
X94454442Y-75692192D01*
X94417859Y-75611451D01*
X93767859Y-74485617D01*
X93716227Y-74413564D01*
X93651530Y-74352969D01*
X93623800Y-74335726D01*
X94164557Y-74083567D01*
X95843049Y-73472645D01*
X97568399Y-73010339D01*
X99327476Y-72700166D01*
X99857812Y-72653768D01*
X99827958Y-72752181D01*
X99817339Y-72860000D01*
X99820000Y-73622500D01*
X99957500Y-73760000D01*
X100720000Y-73760000D01*
X100720000Y-73740000D01*
X100920000Y-73740000D01*
X100920000Y-73760000D01*
X101682500Y-73760000D01*
X101820000Y-73622500D01*
X101822661Y-72860000D01*
X101812042Y-72752181D01*
X101780592Y-72648506D01*
X101729521Y-72552958D01*
X101722570Y-72544488D01*
X102246796Y-72544488D01*
X102194029Y-72608784D01*
G37*
G04 #@! TD.AperFunction*
D27*
X108060868Y-78390818D02*
X108058510Y-78462868D01*
X108072950Y-78550326D01*
X108104174Y-78633287D01*
X108150983Y-78708562D01*
X108211578Y-78773259D01*
X108283630Y-78824891D01*
X108846735Y-79150000D01*
X103889949Y-79150000D01*
X103820000Y-79080051D01*
X103820000Y-77564746D01*
X103843041Y-77557757D01*
X103921216Y-77515971D01*
X103989737Y-77459737D01*
X104045971Y-77391216D01*
X104087757Y-77313041D01*
X104113489Y-77228215D01*
X104122177Y-77140000D01*
X104122177Y-75040000D01*
X104113489Y-74951785D01*
X104087757Y-74866959D01*
X104045971Y-74788784D01*
X103989737Y-74720263D01*
X103921216Y-74664029D01*
X103843041Y-74622243D01*
X103769717Y-74600000D01*
X103843041Y-74577757D01*
X103921216Y-74535971D01*
X103989737Y-74479737D01*
X104045971Y-74411216D01*
X104058266Y-74388215D01*
X108060868Y-78390818D01*
G04 #@! TA.AperFunction,Conductor*
D28*
G36*
X108060868Y-78390818D02*
G01*
X108058510Y-78462868D01*
X108072950Y-78550326D01*
X108104174Y-78633287D01*
X108150983Y-78708562D01*
X108211578Y-78773259D01*
X108283630Y-78824891D01*
X108846735Y-79150000D01*
X103889949Y-79150000D01*
X103820000Y-79080051D01*
X103820000Y-77564746D01*
X103843041Y-77557757D01*
X103921216Y-77515971D01*
X103989737Y-77459737D01*
X104045971Y-77391216D01*
X104087757Y-77313041D01*
X104113489Y-77228215D01*
X104122177Y-77140000D01*
X104122177Y-75040000D01*
X104113489Y-74951785D01*
X104087757Y-74866959D01*
X104045971Y-74788784D01*
X103989737Y-74720263D01*
X103921216Y-74664029D01*
X103843041Y-74622243D01*
X103769717Y-74600000D01*
X103843041Y-74577757D01*
X103921216Y-74535971D01*
X103989737Y-74479737D01*
X104045971Y-74411216D01*
X104058266Y-74388215D01*
X108060868Y-78390818D01*
G37*
G04 #@! TD.AperFunction*
M02*
