G04 #@! TF.GenerationSoftware,KiCad,Pcbnew,(5.1.9)-1*
G04 #@! TF.CreationDate,2021-11-24T11:51:20+08:00*
G04 #@! TF.ProjectId,RGB-ring,5247422d-7269-46e6-972e-6b696361645f,rev?*
G04 #@! TF.SameCoordinates,Original*
G04 #@! TF.FileFunction,Profile,NP*
%FSLAX46Y46*%
G04 Gerber Fmt 4.6, Leading zero omitted, Abs format (unit mm)*
G04 Created by KiCad (PCBNEW (5.1.9)-1) date 2021-11-24 11:51:20*
%MOMM*%
%LPD*%
G01*
G04 APERTURE LIST*
G04 #@! TA.AperFunction,Profile*
%ADD10C,0.150000*%
G04 #@! TD*
G04 #@! TA.AperFunction,Profile*
%ADD11C,0.120000*%
G04 #@! TD*
G04 APERTURE END LIST*
D10*
X169004536Y-46400107D02*
G75*
G02*
X166800000Y-46500000I-1104536J107D01*
G01*
X166795464Y-52399893D02*
G75*
G02*
X169000000Y-52300000I1104536J-107D01*
G01*
X172000000Y-114000000D02*
X169000000Y-114000000D01*
X169000000Y-114000000D02*
X169000000Y-28000000D01*
X169000000Y-28000000D02*
X172000000Y-28000000D01*
X172000000Y-28000000D02*
X172000000Y-114000000D01*
X166795464Y-95999893D02*
G75*
G02*
X169000000Y-95900000I1104536J-107D01*
G01*
X169004536Y-90000107D02*
G75*
G02*
X166800000Y-90100000I-1104536J107D01*
G01*
X78995464Y-52199893D02*
G75*
G02*
X81200000Y-52100000I1104536J-107D01*
G01*
X81204536Y-46200107D02*
G75*
G02*
X79000000Y-46300000I-1104536J107D01*
G01*
X78995464Y-95799893D02*
G75*
G02*
X81200000Y-95700000I1104536J-107D01*
G01*
X81204536Y-89800107D02*
G75*
G02*
X79000000Y-89900000I-1104536J107D01*
G01*
X79000000Y-28000000D02*
X79000000Y-114000000D01*
X76000000Y-28000000D02*
X79000000Y-28000000D01*
X76000000Y-114000000D02*
X76000000Y-28000000D01*
X79000000Y-114000000D02*
X76000000Y-114000000D01*
D11*
X125200000Y-46400000D02*
G75*
G02*
X122800000Y-46400000I-1200000J0D01*
G01*
X125200000Y-90000000D02*
G75*
G02*
X122800000Y-90000000I-1200000J0D01*
G01*
X122800000Y-96000000D02*
G75*
G02*
X125200000Y-96000000I1200000J0D01*
G01*
D10*
X167000000Y-49400000D02*
G75*
G03*
X167000000Y-49400000I-21000000J0D01*
G01*
X167000000Y-93000000D02*
G75*
G03*
X167000000Y-93000000I-21000000J0D01*
G01*
D11*
X122800000Y-52400000D02*
G75*
G02*
X125200000Y-52400000I1200000J0D01*
G01*
D10*
X123000000Y-49400000D02*
G75*
G03*
X123000000Y-49400000I-21000000J0D01*
G01*
X123000000Y-93000000D02*
G75*
G03*
X123000000Y-93000000I-21000000J0D01*
G01*
M02*
