M48
; DRILL file {KiCad (5.1.9)-1} date 11/24/21 11:51:26
; FORMAT={-:-/ absolute / metric / decimal}
; #@! TF.CreationDate,2021-11-24T11:51:26+08:00
; #@! TF.GenerationSoftware,Kicad,Pcbnew,(5.1.9)-1
; #@! TF.FileFunction,Plated,1,2,PTH
FMAT,2
METRIC
T1C0.300
T2C0.850
T3C1.500
T4C4.700
%
G90
G05
T1
X83.2Y-96.5
X83.55Y-85.9
X88.5Y-105.7
X88.9Y-78.7
X94.9Y-111.3
X97.4Y-75.5
X99.1Y-78.05
X100.85Y-105.6
X103.15Y-79.85
X103.5Y-93.0
X105.0Y-112.3
X105.65Y-76.6
X105.7Y-109.5
X106.1Y-99.15
X107.6Y-74.55
X114.9Y-108.2
X115.8Y-79.9
X116.6Y-89.6
X118.9Y-96.2
X120.2Y-99.85
X121.2Y-89.2
T2
X94.0Y-90.46
X94.0Y-93.0
X94.0Y-95.54
X110.0Y-90.46
X110.0Y-93.0
X110.0Y-95.54
T3
X77.5Y-32.0
X77.5Y-110.0
X170.5Y-32.0
X170.5Y-110.0
T4
X102.0Y-85.0
X102.0Y-101.0
T0
M30
