G04 #@! TF.GenerationSoftware,KiCad,Pcbnew,(5.1.9)-1*
G04 #@! TF.CreationDate,2021-11-24T11:51:20+08:00*
G04 #@! TF.ProjectId,RGB-ring,5247422d-7269-46e6-972e-6b696361645f,rev?*
G04 #@! TF.SameCoordinates,Original*
G04 #@! TF.FileFunction,Paste,Top*
G04 #@! TF.FilePolarity,Positive*
%FSLAX46Y46*%
G04 Gerber Fmt 4.6, Leading zero omitted, Abs format (unit mm)*
G04 Created by KiCad (PCBNEW (5.1.9)-1) date 2021-11-24 11:51:20*
%MOMM*%
%LPD*%
G01*
G04 APERTURE LIST*
%ADD10R,0.500000X0.900000*%
%ADD11R,1.800000X1.400000*%
%ADD12C,0.200000*%
%ADD13R,2.100000X1.100000*%
%ADD14R,1.300000X1.100000*%
%ADD15R,1.600000X0.900000*%
%ADD16R,2.000000X0.900000*%
%ADD17R,1.100000X2.100000*%
%ADD18R,1.100000X1.300000*%
%ADD19R,0.900000X1.600000*%
%ADD20R,0.900000X2.000000*%
G04 APERTURE END LIST*
D10*
X101250000Y-88800000D03*
X102750000Y-88800000D03*
D11*
X106100000Y-95250000D03*
X97900000Y-95250000D03*
X106100000Y-90750000D03*
X97900000Y-90750000D03*
D12*
G36*
X108483738Y-107581705D02*
G01*
X109436366Y-107031705D01*
X110486366Y-108850359D01*
X109533738Y-109400359D01*
X108483738Y-107581705D01*
G37*
G36*
X113481621Y-109638294D02*
G01*
X112702199Y-110088294D01*
X111702199Y-108356244D01*
X112481621Y-107906244D01*
X113481621Y-109638294D01*
G37*
G36*
X112150281Y-107312346D02*
G01*
X111370859Y-107762346D01*
X110570859Y-106376706D01*
X111350281Y-105926706D01*
X112150281Y-107312346D01*
G37*
G36*
X109973738Y-110162461D02*
G01*
X110926366Y-109612461D01*
X111576366Y-110738295D01*
X110623738Y-111288295D01*
X109973738Y-110162461D01*
G37*
G36*
X95516262Y-78418295D02*
G01*
X94563634Y-78968295D01*
X93513634Y-77149641D01*
X94466262Y-76599641D01*
X95516262Y-78418295D01*
G37*
G36*
X94026262Y-75837539D02*
G01*
X93073634Y-76387539D01*
X92423634Y-75261705D01*
X93376262Y-74711705D01*
X94026262Y-75837539D01*
G37*
G36*
X91849719Y-78687654D02*
G01*
X92629141Y-78237654D01*
X93429141Y-79623294D01*
X92649719Y-80073294D01*
X91849719Y-78687654D01*
G37*
G36*
X90518379Y-76361706D02*
G01*
X91297801Y-75911706D01*
X92297801Y-77643756D01*
X91518379Y-78093756D01*
X90518379Y-76361706D01*
G37*
G36*
X89088295Y-83623738D02*
G01*
X88538295Y-84576366D01*
X86719641Y-83526366D01*
X87269641Y-82573738D01*
X89088295Y-83623738D01*
G37*
G36*
X86507539Y-82133738D02*
G01*
X85957539Y-83086366D01*
X84831705Y-82436366D01*
X85381705Y-81483738D01*
X86507539Y-82133738D01*
G37*
G36*
X86047654Y-85690281D02*
G01*
X86497654Y-84910859D01*
X87883294Y-85710859D01*
X87433294Y-86490281D01*
X86047654Y-85690281D01*
G37*
G36*
X83731706Y-84341621D02*
G01*
X84181706Y-83562199D01*
X85913756Y-84562199D01*
X85463756Y-85341621D01*
X83731706Y-84341621D01*
G37*
D13*
X85090000Y-91880000D03*
D14*
X82510000Y-91880000D03*
D15*
X85340000Y-94190000D03*
D16*
X82860000Y-94180000D03*
D12*
G36*
X87418295Y-99483738D02*
G01*
X87968295Y-100436366D01*
X86149641Y-101486366D01*
X85599641Y-100533738D01*
X87418295Y-99483738D01*
G37*
G36*
X84837539Y-100973738D02*
G01*
X85387539Y-101926366D01*
X84261705Y-102576366D01*
X83711705Y-101623738D01*
X84837539Y-100973738D01*
G37*
G36*
X87687654Y-103150281D02*
G01*
X87237654Y-102370859D01*
X88623294Y-101570859D01*
X89073294Y-102350281D01*
X87687654Y-103150281D01*
G37*
G36*
X85361706Y-104481621D02*
G01*
X84911706Y-103702199D01*
X86643756Y-102702199D01*
X87093756Y-103481621D01*
X85361706Y-104481621D01*
G37*
G36*
X92623738Y-105911705D02*
G01*
X93576366Y-106461705D01*
X92526366Y-108280359D01*
X91573738Y-107730359D01*
X92623738Y-105911705D01*
G37*
G36*
X91133738Y-108492461D02*
G01*
X92086366Y-109042461D01*
X91436366Y-110168295D01*
X90483738Y-109618295D01*
X91133738Y-108492461D01*
G37*
G36*
X94690281Y-108952346D02*
G01*
X93910859Y-108502346D01*
X94710859Y-107116706D01*
X95490281Y-107566706D01*
X94690281Y-108952346D01*
G37*
G36*
X93341621Y-111268294D02*
G01*
X92562199Y-110818294D01*
X93562199Y-109086244D01*
X94341621Y-109536244D01*
X93341621Y-111268294D01*
G37*
D17*
X100880000Y-109910000D03*
D18*
X100880000Y-112490000D03*
D19*
X103190000Y-109660000D03*
D20*
X103180000Y-112140000D03*
D12*
G36*
X114911705Y-102376262D02*
G01*
X115461705Y-101423634D01*
X117280359Y-102473634D01*
X116730359Y-103426262D01*
X114911705Y-102376262D01*
G37*
G36*
X117492461Y-103866262D02*
G01*
X118042461Y-102913634D01*
X119168295Y-103563634D01*
X118618295Y-104516262D01*
X117492461Y-103866262D01*
G37*
G36*
X117952346Y-100309719D02*
G01*
X117502346Y-101089141D01*
X116116706Y-100289141D01*
X116566706Y-99509719D01*
X117952346Y-100309719D01*
G37*
G36*
X120268294Y-101658379D02*
G01*
X119818294Y-102437801D01*
X118086244Y-101437801D01*
X118536244Y-100658379D01*
X120268294Y-101658379D01*
G37*
D13*
X118910000Y-94120000D03*
D14*
X121490000Y-94120000D03*
D15*
X118660000Y-91810000D03*
D16*
X121140000Y-91820000D03*
D12*
G36*
X116581705Y-86516262D02*
G01*
X116031705Y-85563634D01*
X117850359Y-84513634D01*
X118400359Y-85466262D01*
X116581705Y-86516262D01*
G37*
G36*
X119162461Y-85026262D02*
G01*
X118612461Y-84073634D01*
X119738295Y-83423634D01*
X120288295Y-84376262D01*
X119162461Y-85026262D01*
G37*
G36*
X116312346Y-82849719D02*
G01*
X116762346Y-83629141D01*
X115376706Y-84429141D01*
X114926706Y-83649719D01*
X116312346Y-82849719D01*
G37*
G36*
X118638294Y-81518379D02*
G01*
X119088294Y-82297801D01*
X117356244Y-83297801D01*
X116906244Y-82518379D01*
X118638294Y-81518379D01*
G37*
G36*
X111376262Y-80088295D02*
G01*
X110423634Y-79538295D01*
X111473634Y-77719641D01*
X112426262Y-78269641D01*
X111376262Y-80088295D01*
G37*
G36*
X112866262Y-77507539D02*
G01*
X111913634Y-76957539D01*
X112563634Y-75831705D01*
X113516262Y-76381705D01*
X112866262Y-77507539D01*
G37*
G36*
X109309719Y-77047654D02*
G01*
X110089141Y-77497654D01*
X109289141Y-78883294D01*
X108509719Y-78433294D01*
X109309719Y-77047654D01*
G37*
G36*
X110658379Y-74731706D02*
G01*
X111437801Y-75181706D01*
X110437801Y-76913756D01*
X109658379Y-76463756D01*
X110658379Y-74731706D01*
G37*
D17*
X103120000Y-76090000D03*
D18*
X103120000Y-73510000D03*
D19*
X100810000Y-76340000D03*
D20*
X100820000Y-73860000D03*
M02*
