G04 #@! TF.GenerationSoftware,KiCad,Pcbnew,(5.1.9)-1*
G04 #@! TF.CreationDate,2021-11-24T11:51:20+08:00*
G04 #@! TF.ProjectId,RGB-ring,5247422d-7269-46e6-972e-6b696361645f,rev?*
G04 #@! TF.SameCoordinates,Original*
G04 #@! TF.FileFunction,Legend,Bot*
G04 #@! TF.FilePolarity,Positive*
%FSLAX46Y46*%
G04 Gerber Fmt 4.6, Leading zero omitted, Abs format (unit mm)*
G04 Created by KiCad (PCBNEW (5.1.9)-1) date 2021-11-24 11:51:20*
%MOMM*%
%LPD*%
G01*
G04 APERTURE LIST*
%ADD10C,0.150000*%
G04 APERTURE END LIST*
D10*
X113300000Y-101950000D02*
X112300000Y-101950000D01*
X111300000Y-94800000D02*
X111300000Y-93950000D01*
X111300000Y-90500000D02*
X111300000Y-91000000D01*
X111300000Y-89500000D02*
X111300000Y-90000000D01*
X111300000Y-88500000D02*
X111300000Y-89000000D01*
X111300000Y-87500000D02*
X111300000Y-88000000D01*
X111300000Y-86500000D02*
X111300000Y-87000000D01*
X111300000Y-85500000D02*
X111300000Y-86000000D01*
X113350000Y-84000000D02*
X112300000Y-84000000D01*
X111800000Y-84000000D02*
X111300000Y-84000000D01*
X111300000Y-84000000D02*
X111300000Y-84850000D01*
X111300000Y-91500000D02*
X111300000Y-92000000D01*
X111300000Y-92000000D02*
X111800000Y-92000000D01*
X113000000Y-86000000D02*
X113350000Y-86000000D01*
X112000000Y-86000000D02*
X112500000Y-86000000D01*
X112000000Y-86500000D02*
X112000000Y-86000000D01*
X112000000Y-87500000D02*
X112000000Y-87000000D01*
X112000000Y-88500000D02*
X112000000Y-88000000D01*
X112000000Y-89500000D02*
X112000000Y-89000000D01*
X112000000Y-90000000D02*
X112300000Y-90000000D01*
X111800000Y-93950000D02*
X111300000Y-93950000D01*
X111300000Y-95450000D02*
X111300000Y-95950000D01*
X111300000Y-96450000D02*
X111300000Y-96950000D01*
X111300000Y-97450000D02*
X111300000Y-97950000D01*
X111300000Y-98450000D02*
X111300000Y-98950000D01*
X111300000Y-99450000D02*
X111300000Y-99950000D01*
X111300000Y-100450000D02*
X111300000Y-100950000D01*
X111300000Y-101450000D02*
X111300000Y-101950000D01*
X111300000Y-101950000D02*
X111800000Y-101950000D01*
X112300000Y-96000000D02*
X112000000Y-96000000D01*
X112000000Y-96300000D02*
X112000000Y-96800000D01*
X112000000Y-99950000D02*
X112500000Y-99950000D01*
X112900000Y-99950000D02*
X113400000Y-99950000D01*
X112000000Y-99950000D02*
X112000000Y-99450000D01*
X112000000Y-98950000D02*
X112000000Y-98450000D01*
X112000000Y-97900000D02*
X112000000Y-97400000D01*
X107714286Y-95992380D02*
X108047619Y-95516190D01*
X108285714Y-95992380D02*
X108285714Y-94992380D01*
X107904762Y-94992380D01*
X107809524Y-95040000D01*
X107761905Y-95087619D01*
X107714286Y-95182857D01*
X107714286Y-95325714D01*
X107761905Y-95420952D01*
X107809524Y-95468571D01*
X107904762Y-95516190D01*
X108285714Y-95516190D01*
X106761905Y-95040000D02*
X106857143Y-94992380D01*
X107000000Y-94992380D01*
X107142857Y-95040000D01*
X107238095Y-95135238D01*
X107285714Y-95230476D01*
X107333333Y-95420952D01*
X107333333Y-95563809D01*
X107285714Y-95754285D01*
X107238095Y-95849523D01*
X107142857Y-95944761D01*
X107000000Y-95992380D01*
X106904762Y-95992380D01*
X106761905Y-95944761D01*
X106714286Y-95897142D01*
X106714286Y-95563809D01*
X106904762Y-95563809D01*
X105952381Y-95468571D02*
X105809524Y-95516190D01*
X105761905Y-95563809D01*
X105714286Y-95659047D01*
X105714286Y-95801904D01*
X105761905Y-95897142D01*
X105809524Y-95944761D01*
X105904762Y-95992380D01*
X106285714Y-95992380D01*
X106285714Y-94992380D01*
X105952381Y-94992380D01*
X105857143Y-95040000D01*
X105809524Y-95087619D01*
X105761905Y-95182857D01*
X105761905Y-95278095D01*
X105809524Y-95373333D01*
X105857143Y-95420952D01*
X105952381Y-95468571D01*
X106285714Y-95468571D01*
X95904762Y-95468571D02*
X95761905Y-95516190D01*
X95714286Y-95563809D01*
X95666667Y-95659047D01*
X95666667Y-95801904D01*
X95714286Y-95897142D01*
X95761905Y-95944761D01*
X95857143Y-95992380D01*
X96238095Y-95992380D01*
X96238095Y-94992380D01*
X95904762Y-94992380D01*
X95809524Y-95040000D01*
X95761905Y-95087619D01*
X95714286Y-95182857D01*
X95714286Y-95278095D01*
X95761905Y-95373333D01*
X95809524Y-95420952D01*
X95904762Y-95468571D01*
X96238095Y-95468571D01*
X107809524Y-92452380D02*
X108285714Y-92452380D01*
X108333333Y-92928571D01*
X108285714Y-92880952D01*
X108190476Y-92833333D01*
X107952381Y-92833333D01*
X107857143Y-92880952D01*
X107809524Y-92928571D01*
X107761905Y-93023809D01*
X107761905Y-93261904D01*
X107809524Y-93357142D01*
X107857143Y-93404761D01*
X107952381Y-93452380D01*
X108190476Y-93452380D01*
X108285714Y-93404761D01*
X108333333Y-93357142D01*
X107476190Y-92452380D02*
X107142857Y-93452380D01*
X106809524Y-92452380D01*
X107761904Y-89960000D02*
X107857142Y-89912380D01*
X108000000Y-89912380D01*
X108142857Y-89960000D01*
X108238095Y-90055238D01*
X108285714Y-90150476D01*
X108333333Y-90340952D01*
X108333333Y-90483809D01*
X108285714Y-90674285D01*
X108238095Y-90769523D01*
X108142857Y-90864761D01*
X108000000Y-90912380D01*
X107904761Y-90912380D01*
X107761904Y-90864761D01*
X107714285Y-90817142D01*
X107714285Y-90483809D01*
X107904761Y-90483809D01*
X107285714Y-90912380D02*
X107285714Y-89912380D01*
X106714285Y-90912380D01*
X106714285Y-89912380D01*
X106238095Y-90912380D02*
X106238095Y-89912380D01*
X106000000Y-89912380D01*
X105857142Y-89960000D01*
X105761904Y-90055238D01*
X105714285Y-90150476D01*
X105666666Y-90340952D01*
X105666666Y-90483809D01*
X105714285Y-90674285D01*
X105761904Y-90769523D01*
X105857142Y-90864761D01*
X106000000Y-90912380D01*
X106238095Y-90912380D01*
X115640476Y-100452380D02*
X115973809Y-99976190D01*
X116211904Y-100452380D02*
X116211904Y-99452380D01*
X115830952Y-99452380D01*
X115735714Y-99500000D01*
X115688095Y-99547619D01*
X115640476Y-99642857D01*
X115640476Y-99785714D01*
X115688095Y-99880952D01*
X115735714Y-99928571D01*
X115830952Y-99976190D01*
X116211904Y-99976190D01*
X114688095Y-99500000D02*
X114783333Y-99452380D01*
X114926190Y-99452380D01*
X115069047Y-99500000D01*
X115164285Y-99595238D01*
X115211904Y-99690476D01*
X115259523Y-99880952D01*
X115259523Y-100023809D01*
X115211904Y-100214285D01*
X115164285Y-100309523D01*
X115069047Y-100404761D01*
X114926190Y-100452380D01*
X114830952Y-100452380D01*
X114688095Y-100404761D01*
X114640476Y-100357142D01*
X114640476Y-100023809D01*
X114830952Y-100023809D01*
X113878571Y-99928571D02*
X113735714Y-99976190D01*
X113688095Y-100023809D01*
X113640476Y-100119047D01*
X113640476Y-100261904D01*
X113688095Y-100357142D01*
X113735714Y-100404761D01*
X113830952Y-100452380D01*
X114211904Y-100452380D01*
X114211904Y-99452380D01*
X113878571Y-99452380D01*
X113783333Y-99500000D01*
X113735714Y-99547619D01*
X113688095Y-99642857D01*
X113688095Y-99738095D01*
X113735714Y-99833333D01*
X113783333Y-99880952D01*
X113878571Y-99928571D01*
X114211904Y-99928571D01*
X113878571Y-101928571D02*
X113735714Y-101976190D01*
X113688095Y-102023809D01*
X113640476Y-102119047D01*
X113640476Y-102261904D01*
X113688095Y-102357142D01*
X113735714Y-102404761D01*
X113830952Y-102452380D01*
X114211904Y-102452380D01*
X114211904Y-101452380D01*
X113878571Y-101452380D01*
X113783333Y-101500000D01*
X113735714Y-101547619D01*
X113688095Y-101642857D01*
X113688095Y-101738095D01*
X113735714Y-101833333D01*
X113783333Y-101880952D01*
X113878571Y-101928571D01*
X114211904Y-101928571D01*
X115735713Y-85500000D02*
X115830951Y-85452380D01*
X115973809Y-85452380D01*
X116116666Y-85500000D01*
X116211904Y-85595238D01*
X116259523Y-85690476D01*
X116307142Y-85880952D01*
X116307142Y-86023809D01*
X116259523Y-86214285D01*
X116211904Y-86309523D01*
X116116666Y-86404761D01*
X115973809Y-86452380D01*
X115878570Y-86452380D01*
X115735713Y-86404761D01*
X115688094Y-86357142D01*
X115688094Y-86023809D01*
X115878570Y-86023809D01*
X115259523Y-86452380D02*
X115259523Y-85452380D01*
X114688094Y-86452380D01*
X114688094Y-85452380D01*
X114211904Y-86452380D02*
X114211904Y-85452380D01*
X113973809Y-85452380D01*
X113830951Y-85500000D01*
X113735713Y-85595238D01*
X113688094Y-85690476D01*
X113640475Y-85880952D01*
X113640475Y-86023809D01*
X113688094Y-86214285D01*
X113735713Y-86309523D01*
X113830951Y-86404761D01*
X113973809Y-86452380D01*
X114211904Y-86452380D01*
X114545238Y-83452380D02*
X115021428Y-83452380D01*
X115069047Y-83928571D01*
X115021428Y-83880952D01*
X114926190Y-83833333D01*
X114688095Y-83833333D01*
X114592857Y-83880952D01*
X114545238Y-83928571D01*
X114497619Y-84023809D01*
X114497619Y-84261904D01*
X114545238Y-84357142D01*
X114592857Y-84404761D01*
X114688095Y-84452380D01*
X114926190Y-84452380D01*
X115021428Y-84404761D01*
X115069047Y-84357142D01*
X114211904Y-83452380D02*
X113878571Y-84452380D01*
X113545238Y-83452380D01*
X96571429Y-92452380D02*
X97047619Y-92452380D01*
X97095238Y-92928571D01*
X97047619Y-92880952D01*
X96952381Y-92833333D01*
X96714286Y-92833333D01*
X96619048Y-92880952D01*
X96571429Y-92928571D01*
X96523810Y-93023809D01*
X96523810Y-93261904D01*
X96571429Y-93357142D01*
X96619048Y-93404761D01*
X96714286Y-93452380D01*
X96952381Y-93452380D01*
X97047619Y-93404761D01*
X97095238Y-93357142D01*
X96238095Y-92452380D02*
X95904762Y-93452380D01*
X95571429Y-92452380D01*
X97761904Y-89960000D02*
X97857142Y-89912380D01*
X98000000Y-89912380D01*
X98142857Y-89960000D01*
X98238095Y-90055238D01*
X98285714Y-90150476D01*
X98333333Y-90340952D01*
X98333333Y-90483809D01*
X98285714Y-90674285D01*
X98238095Y-90769523D01*
X98142857Y-90864761D01*
X98000000Y-90912380D01*
X97904761Y-90912380D01*
X97761904Y-90864761D01*
X97714285Y-90817142D01*
X97714285Y-90483809D01*
X97904761Y-90483809D01*
X97285714Y-90912380D02*
X97285714Y-89912380D01*
X96714285Y-90912380D01*
X96714285Y-89912380D01*
X96238095Y-90912380D02*
X96238095Y-89912380D01*
X96000000Y-89912380D01*
X95857142Y-89960000D01*
X95761904Y-90055238D01*
X95714285Y-90150476D01*
X95666666Y-90340952D01*
X95666666Y-90483809D01*
X95714285Y-90674285D01*
X95761904Y-90769523D01*
X95857142Y-90864761D01*
X96000000Y-90912380D01*
X96238095Y-90912380D01*
X121600000Y-97200000D02*
X121600000Y-88800000D01*
X113900000Y-99000000D02*
X113900000Y-96800000D01*
X117500000Y-99000000D02*
X113900000Y-99000000D01*
X113900000Y-87000000D02*
X113900000Y-89200000D01*
X117500000Y-87000000D02*
X113900000Y-87000000D01*
M02*
